<svg xmlns="http://www.w3.org/2000/svg" viewBox="0 0 297.7 262.1">
  <defs>
    <style>
      .cls-1 {
        fill: #fff;
      }
    </style>
  </defs>
  <title>cytRecurso 8</title>
  <g id="Capa_2" data-name="Capa 2">
    <g id="letters">
      <g>
        <g>
          <g>
            <path class="cls-1" d="M30.7,148.4c-2.4.2-4.4.4-5.9.4L65,29.1,67.8,0,22.7,6.1,20.6,39.2l2.6-.5c1.7-.5,3.7-1.1,6.1-1.6l6.9-1.6a26.2,26.2,0,0,1,5.3-.8L.1,154.2V185a50.9,50.9,0,0,1,6.6-1.7l9-1.6,9.9-1.3c3.4-.5,6.5-.8,9.4-1.1l7.6-.6,4.2-.2.3-32-8.6,1Z"/>
            <path class="cls-1" d="M66.7,1.2,64,28.9,23.9,148.5l-.5,1.3h1.4a54.7,54.7,0,0,0,6.1-.5l7.6-.8,7.5-.9-.3,29.9-3.3.2-7.6.6-9.4,1.1-10,1.3-9,1.6L1,183.6V154.4L42.4,35.1l.5-1.4H41.5a27.8,27.8,0,0,0-5.5.8l-7,1.6a49.7,49.7,0,0,0-6,1.7l-1.3.2L23.6,7,66.7,1.2M67.8,0,22.7,6.1,20.6,39.2l2.6-.5c1.7-.5,3.7-1.1,6.1-1.6l6.9-1.6a26.2,26.2,0,0,1,5.3-.8L.1,154.2V185a50.9,50.9,0,0,1,6.6-1.7l9-1.6,9.9-1.3c3.4-.5,6.5-.8,9.4-1.1l7.6-.6,4.2-.2.3-32-8.6,1-7.7.9c-2.4.2-4.4.4-5.9.4L65,29.1,67.8,0Z"/>
          </g>
          <g>
            <path class="cls-1" d="M87.2,11.7q-7.8,1.5-15.3,2.4c-.9,6-1.9,12.6-3.1,19.8s-2.4,14.7-3.7,22.4-2.5,15.6-3.8,23.5-2.5,15.3-3.7,22.5q-4.4,25.8-8.7,52.3l6.9-1.6,6.2-1.3c2.2-.4,4.1-.9,5.7-1.3l4.5-28.7h9.6c-.2,2.7-.4,5.8-.5,9.6l-.6,11.1-.9,13-2,26.5,5.9-1.8,6.1-1.7c2.2-.4,4.4-1,6.6-1.6l1.3-26.7c.5-20.6,1.6-40,1.9-58.3.3-7.9.5-15.9.7-24s.4-15.9.7-23.3.4-14.4.7-20.7.5-11.6.7-15.9A109,109,0,0,1,87.2,11.7Zm-2,39.9c-.5,7.9-.8,15.2-1.1,22-.2,2.8-.3,5.7-.5,8.6s-.2,5.6-.4,8.1-.2,4.6-.3,6.5-.2,3.3-.2,4.1a2.6,2.6,0,0,1-1.5.3l-2.4.2-2.4.2H74.8l6.8-50.1,2.6-17.1,1.6-.2Z"/>
            <path class="cls-1" d="M101.3,9.3c-.2,4.1-.4,8.9-.6,14.5s-.5,13.1-.7,20.6-.5,15.3-.7,23.4-.4,16.1-.7,23.9-.5,18.3-.9,28-.7,20-1,30.4L95.5,176c-2,.6-3.9,1-5.9,1.4h-.1l-6.1,1.8-4.5,1.4,1.9-25.1c.3-4.4.6-8.7.8-13s.5-7.4.7-11.2.3-6.9.5-9.6v-1H71.3v.8l-4.4,28.1-5,1.1-6,1.3h-.2l-5.5,1.3c2.8-17.2,5.7-34.1,8.5-50.8q1.4-8.9,3-18.3l.7-4.3c1.2-7.8,2.5-15.6,3.8-23.4S68.6,41.2,69.8,34s2.2-13.2,3-19c4.8-.6,9.7-1.4,14.6-2.3a108.4,108.4,0,0,0,13.9-3.4M73.7,102.7h2.8l2.3-.2h.1l2.4-.2a4.1,4.1,0,0,0,1.9-.4l.5-.2v-.7c0-.8.1-2.1.2-4s.2-4.2.3-6.6.3-5.1.4-8.1.3-5.8.5-8.6c.3-6.7.6-14,1.1-21.9l.6-17.4V33.2H85.7l-1.6.2h-.8v.7L80.7,51.5l-6.9,50.1v1.1M102.4,7.9a109,109,0,0,1-15.2,3.8q-7.8,1.5-15.3,2.4c-.9,6-1.9,12.6-3.1,19.8s-2.4,14.7-3.7,22.4-2.5,15.6-3.8,23.5-2.5,15.3-3.7,22.5q-4.4,25.8-8.7,52.3l6.9-1.6,6.2-1.3c2.2-.4,4.1-.9,5.7-1.3l4.5-28.7h9.6c-.2,2.7-.4,5.8-.5,9.6l-.6,11.1-.9,13-2,26.5,5.9-1.8,6.1-1.7c2.2-.4,4.4-1,6.6-1.6l1.3-26.7c.5-20.6,1.6-40,1.9-58.3.3-7.9.5-15.9.7-24s.4-15.9.7-23.3.4-14.4.7-20.7.5-11.6.7-15.9ZM74.8,101.7l6.8-50.1,2.6-17.1,1.6-.2-.6,17.3c-.5,7.9-.8,15.2-1.1,22-.2,2.8-.3,5.7-.5,8.6s-.2,5.6-.4,8.1-.2,4.6-.3,6.5-.2,3.3-.2,4.1a2.6,2.6,0,0,1-1.5.3l-2.4.2-2.4.2Z"/>
          </g>
          <g>
            <path class="cls-1" d="M162.7,4.2,149.3,7.4c-1.1,10-2.1,19.8-3.2,29.2l-1.2,12.7c-.4,4.3-.9,8.5-1.3,12.8s-.6,8.2-1.2,12S141,93,140.7,95.9c-.6-6.1-.7-25.1-1.6-33.8s-1.6-17.2-2.4-25.5-1.8-19.2-2.8-29.4l-4.7.4-4.4.4h-6.1l-2.4-.2c-.3,6.5-.7,13.8-1.3,21.8s-1.3,16.5-2,25.3-1.5,17.7-2.4,26.6-1.6,17.8-2.3,26.2q-3,29.4-6.3,60.7l16.1-7.4c1.1-10.6,2.1-20.8,3.1-30.5.4-4,.8-8.3,1.2-12.7s.7-8.7,1.1-12.7.7-8,1.1-11.6.6-6.8.8-9.6c.1.4.1.7.2,1.1.5,3.6,1.1,7.3,1.3,11V97c.2,2.3.3,4.5.5,6.8l.6,9.9.5,8.7c.3,3.7.1,7.4.2,11.1.6,10.4,1,33.8,1.5,45.4a25.3,25.3,0,0,1,4.3-2.4l5.9-2.6,5.1-2.2a11.8,11.8,0,0,1,2.6-1c.3-4.7.7-22.8,1.2-29.7s1.2-14.4,1.9-22.5,1.5-16.4,2.4-25.2,1.7-17.5,2.5-26Q159.1,37.5,162.7,4.2Z"/>
            <path class="cls-1" d="M161.6,5.5c-2.4,21.5-4.6,42.3-6.4,61.7-.9,8.6-1.8,17.3-2.6,26s-1.7,17.4-2.4,25.3-1.4,15.5-1.9,22.4c-.3,4.1-.5,12-.8,19-.1,4.2-.2,7.9-.3,10l-2.1.8-5.2,2.3-1.7.8-4.1,1.8-3,1.5c-.2-4.7-.3-10.8-.5-17.3-.3-10-.6-20.3-.9-26.4v-5.1c0-2,0-4-.2-6l-.2-4.3-.3-4.4-.6-9.9-.5-6.7h0V96c-.2-2.8-.6-5.5-.9-8.2a28.9,28.9,0,0,1-.4-2.9c-.1-.3-.1-.6-.2-1h-2c-.2,2.7-.5,5.9-.8,9.5s-.8,7.4-1.1,11.6-.8,8.4-1.1,12.7-.8,8.8-1.2,12.7c-1,9.9-2,19.9-3.1,29.9l-13.9,6.5c2.1-20,4.1-39.9,6.1-59,.7-8.4,1.5-17.2,2.3-26.2s1.7-18.1,2.4-26.6,1.4-17.3,2-25.3,1-14.6,1.3-20.8h7.5l4.5-.4,3.7-.3c1,9.7,1.9,19.3,2.7,28.4s1.6,16.7,2.4,25.5c.5,4.5.7,11.7.9,18.8s.4,12.1.8,15l1,9.5.9-9.5c.1-1,.3-3.4.5-6.5.3-5.3.8-12.5,1.2-15.2s.6-5,.8-7.6.2-3,.4-4.5c.4-4.2.9-8.5,1.3-12.8s.8-8.4,1.2-12.7c1-9.2,2.1-18.7,3.1-28.5l11.4-2.7m1.1-1.3L149.3,7.4c-1.1,10-2.1,19.8-3.2,29.2l-1.2,12.7c-.4,4.3-.9,8.5-1.3,12.8s-.6,8.2-1.2,12S141,93,140.7,95.9c-.6-6.1-.7-25.1-1.6-33.8s-1.6-17.2-2.4-25.5-1.8-19.2-2.8-29.4l-4.7.4-4.4.4h-6.1l-2.4-.2c-.3,6.5-.7,13.8-1.3,21.8s-1.3,16.5-2,25.3-1.5,17.7-2.4,26.6-1.6,17.8-2.3,26.2q-3,29.4-6.3,60.7l16.1-7.4c1.1-10.6,2.1-20.8,3.1-30.5.4-4,.8-8.3,1.2-12.7s.7-8.7,1.1-12.7.7-8,1.1-11.6.6-6.8.8-9.6c.1.4.1.7.2,1.1.5,3.6,1.1,7.3,1.3,11V97c.2,2.3.3,4.5.5,6.8l.6,9.9.5,8.7c.3,3.7.1,7.4.2,11.1.6,10.4,1,33.8,1.5,45.4a25.3,25.3,0,0,1,4.3-2.4l5.9-2.6,5.1-2.2a11.8,11.8,0,0,1,2.6-1c.3-4.7.7-22.8,1.2-29.7s1.2-14.4,1.9-22.5,1.5-16.4,2.4-25.2,1.7-17.5,2.5-26q3-29.8,6.6-63.1Z"/>
          </g>
          <g>
            <path class="cls-1" d="M231.2,62.6l-6.4.7,1.9-26.9h6.1l4.7-.2,4.4-.2a20.2,20.2,0,0,0,3.1-.3c.2-2.3.5-5,.8-7.9s.7-5.9,1.1-8.6.8-6.6,1.3-9.8l-34.9,5.9L210,50.9a140.4,140.4,0,0,0-1.2-18.8A74.7,74.7,0,0,0,205,16a28.2,28.2,0,0,0-6.7-10.9,14.4,14.4,0,0,0-10.1-3.9,31.2,31.2,0,0,0-10,1.6l-9.6,3.4c-.4,6.7-1,14.1-1.7,22.2s-1.4,16.8-2.1,25.7-1.6,26.8-2.4,36-1.5,18-2.3,26.5q-2.8,30.3-5.8,62.2l3.1.8a15.5,15.5,0,0,0,3.1.3c4.9,0,9.5-1.8,13.9-5.5a58.7,58.7,0,0,0,12.1-14.7,117.3,117.3,0,0,0,9.9-21.3c2.9-8.1,5.3-25.3,7.3-34.2.9-4,1.7-8.1,2.5-12.2l-7.3,77.9,35.6-10.8,1.1-24.8-16.1,5,3.8-52.1,6.3-.4c1.7-.1,3.3-.3,5-.3a22.7,22.7,0,0,0,3.6-.4c.3-4,.7-8,.9-11.9s.5-7.9.8-12a17.9,17.9,0,0,1-3.7.2Zm-38.6,2.6c-.4,5.1-1.1,19.4-2,25.2s-1.9,11.9-3.2,18.1-2.5,12-4,17.6a132.9,132.9,0,0,1-4.7,14.6,42.9,42.9,0,0,1-5.1,10.1c.8-10.9,1.6-21,2.5-30.3s1.8-18.1,2.7-26.6,1.7-25.7,2.6-34,1.8-17,2.6-26.1c3.2,0,5.6,1.6,7.1,4.8s2.3,7.7,2.3,13.4C193.4,55.7,193.1,60.1,192.6,65.2Z"/>
            <path class="cls-1" d="M188.2,2.2a13.3,13.3,0,0,1,9.4,3.6,28.2,28.2,0,0,1,6.5,10.5,72.6,72.6,0,0,1,3.7,16A135.2,135.2,0,0,1,209,50.9h2l3.3-34.8L247,10.6c-.4,2.8-.8,5.6-1.1,8.4s-.7,5.6-1,8.7-.6,4.9-.8,7.1l-2.3.2-4.3.2-4.7.2h-7.1v.9l-1.9,26.9v1.2h1.2l6.4-.7,4.9-.2h2.7c-.3,3.6-.6,7.2-.8,10.8s-.5,7.5-.9,11.2l-2.7.2-5,.3-6.3.4h-.9v.9l-3.8,52v1.5l1.4-.5,14.8-4.6-1,22.7L200,168.6l7.2-76.5-2-.2c-.8,4.2-1.6,8.2-2.4,12.1s-1.4,6.9-2.2,11.1c-1.5,8.3-3.2,17.7-5.2,23a115.1,115.1,0,0,1-9.7,21.1,60.9,60.9,0,0,1-11.9,14.4,20.2,20.2,0,0,1-13.3,5.3,13.6,13.6,0,0,1-2.9-.3l-2.3-.5c2.1-22.5,4-42.6,5.8-61.4.8-8.5,1.5-17.4,2.3-26.5.5-4.9.9-12.2,1.3-19.3s.7-12.5,1.1-16.7c.7-9,1.4-17.7,2.1-25.7s1.2-15.1,1.7-21.6l8.9-3.2a32.2,32.2,0,0,1,9.7-1.5M172.3,154.3l2.1-2.9a48.7,48.7,0,0,0,5.3-10.3,154.3,154.3,0,0,0,4.7-14.8c1.5-5.5,2.8-11.5,4-17.6s2.3-12.3,3.2-18.1c.6-3.9,1.1-11.4,1.5-17.4.2-3.3.4-6.1.5-7.9.5-5.1.8-9.5.8-13.3q0-8.7-2.4-13.8c-1.7-3.6-4.4-5.4-8-5.4h-.9v.9c-.8,9.1-1.7,17.9-2.6,26.1-.4,4.2-.9,10.8-1.3,17.1s-.9,12.7-1.3,16.9c-.9,8.4-1.8,17.4-2.7,26.6s-1.7,19.5-2.5,30.3l-.3,3.6M188.2,1.2a31.2,31.2,0,0,0-10,1.6l-9.6,3.4c-.4,6.7-1,14.1-1.7,22.2s-1.4,16.8-2.1,25.7-1.6,26.8-2.4,36-1.5,18-2.3,26.5q-2.8,30.3-5.8,62.2l3.1.8a15.5,15.5,0,0,0,3.1.3c4.9,0,9.5-1.8,13.9-5.5a58.7,58.7,0,0,0,12.1-14.7,117.3,117.3,0,0,0,9.9-21.3c2.9-8.1,5.3-25.3,7.3-34.2.9-4,1.7-8.1,2.5-12.2l-7.3,77.9,35.6-10.8,1.1-24.8-16.1,5,3.8-52.1,6.3-.4c1.7-.1,3.3-.3,5-.3a22.7,22.7,0,0,0,3.6-.4c.3-4,.7-8,.9-11.9s.5-7.9.8-12a17.9,17.9,0,0,1-3.7.2l-5,.2-6.4.7,1.9-26.9h6.1l4.7-.2,4.4-.2a20.2,20.2,0,0,0,3.1-.3c.2-2.3.5-5,.8-7.9s.7-5.9,1.1-8.6.8-6.6,1.3-9.8l-34.9,5.9L210,50.9a140.4,140.4,0,0,0-1.2-18.8A74.7,74.7,0,0,0,205,16a28.2,28.2,0,0,0-6.7-10.9,14.4,14.4,0,0,0-10.1-3.9ZM173.6,150.8c.8-10.9,1.6-21,2.5-30.3s1.8-18.1,2.7-26.6,1.7-25.7,2.6-34,1.8-17,2.6-26.1c3.2,0,5.6,1.6,7.1,4.8s2.3,7.7,2.3,13.4c0,3.7-.3,8.1-.8,13.2s-1.1,19.4-2,25.2-1.9,11.9-3.2,18.1-2.5,12-4,17.6a132.9,132.9,0,0,1-4.7,14.6,42.9,42.9,0,0,1-5.1,10.1Z"/>
          </g>
          <g>
            <path class="cls-1" d="M297.1,19.9a40.1,40.1,0,0,0-2.3-9.5,13.9,13.9,0,0,0-4.4-6.2,11,11,0,0,0-7.1-2.3A52.4,52.4,0,0,0,268.8,4a45.1,45.1,0,0,0-13.6,6.6c-.3,7.2-.8,15.2-1.5,23.9s-1.2,17.9-1.9,27.3-1.5,19-2.3,28.5-1.5,18.9-2.2,27.7c-1.8,20.8-3.8,42.1-5.8,63.9l17.9-10.3c.7-7.9,1.4-15.6,2-23.3s1.1-13.4,1.7-20.5,1.2-13.1,1.6-18.4l1.5-1c0,1.8.2,4.2.5,7s.7,6.1,1.1,9.7.9,7.5,1.5,11.5l1.5,11.7c1.2,9.1,2.5,19,4,29.5l17.1-13.3q-2.4-12.3-4.5-24.6c-1.4-7.1-2.8-14.5-4.3-22.3l-4.2-21.5a49.8,49.8,0,0,0,7.2-11.4,125.4,125.4,0,0,0,6-15.5,135.7,135.7,0,0,0,4.1-18,122.6,122.6,0,0,0,1.5-19.3A109.3,109.3,0,0,0,297.1,19.9ZM283.2,53.1a76.4,76.4,0,0,1-4.8,10,47.6,47.6,0,0,1-5.8,8.2q-3,3.5-5.1,3.9L271,36.1h4.8l3.4.2a9.8,9.8,0,0,1,3,1.1,5.4,5.4,0,0,1,2.2,2.5,10.3,10.3,0,0,1,.8,4.3A26.9,26.9,0,0,1,283.2,53.1Z"/>
            <path class="cls-1" d="M283.3,2.9a10.5,10.5,0,0,1,6.5,2,14.5,14.5,0,0,1,4.1,5.9,37.6,37.6,0,0,1,2.2,9.2,108.7,108.7,0,0,1,.6,11.9,121.3,121.3,0,0,1-1.5,19.2,136.3,136.3,0,0,1-4.1,17.8,110,110,0,0,1-5.9,15.4,52.8,52.8,0,0,1-7.1,11.2l-.3.3v.5c1.3,6.4,2.7,13.5,4.2,21.5s3,15.4,4.3,22.3,2.9,16,4.4,24l-15.3,11.8c-1.3-9.7-2.6-19.1-3.7-27.8-.5-3.6-1-7.6-1.5-11.7s-1-7.4-1.5-11.4-.8-6.9-1.1-9.7-.5-5.2-.5-6.9v-1.8l-1.5,1-1.4,1-.4.2v.5c-.4,4.9-.9,10.7-1.6,18.5s-1.2,13.9-1.7,20.4-1.3,15.1-1.9,22.8l-15.8,9.1,5.6-62c.7-9,1.4-18.3,2.2-27.7s1.6-19.1,2.3-28.5,1.3-18.6,1.9-27.3,1.1-16.4,1.5-23.5A44.9,44.9,0,0,1,269.1,5a49.8,49.8,0,0,1,14.2-2.1M266.4,76.5l1.3-.3q2.4-.6,5.7-4.2a59.9,59.9,0,0,0,5.9-8.5,76.4,76.4,0,0,0,4.8-10,26.9,26.9,0,0,0,2.1-9.5,10.6,10.6,0,0,0-.9-4.7,7.2,7.2,0,0,0-2.5-2.9,8.7,8.7,0,0,0-3.5-1.3l-3.5-.2h-5.7V36l-3.5,39.1v1.4M283.3,1.9A52.4,52.4,0,0,0,268.8,4a45.1,45.1,0,0,0-13.6,6.6c-.3,7.2-.8,15.2-1.5,23.9s-1.2,17.9-1.9,27.3-1.5,19-2.3,28.5-1.5,18.9-2.2,27.7c-1.8,20.8-3.8,42.1-5.8,63.9l17.9-10.3c.7-7.9,1.4-15.6,2-23.3s1.1-13.4,1.7-20.5,1.2-13.1,1.6-18.4l1.5-1c0,1.8.2,4.2.5,7s.7,6.1,1.1,9.7.9,7.5,1.5,11.5l1.5,11.7c1.2,9.1,2.5,19,4,29.5l17.1-13.3q-2.4-12.3-4.5-24.6c-1.4-7.1-2.8-14.5-4.3-22.3l-4.2-21.5a49.8,49.8,0,0,0,7.2-11.4,125.4,125.4,0,0,0,6-15.5,135.7,135.7,0,0,0,4.1-18,122.6,122.6,0,0,0,1.5-19.3,109.3,109.3,0,0,0-.6-12,40.1,40.1,0,0,0-2.3-9.5,13.9,13.9,0,0,0-4.4-6.2,11,11,0,0,0-7.1-2.3ZM267.5,75.2,271,36.1h4.8l3.4.2a9.8,9.8,0,0,1,3,1.1,5.4,5.4,0,0,1,2.2,2.5,10.3,10.3,0,0,1,.8,4.3,26.9,26.9,0,0,1-2,9.1,76.4,76.4,0,0,1-4.8,10,47.6,47.6,0,0,1-5.8,8.2q-3,3.5-5.1,3.9Z"/>
          </g>
        </g>
        <g>
          <g>
            <path class="cls-1" d="M57.2,221.9c.5-3.7.9-7.4,1.4-11s1.1-7.1,1.6-10.4,1.3-4.4,1.9-7.2l-5.5.5-5.6.4-6,.4L40.9,243H39q-.2-2.4-.3-6c-.1-2.3-.2-4.8-.4-7.5s-.4-5.6-.6-8.5-.3-6.8-.5-11.5-.9-12.7-1.4-20.1c-2.2.3-4.2.4-5.8.5l-5.4.3-5.6.2c.4,3,1.2,8.3,1.6,11.8s.9,7.3,1.3,11.1.7,7.7,1.1,11.6.6,7.6.8,11.2c.6,8.5,1.2,17.2,1.8,26l27.6-4.2c.9-8.6,1.8-17,2.7-25.1C56.4,229.3,56.8,225.7,57.2,221.9Z"/>
            <path class="cls-1" d="M34.9,190.5l.6,9.1c.3,3.8.5,7.4.7,10,.2,4.6.4,8.5.5,11.4s.4,5.8.6,8.5.3,5.3.4,7.6.2,4.3.3,5.9v1h3.9V243l4-47.5,5.2-.3,5.6-.4,4.1-.3c-.2.5-.3,1-.5,1.5a24,24,0,0,0-1.1,4.3q-.7,5.1-1.5,10.5c-.6,3.6-1,7.3-1.5,11s-.8,7.4-1.3,10.8c-.9,7.9-1.8,16.1-2.6,24.4l-25.8,3.9c-.5-8.4-1.1-16.8-1.7-24.9-.2-3.6-.5-7.3-.8-11.2s-.7-7.7-1.1-11.6-.8-7.5-1.3-11.1-.9-6.8-1.3-9.8l-.2-.9,4.5-.2,5.4-.3,4.9-.4m.9-1.1c-2.2.3-4.2.4-5.8.5l-5.4.3-5.6.2c.4,3,1.2,8.3,1.6,11.8s.9,7.3,1.3,11.1.7,7.7,1.1,11.6.6,7.6.8,11.2c.6,8.5,1.2,17.2,1.8,26l27.6-4.2c.9-8.6,1.8-17,2.7-25.1.5-3.5.9-7.1,1.3-10.9s.9-7.4,1.4-11,1.1-7.1,1.6-10.4,1.3-4.4,1.9-7.2l-5.5.5-5.6.4-6,.4L40.9,243H39q-.2-2.4-.3-6c-.1-2.3-.2-4.8-.4-7.5s-.4-5.6-.6-8.5-.3-6.8-.5-11.5-.9-12.7-1.4-20.1Z"/>
          </g>
          <g>
            <path class="cls-1" d="M98,206c-.3-3.3-1-8.4-1.2-11.2s-.4-5.3-.5-7.2c-4.7.8-9.5,1.5-14.5,2l-14.6,1.3c-.4,2.7-.6,7.7-1.2,10.9s-1.3,6.6-1.9,10.2-1.3,7-2,10.5-1.3,7-1.9,10.2c-1.5,7.8-3.3,13.7-4.8,21.7l8.6-.9,5.9-.7c2.1-.2,2.3-.5,3.8-.7l1.8-12.9,9.3-.2c.1,1.2.5,4.6.6,6.3l.3,5c0,2,.4,5.9.4,7.9l5.7-1,5.7-.9,6.4-.8c-1.2-9.3-2.6-20-3.6-28.2l-1.2-10.8C98.7,212.9,98.3,209.4,98,206Zm-14.8,3.5q.3,5.3.6,9.9c.1,1.2.1,2.5.2,3.8s.2,2.6.2,3.7-.1.1-.1,1,.1,1.5.1,1.8l-1.4.2H76.6l3.2-20.6,1.1-7.8h1.6Z"/>
            <path class="cls-1" d="M95.4,188.8c.1,1.7.2,3.7.4,6s.5,4.7.8,7.3.3,2.8.4,4c.4,3.4.7,6.9,1.1,10.5l1.2,10.8c.4,3.4.9,7.2,1.4,11.1.7,5.4,1.4,11,2.1,16.2l-5.4.6h0l-5.8,1-4.5.7c-.1-.8-.1-1.8-.2-2.7s-.2-3-.2-4l-.3-5c0-.9-.2-2.2-.3-3.4s-.2-2.3-.3-2.9v-1h-1l-9.3.2h-.9v.9l-1.7,12.2-.8.2-2.2.3-5.4.7h-.6l-4.2.5-3,.2c.7-3.5,1.5-6.6,2.2-9.7s1.7-6.7,2.4-10.6l1.3-7.2.6-3c.6-3.5,1.3-7,2-10.6s1.3-6.9,1.9-10.1.5-4.4.7-6.7.2-2.4.3-3.4l13.9-1.3q6.9-.7,13.5-1.8m-20,42.4h7.4l1.7-.2.9-.2-.2-1a14.8,14.8,0,0,1-.1-1.6,1.4,1.4,0,0,0,.1-1.1c0-1.1-.1-2.3-.2-3.6s-.1-2.6-.2-3.9q-.3-4.5-.6-9.9l-.7-7.8v-1H80.1l-.2.8-1.1,7.7-3.2,20.7-.2,1.1m20.9-43.6c-4.7.8-9.5,1.5-14.5,2l-14.6,1.3c-.4,2.7-.6,7.7-1.2,10.9s-1.3,6.6-1.9,10.2-1.3,7-2,10.5-1.3,7-1.9,10.2c-1.5,7.8-3.3,13.7-4.8,21.7l8.6-.9,5.9-.7c2.1-.2,2.3-.5,3.8-.7l1.8-12.9,9.3-.2c.1,1.2.5,4.6.6,6.3l.3,5c0,2,.4,5.9.4,7.9l5.7-1,5.7-.9,6.4-.8c-1.2-9.3-2.6-20-3.6-28.2l-1.2-10.8c-.4-3.6-.8-7.1-1.1-10.5s-1-8.4-1.2-11.2-.4-5.3-.5-7.2ZM76.6,230.2l3.2-20.6,1.1-7.8h1.6l.7,7.8q.3,5.3.6,9.9c.1,1.2.1,2.5.2,3.8s.2,2.6.2,3.7-.1.1-.1,1,.1,1.5.1,1.8l-1.4.2H76.6Z"/>
          </g>
          <g>
            <path class="cls-1" d="M155.2,218.8c2.3-.1,3.8.2,5.7.1l4.9-.2,3.5-.2c.1-1.7.1-3.4.1-5v-5.1l-3.7.2-4.9.2c-2,.1-3-.2-5.2,0l1-10h8.7l4.3-.2,3.1-.2c0-.9.1-2.1.2-3.3s.3-2.5.5-3.6a27,27,0,0,1,.6-4.1l-34,3-3.4,64.5-.3-.7-1-3-.9-3.4h-5.5l-5.7.3c0-2.1,0-4.5.1-7.3s.3-5.5.6-8.5.5-5.9.8-9,.5-6,.9-8.9c.7-6.7,2.4-19.6,3.2-26.7L110,190.1c-.6,8.2-2.2,22.4-2.6,30.4q-.5,5-.6,10.5c-.2,3.6-.3,7.3-.5,10.8s-.2,7.1-.3,10.5,0,6.3.1,9.1a41.8,41.8,0,0,1,6.3-1.5c2.4-.5,4.8-.8,7.3-1.1l7.5-.7,7.1-.3h3.4a9.3,9.3,0,0,1-.5-1.4c-.1-.4-.3-.8-.4-1.3L171,250l-.6-10.4L154.8,242Z"/>
            <path class="cls-1" d="M172.7,188.3l-.3,2.9c-.2,1.1-.3,2.3-.5,3.6s-.1,1.7-.2,2.5h-2.2l-4.2.2h-9.6v.9l-1,10-.2,1.2h6.4l4.9-.2h2.7v4c0,1.3,0,2.7-.1,4.1h-2.6l-4.9.2h-6.5v.9l-.4,23.2v1.2l1.1-.2,14.5-2.2.6,8.4L137.6,254l3.3-62.9,31.8-2.8m-45.1.5c-.3,3.1-.8,6.9-1.3,11s-1.4,10.8-1.7,14.4-.6,5.8-.9,8.9-.6,6.1-.8,9-.4,5.8-.6,8.6-.1,5.2-.1,7.3v1.1h1l5.8-.3h4.7a26.8,26.8,0,0,0,.7,2.7c.3,1.1.7,2.1,1,3.1s.1.3.2.4v.8a7.6,7.6,0,0,1,.4,1.1h-1.9l-7.2.3-7.5.7c-2.5.3-5,.6-7.4,1.1L107,260v-7.7c.1-3.3.2-6.8.3-10.4s.3-7.2.5-10.9.3-7.2.6-10.5.9-11.3,1.5-17.8c.4-4.3.8-8.4,1.1-11.8l16.6-2.1m46.4-1.6-34,3-3.4,64.5-.3-.7-1-3-.9-3.4h-5.5l-5.7.3c0-2.1,0-4.5.1-7.3s.3-5.5.6-8.5.5-5.9.8-9,.5-6,.9-8.9c.7-6.7,2.4-19.6,3.2-26.7L110,190.1c-.6,8.2-2.2,22.4-2.6,30.4q-.5,5-.6,10.5c-.2,3.6-.3,7.3-.5,10.8s-.2,7.1-.3,10.5,0,6.3.1,9.1a41.8,41.8,0,0,1,6.3-1.5c2.4-.5,4.8-.8,7.3-1.1l7.5-.7,7.1-.3h3.4a9.3,9.3,0,0,1-.5-1.4c-.1-.4-.3-.8-.4-1.3L171,250l-.6-10.4L154.8,242l.4-23.2h5.7l4.9-.2,3.5-.2c.1-1.7.1-3.4.1-5v-5.1l-3.7.2-4.9.2h-5.2l1-10h8.7l4.3-.2,3.1-.2c0-.9.1-2.1.2-3.3s.3-2.5.5-3.6a27,27,0,0,1,.6-4.1Z"/>
          </g>
          <g>
            <path class="cls-1" d="M268,195.8a26.4,26.4,0,0,0-3.6-6.6,16.8,16.8,0,0,0-14.2-6.4,23.4,23.4,0,0,0-10.5,2.7,31.5,31.5,0,0,0-8.7,6.9,46.9,46.9,0,0,0-6.8,9.9,53.7,53.7,0,0,0-4.6,11.7,74.9,74.9,0,0,0-2.2,12.4,51,51,0,0,0,.4,11.8,46.8,46.8,0,0,0,1.1,4.7c-.8-1.2-1.5-2.4-2.2-3.7l-5.6-9.1-5.5-8.8a26.3,26.3,0,0,0,6.2-4.9,30.8,30.8,0,0,0,4.7-6.5,27,27,0,0,0,2.8-7.5,23.8,23.8,0,0,0,.2-8,18.7,18.7,0,0,0-1.5-4.9,12.1,12.1,0,0,0-2.8-3.9,12.4,12.4,0,0,0-4.7-2.5,20.5,20.5,0,0,0-6.9-.8,106.9,106.9,0,0,0-13.8,1.1,64.8,64.8,0,0,0-12.6,2.9c.1,3,.2,6.3.2,9.9s-.1,7.4-.1,11.4l-.3,11.8q-.1,6-.3,11.4l-1.2,26.6,16.1-6.7c.1-3.2.3-6.5.4-9.6s.5-3.5.6-6.5.2-5.4.3-7.6l1.3-.4a25.5,25.5,0,0,0,1,2.9l1.7,4,2.2,4.7,2.2,4.8,5.8,12.1,14.7-5.5a18.7,18.7,0,0,0,3.2,4,16,16,0,0,0,5.7,3.7,21.5,21.5,0,0,0,6.8,1.1,24.7,24.7,0,0,0,8.6-1.9,30.8,30.8,0,0,0,8.5-5.3A45.3,45.3,0,0,0,262,243a46.9,46.9,0,0,0,5.7-10.9,61.1,61.1,0,0,0,2.9-13.4,58.5,58.5,0,0,0-.6-15.5A40.7,40.7,0,0,0,268,195.8Zm-70.1,15.3a11.4,11.4,0,0,1-4.6,1.7l.8-16.2h7.8a13.6,13.6,0,0,1,3,.4,4.5,4.5,0,0,1,2.2,1,2.8,2.8,0,0,1,1.1,1.7,5.8,5.8,0,0,1-1.3,3.8,25.6,25.6,0,0,1-3.9,4.2A28.9,28.9,0,0,1,197.9,211.1Zm58.4,10.1a33.7,33.7,0,0,1-2.3,9.6,20.8,20.8,0,0,1-5.1,7.7,11.5,11.5,0,0,1-8.2,3.3,6.2,6.2,0,0,1-2.6-.6,8,8,0,0,1-2.1-1.5,11.6,11.6,0,0,1-1.6-2.1,12.7,12.7,0,0,1-.8-2.3,46.7,46.7,0,0,1-.3-5.7,32.1,32.1,0,0,1,.7-6.8,40.4,40.4,0,0,1,1.9-6.8,23.3,23.3,0,0,1,3.1-6.1,15.7,15.7,0,0,1,4.6-4.3,12.5,12.5,0,0,1,6.2-1.8,4.8,4.8,0,0,1,2.9.9,4.9,4.9,0,0,1,1.8,2,7.6,7.6,0,0,1,1.1,2.6,13.8,13.8,0,0,1,.6,2.6A31.9,31.9,0,0,1,256.3,221.2Z"/>
            <path class="cls-1" d="M204.2,183.3h0a21.8,21.8,0,0,1,6.1.7,12,12,0,0,1,4.2,2.3,10.4,10.4,0,0,1,2.6,3.6,19.9,19.9,0,0,1,1.2,12.3,32.1,32.1,0,0,1-2.7,7.3,30.2,30.2,0,0,1-4.6,6.2,22.2,22.2,0,0,1-5.9,4.7l-.9.5.5.9,5.6,8.8,5.5,9.1,1.3,2.3.9,1.4,3.2,5.4-13.6,5-5.4-11.3c-.7-1.5-1.5-3.1-2.2-4.8s-1.5-3.2-2.2-4.7l-1.7-3.9-.9-2.8-.3-1-1,.3-1.3.5-.7.2v.7c-.1,2-.2,4.5-.3,7.6-.1,1.4-.2,2.2-.3,3.1a15.5,15.5,0,0,0-.3,3.3c-.1,3-.2,6-.4,9.1l-14.1,5.7c.5-8.4.8-16.6,1.2-24.9.1-3.7.2-7.6.3-11.5l.3-11.8c0-3.8,0-7.7.1-11.4s-.1-6.4-.2-9.2a77.5,77.5,0,0,1,11.7-2.6,105.4,105.4,0,0,1,13.7-1.1h.6m-12,30.7,1.2-.2a16.1,16.1,0,0,0,5-1.8,26.8,26.8,0,0,0,5.2-3.6,27.8,27.8,0,0,0,4.1-4.4,6.4,6.4,0,0,0,1.5-4.5,3.8,3.8,0,0,0-1.5-2.4,7,7,0,0,0-2.6-1.2,14.6,14.6,0,0,0-3.1-.4h-8.9v1l-.8,16.2V214m58.4-30.2a16.1,16.1,0,0,1,7.6,1.6,15.6,15.6,0,0,1,5.4,4.4,23.3,23.3,0,0,1,3.5,6.4,38.3,38.3,0,0,1,1.9,7.2,56.1,56.1,0,0,1,.6,15.2,58.4,58.4,0,0,1-2.9,13.1,43.1,43.1,0,0,1-5.5,10.7,47.7,47.7,0,0,1-7.3,8.1,31,31,0,0,1-8.2,5.1,25.3,25.3,0,0,1-8.2,1.8h-.4a17.3,17.3,0,0,1-6-1.1,15.4,15.4,0,0,1-5.4-3.4,16.8,16.8,0,0,1-3-3.8l-.5-.7-.6.2-1.8-5.9c-.4-1.5-.7-3.1-1-4.7a49.1,49.1,0,0,1-.4-11.6,73.3,73.3,0,0,1,2.2-12.1,53.8,53.8,0,0,1,11.1-21.2,30,30,0,0,1,8.5-6.7,21.3,21.3,0,0,1,10-2.6h.4m-10,59h.1a13.4,13.4,0,0,0,8.9-3.5,21.5,21.5,0,0,0,5.3-8.1,32.6,32.6,0,0,0,2.4-9.9,34,34,0,0,0-.1-9.6,16.8,16.8,0,0,0-.6-2.7,11.8,11.8,0,0,0-1.2-2.8,7.9,7.9,0,0,0-2.1-2.4,6.5,6.5,0,0,0-3.4-1h-.1a13.4,13.4,0,0,0-6.7,1.9,16.5,16.5,0,0,0-4.9,4.6,31.3,31.3,0,0,0-3.3,6.3,60.6,60.6,0,0,0-1.9,7,33.9,33.9,0,0,0-.7,7,34.9,34.9,0,0,0,.4,5.9,7.3,7.3,0,0,0,.9,2.6,9.1,9.1,0,0,0,1.7,2.3,14.6,14.6,0,0,0,2.4,1.7,5.9,5.9,0,0,0,2.9.7m-36.4-60.5h-.6a106.9,106.9,0,0,0-13.8,1.1,64.8,64.8,0,0,0-12.6,2.9c.1,3,.2,6.3.2,9.9s-.1,7.4-.1,11.4l-.3,11.8q-.1,6-.3,11.4l-1.2,26.6,16.1-6.7c.1-3.2.3-6.5.4-9.6s.5-3.5.6-6.5.2-5.4.3-7.6l1.3-.4a25.5,25.5,0,0,0,1,2.9l1.7,4,2.2,4.7,2.2,4.8,5.8,12.1,14.7-5.5a18.7,18.7,0,0,0,3.2,4,16,16,0,0,0,5.7,3.7,19.6,19.6,0,0,0,6.4,1.1h.4a24.7,24.7,0,0,0,8.6-1.9,30.8,30.8,0,0,0,8.5-5.3A45.3,45.3,0,0,0,262,243a46.9,46.9,0,0,0,5.7-10.9,61.1,61.1,0,0,0,2.9-13.4,58.5,58.5,0,0,0-.6-15.5,40.7,40.7,0,0,0-2-7.4,26.4,26.4,0,0,0-3.6-6.6,16.9,16.9,0,0,0-5.8-4.7,17.8,17.8,0,0,0-8-1.7h-.4a23.4,23.4,0,0,0-10.5,2.7,31.5,31.5,0,0,0-8.7,6.9,46.9,46.9,0,0,0-6.8,9.9,53.7,53.7,0,0,0-4.6,11.7,74.9,74.9,0,0,0-2.2,12.4,51,51,0,0,0,.4,11.8,46.8,46.8,0,0,0,1.1,4.7c-.8-1.2-1.5-2.4-2.2-3.7l-5.6-9.1-5.5-8.8a26.3,26.3,0,0,0,6.2-4.9,30.8,30.8,0,0,0,4.7-6.5,27,27,0,0,0,2.8-7.5,23.8,23.8,0,0,0,.2-8,18.7,18.7,0,0,0-1.5-4.9,12.1,12.1,0,0,0-2.8-3.9,12.4,12.4,0,0,0-4.7-2.5,19.3,19.3,0,0,0-6.3-.8Zm-10.9,30.5.8-16.2h7.8a13.6,13.6,0,0,1,3,.4,4.5,4.5,0,0,1,2.2,1,2.8,2.8,0,0,1,1.1,1.7,5.8,5.8,0,0,1-1.3,3.8,25.6,25.6,0,0,1-3.9,4.2,28.9,28.9,0,0,1-5.1,3.5,11.4,11.4,0,0,1-4.6,1.7Zm47.3,29a5.7,5.7,0,0,1-2.5-.6,8,8,0,0,1-2.1-1.5,11.6,11.6,0,0,1-1.6-2.1,12.7,12.7,0,0,1-.8-2.3,46.7,46.7,0,0,1-.3-5.7,32.1,32.1,0,0,1,.7-6.8,40.4,40.4,0,0,1,1.9-6.8,23.3,23.3,0,0,1,3.1-6.1,15.7,15.7,0,0,1,4.6-4.3,12.5,12.5,0,0,1,6.2-1.8h.1a4.5,4.5,0,0,1,2.8.9,4.9,4.9,0,0,1,1.8,2,7.6,7.6,0,0,1,1.1,2.6,13.8,13.8,0,0,1,.6,2.6,31.9,31.9,0,0,1,.1,9.3,33.7,33.7,0,0,1-2.3,9.6,20.8,20.8,0,0,1-5.1,7.7,11.5,11.5,0,0,1-8.2,3.3Z"/>
          </g>
        </g>
      </g>
    </g>
  </g>
</svg>
