<svg xmlns="http://www.w3.org/2000/svg" viewBox="0 0 302.2 262.7">
  <defs>
    <style>
      .cls-1 {
        fill: #ccc;
      }

      .cls-2, .cls-5 {
        fill: none;
        stroke-width: 3px;
      }

      .cls-2 {
        stroke: #fff;
      }

      .cls-3 {
        fill: #b3b3b3;
      }

      .cls-4 {
        fill: #fff;
      }

      .cls-5 {
        stroke: #211915;
      }
    </style>
  </defs>
  <title>logRecurso 3</title>
  <g id="Capa_2" data-name="Capa 2">
    <g id="hero">
      <g>
        <g>
          <g>
            <g>
              <path d="M32.3,150.1a51,51,0,0,1-6,.4L66.5,30.8,69.4,1.7,24.2,7.8,22.1,40.9l2.7-.4c1.6-.6,3.7-1.1,6-1.7l6.9-1.6a25.6,25.6,0,0,1,5.3-.7L1.6,156v30.7a53.5,53.5,0,0,1,6.6-1.6c2.7-.6,5.7-1.1,9-1.6l9.9-1.4c3.4-.4,6.5-.8,9.4-1l7.6-.7,4.2-.2.3-32-8.6,1.1Z"/>
              <path d="M68.2,2.9,65.5,30.6,25.4,150.2l-.4,1.3h1.3a51.2,51.2,0,0,0,6.1-.4l7.6-.9,7.5-.9-.3,29.9-3.3.2-7.5.7c-3,.2-6.2.6-9.5,1l-10,1.4c-3.2.5-6.3,1-9,1.6a43.1,43.1,0,0,0-5.4,1.3V156.2L43.9,36.8l.5-1.3H43a26.4,26.4,0,0,0-5.5.7l-7,1.6-6,1.7-1.3.2,1.9-31L68.2,2.9m1.2-1.2L24.2,7.8,22.1,40.9l2.7-.4c1.6-.6,3.7-1.1,6-1.7l6.9-1.6a25.6,25.6,0,0,1,5.3-.7L1.6,156v30.7a53.5,53.5,0,0,1,6.6-1.6c2.7-.6,5.7-1.1,9-1.6l9.9-1.4c3.4-.4,6.5-.8,9.4-1l7.6-.7,4.2-.2.3-32-8.6,1.1-7.6.8a51,51,0,0,1-6,.4L66.5,30.8,69.4,1.7Z"/>
            </g>
            <g>
              <path d="M88.7,13.5,73.4,15.9c-.8,6-1.9,12.5-3.1,19.7s-2.4,14.7-3.7,22.5-2.5,15.6-3.8,23.4-2.5,15.4-3.7,22.6c-2.9,17.1-5.8,34.6-8.7,52.3l6.9-1.6,6.2-1.3,5.7-1.3,4.5-28.8h9.6c-.2,2.7-.4,5.9-.5,9.6l-.6,11.2c-.3,4.2-.6,8.6-.9,13l-2,26.5,5.9-1.8,6.1-1.8a52.8,52.8,0,0,0,6.6-1.6l1.4-26.6c.4-20.7,1.5-40,1.8-58.4.3-7.9.5-15.8.7-24s.5-15.8.7-23.3.4-14.3.7-20.7.5-11.6.7-15.8A125.1,125.1,0,0,1,88.7,13.5Zm-2,39.9c-.5,7.8-.8,15.2-1.1,21.9-.2,2.8-.3,5.7-.5,8.6s-.2,5.6-.3,8.1-.3,4.7-.4,6.6-.1,3.3-.1,4.1l-1.6.3-2.4.2-2.4.2H76.3l6.9-50.1,2.5-17.2,1.6-.2Z"/>
              <path d="M102.8,11.1q-.3,6-.6,14.4c-.3,6.2-.5,13.2-.7,20.7s-.5,15.2-.7,23.3-.4,16.1-.7,24-.5,18.2-.9,28-.7,19.9-.9,30.3L97,177.7a42,42,0,0,1-5.9,1.4H91l-6.1,1.8-4.5,1.4,1.9-25.1.9-13q.3-5.4.6-11.1c.1-3.8.3-7,.5-9.6v-1.1H72.8v.9l-4.3,28.1-5.1,1.1-6,1.2h-.2L51.6,155c2.9-17.1,5.7-34.1,8.5-50.8C61,98.5,62,92.5,63,86.3l.8-4.6c1.3-7.9,2.5-15.7,3.8-23.5S70.2,43,71.3,35.8s2.2-13.3,3-19l14.6-2.3a128.1,128.1,0,0,0,13.9-3.4M75.2,104.5H78l2.3-.2h.1l2.4-.2a6.1,6.1,0,0,0,1.9-.4l.6-.3v-.6c0-.8,0-2.2.1-4.1s.2-4.2.4-6.6.2-5.1.3-8,.3-5.8.5-8.6c.3-6.7.6-14.1,1.1-22l.6-17.3V34.9H87.2l-1.6.2h-.8v.8L82.2,53.3l-6.9,50v1.2M103.9,9.7a125.1,125.1,0,0,1-15.2,3.8L73.4,15.9c-.8,6-1.9,12.5-3.1,19.7s-2.4,14.7-3.7,22.5-2.5,15.6-3.8,23.4-2.5,15.4-3.7,22.6c-2.9,17.1-5.8,34.6-8.7,52.3l6.9-1.6,6.2-1.3,5.7-1.3,4.5-28.8h9.6c-.2,2.7-.4,5.9-.5,9.6l-.6,11.2c-.3,4.2-.6,8.6-.9,13l-2,26.5,5.9-1.8,6.1-1.8a52.8,52.8,0,0,0,6.6-1.6l1.4-26.6c.4-20.7,1.5-40,1.8-58.4.3-7.9.5-15.8.7-24s.5-15.8.7-23.3.4-14.3.7-20.7.5-11.6.7-15.8ZM76.3,103.5l6.9-50.1,2.5-17.2,1.6-.2-.6,17.4c-.5,7.8-.8,15.2-1.1,21.9-.2,2.8-.3,5.7-.5,8.6s-.2,5.6-.3,8.1-.3,4.7-.4,6.6-.1,3.3-.1,4.1l-1.6.3-2.4.2-2.4.2Z"/>
            </g>
            <g>
              <path d="M164.3,5.9,150.8,9.2c-1.1,10-2.1,19.7-3.2,29.1l-1.2,12.8c-.4,4.2-.9,8.5-1.3,12.7s-.6,8.3-1.2,12.1-1.4,18.9-1.6,21.8c-.7-6.1-.8-25.2-1.6-33.9s-1.7-17.2-2.5-25.5-1.7-19.2-2.8-29.4l-4.7.5-4.4.3h-6.1l-2.4-.2c-.3,6.5-.7,13.8-1.3,21.9s-1.3,16.4-2,25.2-1.5,17.7-2.3,26.7-1.7,17.7-2.4,26.1q-3,29.4-6.3,60.7l16.1-7.4c1.1-10.6,2.1-20.7,3.1-30.4.4-4.1.8-8.3,1.2-12.8s.7-8.6,1.1-12.7.7-7.9,1.1-11.5.6-6.9.9-9.6a3.4,3.4,0,0,0,.1,1c.5,3.7,1.1,7.3,1.3,11v1c.2,2.2.3,4.5.5,6.8l.6,9.8.5,8.7c.3,3.7.1,7.4.3,11.1.5,10.4.9,33.9,1.4,45.5a25.3,25.3,0,0,1,4.3-2.4l5.9-2.6,5.1-2.3a11.8,11.8,0,0,1,2.6-1c.3-4.6.7-22.8,1.2-29.7s1.2-14.4,1.9-22.4,1.5-16.5,2.4-25.3,1.7-17.4,2.6-26Q160.6,39.2,164.3,5.9Z"/>
              <path d="M163.1,7.2c-2.4,21.5-4.6,42.3-6.4,61.7-.9,8.6-1.8,17.4-2.6,26s-1.7,17.4-2.4,25.3-1.4,15.6-1.9,22.4c-.3,4.1-.5,12-.8,19-.1,4.2-.2,8-.3,10l-2.1.9-5.1,2.3-1.8.7-4.1,1.9-3,1.5c-.1-4.7-.3-10.9-.5-17.4-.3-10-.6-20.3-.8-26.4-.1-1.7-.1-3.4-.1-5.1s0-3.9-.2-5.9l-.2-4.4-.3-4.4-.3-5-.3-4.8-.2-3-.3-3.8v-1c-.2-2.7-.6-5.5-.9-8.2a27,27,0,0,1-.4-2.8c-.1-.4-.1-.7-.2-1H126q-.4,4.2-.9,9.6c-.4,3.5-.8,7.4-1.1,11.5s-.8,8.4-1.1,12.7-.8,8.8-1.2,12.8c-1,9.8-2,19.8-3.1,29.9l-13.9,6.4c2.1-20,4.1-39.8,6.1-59,.7-8.4,1.5-17.2,2.3-26.1s1.7-18.1,2.4-26.7,1.4-17.3,2-25.3,1-14.6,1.3-20.8h7.5l4.5-.3,3.7-.4c1,9.8,1.9,19.3,2.7,28.4s1.6,16.8,2.5,25.5c.4,4.5.6,11.8.9,18.8s.3,12.1.7,15.1l1,9.5.9-9.5c.2-1.1.3-3.5.5-6.6.3-5.2.8-12.5,1.2-15.2s.6-4.9.8-7.6.2-3,.4-4.5c.4-4.1.9-8.4,1.3-12.7l1.2-12.8c1-9.2,2.1-18.7,3.1-28.4l11.4-2.8m1.2-1.3L150.8,9.2c-1.1,10-2.1,19.7-3.2,29.1l-1.2,12.8c-.4,4.2-.9,8.5-1.3,12.7s-.6,8.3-1.2,12.1-1.4,18.9-1.6,21.8c-.7-6.1-.8-25.2-1.6-33.9s-1.7-17.2-2.5-25.5-1.7-19.2-2.8-29.4l-4.7.5-4.4.3h-6.1l-2.4-.2c-.3,6.5-.7,13.8-1.3,21.9s-1.3,16.4-2,25.2-1.5,17.7-2.3,26.7-1.7,17.7-2.4,26.1q-3,29.4-6.3,60.7l16.1-7.4c1.1-10.6,2.1-20.7,3.1-30.4.4-4.1.8-8.3,1.2-12.8s.7-8.6,1.1-12.7.7-7.9,1.1-11.5.6-6.9.9-9.6a3.4,3.4,0,0,0,.1,1c.5,3.7,1.1,7.3,1.3,11v1c.2,2.2.3,4.5.5,6.8l.6,9.8c.2,2.9.4,5.8.5,8.7s.1,7.4.3,11.1c.5,10.4.9,33.9,1.4,45.5a25.3,25.3,0,0,1,4.3-2.4l5.9-2.6,5.1-2.3a11.8,11.8,0,0,1,2.6-1c.3-4.6.7-22.8,1.2-29.7s1.2-14.4,1.9-22.4,1.5-16.5,2.4-25.3,1.7-17.4,2.6-26q2.9-29.8,6.6-63.1Z"/>
            </g>
            <g>
              <path d="M232.7,64.4l-6.4.6,1.9-26.9H239l4.4-.2a18.2,18.2,0,0,0,3.1-.4c.2-2.3.5-4.9.9-7.9s.6-5.8,1-8.6.8-6.6,1.3-9.8L214.8,17l-3.3,35.6a138.9,138.9,0,0,0-1.2-18.7,74.3,74.3,0,0,0-3.8-16.2,29.8,29.8,0,0,0-6.7-10.9,14.4,14.4,0,0,0-10.1-3.9,31.2,31.2,0,0,0-10,1.6L170.1,8c-.4,6.6-1,14-1.7,22.2s-1.4,16.7-2.1,25.7-1.5,26.8-2.4,35.9-1.5,18-2.3,26.5q-2.8,30.3-5.8,62.2l3.1.8a10.6,10.6,0,0,0,3.1.4c4.9,0,9.5-1.9,13.9-5.6A58.7,58.7,0,0,0,188,161.4a113.1,113.1,0,0,0,9.9-21.2c2.9-8.1,5.3-25.4,7.3-34.3.9-4,1.7-8.1,2.5-12.1l-7.3,77.9L236,160.8l1.1-24.8L221,141l3.8-52,6.3-.5,5-.3,3.6-.3c.3-4.1.7-8.1.9-12s.6-7.9.8-11.9l-3.7.2A41,41,0,0,0,232.7,64.4ZM194.1,67c-.4,5.1-1.1,19.3-2,25.2s-1.9,11.8-3.1,18-2.6,12-4.1,17.6a142.5,142.5,0,0,1-4.7,14.7,41.9,41.9,0,0,1-5.1,10c.8-10.9,1.7-21,2.5-30.3s1.8-18.1,2.7-26.6,1.8-25.6,2.6-34,1.8-17,2.6-26.1c3.2,0,5.6,1.6,7.1,4.9s2.3,7.7,2.3,13.4C194.9,57.5,194.6,61.9,194.1,67Z"/>
              <path d="M189.7,3.9a13,13,0,0,1,9.4,3.7A28.5,28.5,0,0,1,205.6,18a75.4,75.4,0,0,1,3.7,16,136.3,136.3,0,0,1,1.2,18.6h2l3.3-34.8,32.7-5.6c-.4,2.8-.8,5.6-1.1,8.5s-.7,5.6-1,8.6-.6,5-.8,7.2l-2.3.2L239,37H227.3V38l-1.9,27v1.2l1.2-.2,6.4-.6a40.2,40.2,0,0,1,4.9-.2h2.7c-.3,3.6-.5,7.2-.8,10.8s-.5,7.4-.8,11.1l-2.8.2-5,.3-6.3.5h-.9v.9l-3.8,52v1.5l1.4-.4,14.8-4.6-1,22.7-33.6,10.2,7.2-76.4-2-.3c-.8,4.3-1.6,8.2-2.4,12.1s-1.4,7-2.2,11.1c-1.5,8.3-3.2,17.7-5.1,23a122.1,122.1,0,0,1-9.8,21.1,57,57,0,0,1-11.9,14.5c-4.2,3.5-8.7,5.3-13.3,5.3a13.6,13.6,0,0,1-2.9-.3l-2.3-.6c2.1-22.5,4-42.6,5.8-61.4.8-8.5,1.5-17.3,2.3-26.5.5-4.9.9-12.2,1.3-19.3s.7-12.5,1.1-16.7c.7-9,1.4-17.7,2.1-25.6s1.3-15.2,1.7-21.6L180,5.5a29.5,29.5,0,0,1,9.7-1.6M173.8,156l2.1-2.9a48.7,48.7,0,0,0,5.3-10.3c1.6-4.2,3.2-9.2,4.7-14.7s2.8-11.5,4-17.7,2.3-12.3,3.2-18.1c.6-3.8,1.1-11.3,1.5-17.4.2-3.2.4-6.1.5-7.8.5-5.1.8-9.6.8-13.3,0-5.8-.8-10.5-2.4-13.9s-4.4-5.4-8-5.4h-.9v.9c-.8,9.1-1.7,17.9-2.6,26.1-.4,4.3-.9,10.8-1.3,17.2s-.9,12.6-1.3,16.8c-.9,8.5-1.8,17.4-2.7,26.6s-1.7,19.6-2.5,30.4l-.3,3.5M189.7,2.9a31.2,31.2,0,0,0-10,1.6L170.1,8c-.4,6.6-1,14-1.7,22.2s-1.4,16.7-2.1,25.7-1.5,26.8-2.4,35.9-1.5,18-2.3,26.5q-2.8,30.3-5.8,62.2l3.1.8a10.6,10.6,0,0,0,3.1.4c4.9,0,9.5-1.9,13.9-5.6A58.7,58.7,0,0,0,188,161.4a113.1,113.1,0,0,0,9.9-21.2c2.9-8.1,5.3-25.4,7.3-34.3.9-4,1.7-8.1,2.5-12.1l-7.3,77.9L236,160.8l1.1-24.8L221,141l3.8-52,6.3-.5,5-.3,3.6-.3c.3-4.1.7-8.1.9-12s.6-7.9.8-11.9l-3.7.2a41,41,0,0,0-5,.2l-6.4.6,1.9-26.9H239l4.4-.2a18.2,18.2,0,0,0,3.1-.4c.2-2.3.5-4.9.9-7.9s.6-5.8,1-8.6.8-6.6,1.3-9.8L214.8,17l-3.3,35.6a138.9,138.9,0,0,0-1.2-18.7,74.3,74.3,0,0,0-3.8-16.2,29.8,29.8,0,0,0-6.7-10.9,14.4,14.4,0,0,0-10.1-3.9ZM175.1,152.5c.8-10.9,1.7-21,2.5-30.3s1.8-18.1,2.7-26.6,1.8-25.6,2.6-34,1.8-17,2.6-26.1c3.2,0,5.6,1.6,7.1,4.9s2.3,7.7,2.3,13.4c0,3.7-.3,8.1-.8,13.2s-1.1,19.3-2,25.2-1.9,11.8-3.1,18-2.6,12-4.1,17.6a142.5,142.5,0,0,1-4.7,14.7,41.9,41.9,0,0,1-5.1,10Z"/>
            </g>
            <g>
              <path d="M298.6,21.6a39.2,39.2,0,0,0-2.3-9.4,14.1,14.1,0,0,0-4.4-6.3,11,11,0,0,0-7.1-2.2,52.4,52.4,0,0,0-14.5,2.1,44.8,44.8,0,0,0-13.6,6.5c-.3,7.2-.8,15.2-1.4,24s-1.3,17.8-2,27.3-1.5,18.9-2.3,28.5-1.5,18.8-2.2,27.7c-1.8,20.8-3.8,42.1-5.7,63.9l17.8-10.3c.7-7.9,1.4-15.7,2-23.4s1.1-13.4,1.7-20.4,1.2-13.2,1.6-18.5l1.5-.9c0,1.8.2,4.1.5,7s.7,6.1,1.1,9.7,1,7.4,1.5,11.4l1.5,11.7c1.2,9.2,2.5,19,4,29.5l17.1-13.3c-1.5-8.2-3.1-16.4-4.5-24.6s-2.8-14.4-4.3-22.2-2.9-15-4.2-21.5a53,53,0,0,0,7.2-11.5,119.5,119.5,0,0,0,6-15.5A134.1,134.1,0,0,0,297.7,53a123.6,123.6,0,0,0,1.5-19.3A111.2,111.2,0,0,0,298.6,21.6ZM284.7,54.8a61.3,61.3,0,0,1-4.8,10,44,44,0,0,1-5.8,8.2c-2,2.3-3.7,3.6-5.1,4l3.5-39.1,2.3-.2h2.5a18.7,18.7,0,0,1,3.4.3,6.4,6.4,0,0,1,3,1.1,5.1,5.1,0,0,1,2.2,2.4,10.3,10.3,0,0,1,.8,4.3A25.9,25.9,0,0,1,284.7,54.8Z"/>
              <path d="M284.8,4.7a10.5,10.5,0,0,1,6.5,2,13.5,13.5,0,0,1,4.1,5.8,39.7,39.7,0,0,1,2.2,9.3,106.1,106.1,0,0,1,.6,11.9,120.1,120.1,0,0,1-1.5,19.1,129.1,129.1,0,0,1-4.1,17.8A110,110,0,0,1,286.7,86a50.3,50.3,0,0,1-7.1,11.2l-.3.4v.5c1.3,6.4,2.7,13.4,4.2,21.5s3,15.4,4.3,22.2,2.9,16,4.4,24L277,177.7c-1.3-9.8-2.6-19.1-3.7-27.8q-.7-5.6-1.5-11.7l-1.5-11.4c-.4-3.8-.8-6.9-1.1-9.7s-.5-5.2-.5-7v-1.8l-1.5,1-1.4,1-.4.3v.5c-.4,4.8-.9,10.7-1.6,18.4s-1.2,14-1.7,20.4-1.3,15.2-1.9,22.9l-15.8,9.1c2-21.2,3.8-42.1,5.6-62.1.7-9,1.4-18.3,2.2-27.6s1.6-19.2,2.3-28.6,1.3-18.5,2-27.3,1.1-16.4,1.4-23.5a47.7,47.7,0,0,1,12.9-6.1,54.1,54.1,0,0,1,14.2-2M267.9,78.3l1.3-.4q2.4-.5,5.7-4.2a58.6,58.6,0,0,0,5.9-8.4,62.3,62.3,0,0,0,4.8-10.1,26,26,0,0,0,2.1-9.5,10.6,10.6,0,0,0-.9-4.7,7.1,7.1,0,0,0-2.5-2.9,10.4,10.4,0,0,0-3.5-1.2,19.8,19.8,0,0,0-3.5-.3h-2.6l-2.2.2h-.9v.9L268,76.9v1.4M284.8,3.7a52.4,52.4,0,0,0-14.5,2.1,44.8,44.8,0,0,0-13.6,6.5c-.3,7.2-.8,15.2-1.4,24s-1.3,17.8-2,27.3-1.5,18.9-2.3,28.5-1.5,18.8-2.2,27.7c-1.8,20.8-3.8,42.1-5.7,63.9l17.8-10.3c.7-7.9,1.4-15.7,2-23.4s1.1-13.4,1.7-20.4,1.2-13.2,1.6-18.5l1.5-.9c0,1.8.2,4.1.5,7s.7,6.1,1.1,9.7,1,7.4,1.5,11.4l1.5,11.7c1.2,9.2,2.5,19,4,29.5l17.1-13.3c-1.5-8.2-3.1-16.4-4.5-24.6s-2.8-14.4-4.3-22.2-2.9-15-4.2-21.5a53,53,0,0,0,7.2-11.5,119.5,119.5,0,0,0,6-15.5A134.1,134.1,0,0,0,297.7,53a123.6,123.6,0,0,0,1.5-19.3,111.2,111.2,0,0,0-.6-12.1,39.2,39.2,0,0,0-2.3-9.4,14.1,14.1,0,0,0-4.4-6.3,11,11,0,0,0-7.1-2.2ZM269,77l3.5-39.1,2.3-.2h2.5a18.7,18.7,0,0,1,3.4.3,6.4,6.4,0,0,1,3,1.1,5.1,5.1,0,0,1,2.2,2.4,10.3,10.3,0,0,1,.8,4.3,25.9,25.9,0,0,1-2,9.1,61.3,61.3,0,0,1-4.8,10,44,44,0,0,1-5.8,8.2c-2,2.3-3.7,3.6-5.1,4Z"/>
            </g>
          </g>
          <g>
            <g>
              <path d="M35.3,153.1a51,51,0,0,1-6,.4L69.5,33.8,72.4,4.7,27.2,10.8,25.1,43.9l2.7-.4c1.6-.6,3.7-1.1,6-1.7l6.9-1.6a25.6,25.6,0,0,1,5.3-.7L4.6,159v30.7a53.5,53.5,0,0,1,6.6-1.6c2.7-.6,5.7-1.1,9-1.6l9.9-1.4c3.4-.4,6.5-.8,9.4-1l7.6-.7,4.2-.2.3-32-8.6,1.1Z"/>
              <path d="M91.7,16.5,76.4,18.9c-.8,6-1.9,12.5-3.1,19.7s-2.4,14.7-3.7,22.5-2.5,15.6-3.8,23.4-2.5,15.4-3.7,22.6c-2.9,17.1-5.8,34.6-8.7,52.3l6.9-1.6,6.2-1.3,5.7-1.3,4.5-28.8h9.6c-.2,2.7-.4,5.9-.5,9.6l-.6,11.2c-.3,4.2-.6,8.6-.9,13l-2,26.5,5.9-1.8,6.1-1.8a52.8,52.8,0,0,0,6.6-1.6l1.4-26.6c.4-20.7,1.5-40,1.8-58.4.3-7.9.5-15.8.7-24s.5-15.8.7-23.3.4-14.3.7-20.7.5-11.6.7-15.8A125.1,125.1,0,0,1,91.7,16.5Zm-2,39.9c-.5,7.8-.8,15.2-1.1,21.9-.2,2.8-.3,5.7-.5,8.6s-.2,5.6-.3,8.1-.3,4.7-.4,6.6-.1,3.3-.1,4.1l-1.6.3-2.4.2-2.4.2H79.3l6.9-50.1,2.5-17.2,1.6-.2Z"/>
              <path d="M167.3,8.9l-13.5,3.3c-1.1,10-2.1,19.7-3.2,29.1l-1.2,12.8c-.4,4.2-.9,8.5-1.3,12.7s-.6,8.3-1.2,12.1-1.4,18.9-1.6,21.8c-.7-6.1-.8-25.2-1.6-33.9s-1.7-17.2-2.5-25.5-1.7-19.2-2.8-29.4l-4.7.5-4.4.3h-6.1l-2.4-.2c-.3,6.5-.7,13.8-1.3,21.9s-1.3,16.4-2,25.2-1.5,17.7-2.3,26.7-1.7,17.7-2.4,26.1q-3,29.4-6.3,60.7l16.1-7.4c1.1-10.6,2.1-20.7,3.1-30.4.4-4.1.8-8.3,1.2-12.8s.7-8.6,1.1-12.7.7-7.9,1.1-11.5.6-6.9.9-9.6a3.4,3.4,0,0,0,.1,1c.5,3.7,1.1,7.3,1.3,11v1c.2,2.2.3,4.5.5,6.8l.6,9.8.5,8.7c.3,3.7.1,7.4.3,11.1.5,10.4.9,33.9,1.4,45.5a25.3,25.3,0,0,1,4.3-2.4l5.9-2.6,5.1-2.3a11.8,11.8,0,0,1,2.6-1c.3-4.6.7-22.8,1.2-29.7s1.2-14.4,1.9-22.4,1.5-16.5,2.4-25.3,1.7-17.4,2.6-26Q163.6,42.2,167.3,8.9Z"/>
              <path d="M235.7,67.4l-6.4.6,1.9-26.9H242l4.4-.2a18.2,18.2,0,0,0,3.1-.4c.2-2.3.5-4.9.9-7.9s.6-5.8,1-8.6.8-6.6,1.3-9.8L217.8,20l-3.3,35.6a138.9,138.9,0,0,0-1.2-18.7,74.3,74.3,0,0,0-3.8-16.2,29.8,29.8,0,0,0-6.7-10.9,14.4,14.4,0,0,0-10.1-3.9,31.2,31.2,0,0,0-10,1.6L173.1,11c-.4,6.6-1,14-1.7,22.2s-1.4,16.7-2.1,25.7-1.5,26.8-2.4,35.9-1.5,18-2.3,26.5q-2.8,30.3-5.8,62.2l3.1.8a10.6,10.6,0,0,0,3.1.4c4.9,0,9.5-1.9,13.9-5.6A58.7,58.7,0,0,0,191,164.4a113.1,113.1,0,0,0,9.9-21.2c2.9-8.1,5.3-25.4,7.3-34.3.9-4,1.7-8.1,2.5-12.1l-7.3,77.9L239,163.8l1.1-24.8L224,144l3.8-52,6.3-.5,5-.3,3.6-.3c.3-4.1.7-8.1.9-12s.6-7.9.8-11.9l-3.7.2A41,41,0,0,0,235.7,67.4ZM197.1,70c-.4,5.1-1.1,19.3-2,25.2s-1.9,11.8-3.1,18-2.6,12-4.1,17.6a142.5,142.5,0,0,1-4.7,14.7,41.9,41.9,0,0,1-5.1,10c.8-10.9,1.7-21,2.5-30.3s1.8-18.1,2.7-26.6,1.8-25.6,2.6-34,1.8-17,2.6-26.1c3.2,0,5.6,1.6,7.1,4.9s2.3,7.7,2.3,13.4C197.9,60.5,197.6,64.9,197.1,70Z"/>
              <path d="M301.6,24.6a39.2,39.2,0,0,0-2.3-9.4,14.1,14.1,0,0,0-4.4-6.3,11,11,0,0,0-7.1-2.2,52.4,52.4,0,0,0-14.5,2.1,44.8,44.8,0,0,0-13.6,6.5c-.3,7.2-.8,15.2-1.4,24s-1.3,17.8-2,27.3-1.5,18.9-2.3,28.5-1.5,18.8-2.2,27.7c-1.8,20.8-3.8,42.1-5.7,63.9l17.8-10.3c.7-7.9,1.4-15.7,2-23.4s1.1-13.4,1.7-20.4,1.2-13.2,1.6-18.5l1.5-.9c0,1.8.2,4.1.5,7s.7,6.1,1.1,9.7,1,7.4,1.5,11.4l1.5,11.7c1.2,9.2,2.5,19,4,29.5l17.1-13.3c-1.5-8.2-3.1-16.4-4.5-24.6s-2.8-14.4-4.3-22.2-2.9-15-4.2-21.5a53,53,0,0,0,7.2-11.5,119.5,119.5,0,0,0,6-15.5A134.1,134.1,0,0,0,300.7,56a123.6,123.6,0,0,0,1.5-19.3A111.2,111.2,0,0,0,301.6,24.6ZM287.7,57.8a61.3,61.3,0,0,1-4.8,10,44,44,0,0,1-5.8,8.2c-2,2.3-3.7,3.6-5.1,4l3.5-39.1,2.3-.2h2.5a18.7,18.7,0,0,1,3.4.3,6.4,6.4,0,0,1,3,1.1,5.1,5.1,0,0,1,2.2,2.4,10.3,10.3,0,0,1,.8,4.3A25.9,25.9,0,0,1,287.7,57.8Z"/>
            </g>
            <g>
              <path d="M32.3,150.1a51,51,0,0,1-6,.4L66.5,30.8,69.4,1.7,24.2,7.8,22.1,40.9l2.7-.4c1.6-.6,3.7-1.1,6-1.7l6.9-1.6a25.6,25.6,0,0,1,5.3-.7L1.6,156v30.7a53.5,53.5,0,0,1,6.6-1.6c2.7-.6,5.7-1.1,9-1.6l9.9-1.4c3.4-.4,6.5-.8,9.4-1l7.6-.7,4.2-.2.3-32-8.6,1.1Z"/>
              <path d="M88.7,13.5,73.4,15.9c-.8,6-1.9,12.5-3.1,19.7s-2.4,14.7-3.7,22.5-2.5,15.6-3.8,23.4-2.5,15.4-3.7,22.6c-2.9,17.1-5.8,34.6-8.7,52.3l6.9-1.6,6.2-1.3,5.7-1.3,4.5-28.8h9.6c-.2,2.7-.4,5.9-.5,9.6l-.6,11.2c-.3,4.2-.6,8.6-.9,13l-2,26.5,5.9-1.8,6.1-1.8a52.8,52.8,0,0,0,6.6-1.6l1.4-26.6c.4-20.7,1.5-40,1.8-58.4.3-7.9.5-15.8.7-24s.5-15.8.7-23.3.4-14.3.7-20.7.5-11.6.7-15.8A125.1,125.1,0,0,1,88.7,13.5Zm-2,39.9c-.5,7.8-.8,15.2-1.1,21.9-.2,2.8-.3,5.7-.5,8.6s-.2,5.6-.3,8.1-.3,4.7-.4,6.6-.1,3.3-.1,4.1l-1.6.3-2.4.2-2.4.2H76.3l6.9-50.1,2.5-17.2,1.6-.2Z"/>
              <path d="M164.3,5.9,150.8,9.2c-1.1,10-2.1,19.7-3.2,29.1l-1.2,12.8c-.4,4.2-.9,8.5-1.3,12.7s-.6,8.3-1.2,12.1-1.4,18.9-1.6,21.8c-.7-6.1-.8-25.2-1.6-33.9s-1.7-17.2-2.5-25.5-1.7-19.2-2.8-29.4l-4.7.5-4.4.3h-6.1l-2.4-.2c-.3,6.5-.7,13.8-1.3,21.9s-1.3,16.4-2,25.2-1.5,17.7-2.3,26.7-1.7,17.7-2.4,26.1q-3,29.4-6.3,60.7l16.1-7.4c1.1-10.6,2.1-20.7,3.1-30.4.4-4.1.8-8.3,1.2-12.8s.7-8.6,1.1-12.7.7-7.9,1.1-11.5.6-6.9.9-9.6a3.4,3.4,0,0,0,.1,1c.5,3.7,1.1,7.3,1.3,11v1c.2,2.2.3,4.5.5,6.8l.6,9.8.5,8.7c.3,3.7.1,7.4.3,11.1.5,10.4.9,33.9,1.4,45.5a25.3,25.3,0,0,1,4.3-2.4l5.9-2.6,5.1-2.3a11.8,11.8,0,0,1,2.6-1c.3-4.6.7-22.8,1.2-29.7s1.2-14.4,1.9-22.4,1.5-16.5,2.4-25.3,1.7-17.4,2.6-26Q160.6,39.2,164.3,5.9Z"/>
              <path d="M232.7,64.4l-6.4.6,1.9-26.9H239l4.4-.2a18.2,18.2,0,0,0,3.1-.4c.2-2.3.5-4.9.9-7.9s.6-5.8,1-8.6.8-6.6,1.3-9.8L214.8,17l-3.3,35.6a138.9,138.9,0,0,0-1.2-18.7,74.3,74.3,0,0,0-3.8-16.2,29.8,29.8,0,0,0-6.7-10.9,14.4,14.4,0,0,0-10.1-3.9,31.2,31.2,0,0,0-10,1.6L170.1,8c-.4,6.6-1,14-1.7,22.2s-1.4,16.7-2.1,25.7-1.5,26.8-2.4,35.9-1.5,18-2.3,26.5q-2.8,30.3-5.8,62.2l3.1.8a10.6,10.6,0,0,0,3.1.4c4.9,0,9.5-1.9,13.9-5.6A58.7,58.7,0,0,0,188,161.4a113.1,113.1,0,0,0,9.9-21.2c2.9-8.1,5.3-25.4,7.3-34.3.9-4,1.7-8.1,2.5-12.1l-7.3,77.9L236,160.8l1.1-24.8L221,141l3.8-52,6.3-.5,5-.3,3.6-.3c.3-4.1.7-8.1.9-12s.6-7.9.8-11.9l-3.7.2A41,41,0,0,0,232.7,64.4ZM194.1,67c-.4,5.1-1.1,19.3-2,25.2s-1.9,11.8-3.1,18-2.6,12-4.1,17.6a142.5,142.5,0,0,1-4.7,14.7,41.9,41.9,0,0,1-5.1,10c.8-10.9,1.7-21,2.5-30.3s1.8-18.1,2.7-26.6,1.8-25.6,2.6-34,1.8-17,2.6-26.1c3.2,0,5.6,1.6,7.1,4.9s2.3,7.7,2.3,13.4C194.9,57.5,194.6,61.9,194.1,67Z"/>
              <path d="M298.6,21.6a39.2,39.2,0,0,0-2.3-9.4,14.1,14.1,0,0,0-4.4-6.3,11,11,0,0,0-7.1-2.2,52.4,52.4,0,0,0-14.5,2.1,44.8,44.8,0,0,0-13.6,6.5c-.3,7.2-.8,15.2-1.4,24s-1.3,17.8-2,27.3-1.5,18.9-2.3,28.5-1.5,18.8-2.2,27.7c-1.8,20.8-3.8,42.1-5.7,63.9l17.8-10.3c.7-7.9,1.4-15.7,2-23.4s1.1-13.4,1.7-20.4,1.2-13.2,1.6-18.5l1.5-.9c0,1.8.2,4.1.5,7s.7,6.1,1.1,9.7,1,7.4,1.5,11.4l1.5,11.7c1.2,9.2,2.5,19,4,29.5l17.1-13.3c-1.5-8.2-3.1-16.4-4.5-24.6s-2.8-14.4-4.3-22.2-2.9-15-4.2-21.5a53,53,0,0,0,7.2-11.5,119.5,119.5,0,0,0,6-15.5A134.1,134.1,0,0,0,297.7,53a123.6,123.6,0,0,0,1.5-19.3A111.2,111.2,0,0,0,298.6,21.6ZM284.7,54.8a61.3,61.3,0,0,1-4.8,10,44,44,0,0,1-5.8,8.2c-2,2.3-3.7,3.6-5.1,4l3.5-39.1,2.3-.2h2.5a18.7,18.7,0,0,1,3.4.3,6.4,6.4,0,0,1,3,1.1,5.1,5.1,0,0,1,2.2,2.4,10.3,10.3,0,0,1,.8,4.3A25.9,25.9,0,0,1,284.7,54.8Z"/>
            </g>
            <g>
              <path d="M32.3,150.1a51,51,0,0,1-6,.4L66.5,30.8,69.4,1.7,24.2,7.8,22.1,40.9l2.7-.4c1.6-.6,3.7-1.1,6-1.7l6.9-1.6a25.6,25.6,0,0,1,5.3-.7L1.6,156v30.7a53.5,53.5,0,0,1,6.6-1.6c2.7-.6,5.7-1.1,9-1.6l9.9-1.4c3.4-.4,6.5-.8,9.4-1l7.6-.7,4.2-.2.3-32-8.6,1.1Z"/>
              <path d="M88.7,13.5,73.4,15.9c-.8,6-1.9,12.5-3.1,19.7s-2.4,14.7-3.7,22.5-2.5,15.6-3.8,23.4-2.5,15.4-3.7,22.6c-2.9,17.1-5.8,34.6-8.7,52.3l6.9-1.6,6.2-1.3,5.7-1.3,4.5-28.8h9.6c-.2,2.7-.4,5.9-.5,9.6l-.6,11.2c-.3,4.2-.6,8.6-.9,13l-2,26.5,5.9-1.8,6.1-1.8a52.8,52.8,0,0,0,6.6-1.6l1.4-26.6c.4-20.7,1.5-40,1.8-58.4.3-7.9.5-15.8.7-24s.5-15.8.7-23.3.4-14.3.7-20.7.5-11.6.7-15.8A125.1,125.1,0,0,1,88.7,13.5Zm-2,39.9c-.5,7.8-.8,15.2-1.1,21.9-.2,2.8-.3,5.7-.5,8.6s-.2,5.6-.3,8.1-.3,4.7-.4,6.6-.1,3.3-.1,4.1l-1.6.3-2.4.2-2.4.2H76.3l6.9-50.1,2.5-17.2,1.6-.2Z"/>
              <path d="M164.3,5.9,150.8,9.2c-1.1,10-2.1,19.7-3.2,29.1l-1.2,12.8c-.4,4.2-.9,8.5-1.3,12.7s-.6,8.3-1.2,12.1-1.4,18.9-1.6,21.8c-.7-6.1-.8-25.2-1.6-33.9s-1.7-17.2-2.5-25.5-1.7-19.2-2.8-29.4l-4.7.5-4.4.3h-6.1l-2.4-.2c-.3,6.5-.7,13.8-1.3,21.9s-1.3,16.4-2,25.2-1.5,17.7-2.3,26.7-1.7,17.7-2.4,26.1q-3,29.4-6.3,60.7l16.1-7.4c1.1-10.6,2.1-20.7,3.1-30.4.4-4.1.8-8.3,1.2-12.8s.7-8.6,1.1-12.7.7-7.9,1.1-11.5.6-6.9.9-9.6a3.4,3.4,0,0,0,.1,1c.5,3.7,1.1,7.3,1.3,11v1c.2,2.2.3,4.5.5,6.8l.6,9.8.5,8.7c.3,3.7.1,7.4.3,11.1.5,10.4.9,33.9,1.4,45.5a25.3,25.3,0,0,1,4.3-2.4l5.9-2.6,5.1-2.3a11.8,11.8,0,0,1,2.6-1c.3-4.6.7-22.8,1.2-29.7s1.2-14.4,1.9-22.4,1.5-16.5,2.4-25.3,1.7-17.4,2.6-26Q160.6,39.2,164.3,5.9Z"/>
              <path d="M232.7,64.4l-6.4.6,1.9-26.9H239l4.4-.2a18.2,18.2,0,0,0,3.1-.4c.2-2.3.5-4.9.9-7.9s.6-5.8,1-8.6.8-6.6,1.3-9.8L214.8,17l-3.3,35.6a138.9,138.9,0,0,0-1.2-18.7,74.3,74.3,0,0,0-3.8-16.2,29.8,29.8,0,0,0-6.7-10.9,14.4,14.4,0,0,0-10.1-3.9,31.2,31.2,0,0,0-10,1.6L170.1,8c-.4,6.6-1,14-1.7,22.2s-1.4,16.7-2.1,25.7-1.5,26.8-2.4,35.9-1.5,18-2.3,26.5q-2.8,30.3-5.8,62.2l3.1.8a10.6,10.6,0,0,0,3.1.4c4.9,0,9.5-1.9,13.9-5.6A58.7,58.7,0,0,0,188,161.4a113.1,113.1,0,0,0,9.9-21.2c2.9-8.1,5.3-25.4,7.3-34.3.9-4,1.7-8.1,2.5-12.1l-7.3,77.9L236,160.8l1.1-24.8L221,141l3.8-52,6.3-.5,5-.3,3.6-.3c.3-4.1.7-8.1.9-12s.6-7.9.8-11.9l-3.7.2A41,41,0,0,0,232.7,64.4ZM194.1,67c-.4,5.1-1.1,19.3-2,25.2s-1.9,11.8-3.1,18-2.6,12-4.1,17.6a142.5,142.5,0,0,1-4.7,14.7,41.9,41.9,0,0,1-5.1,10c.8-10.9,1.7-21,2.5-30.3s1.8-18.1,2.7-26.6,1.8-25.6,2.6-34,1.8-17,2.6-26.1c3.2,0,5.6,1.6,7.1,4.9s2.3,7.7,2.3,13.4C194.9,57.5,194.6,61.9,194.1,67Z"/>
              <path d="M298.6,21.6a39.2,39.2,0,0,0-2.3-9.4,14.1,14.1,0,0,0-4.4-6.3,11,11,0,0,0-7.1-2.2,52.4,52.4,0,0,0-14.5,2.1,44.8,44.8,0,0,0-13.6,6.5c-.3,7.2-.8,15.2-1.4,24s-1.3,17.8-2,27.3-1.5,18.9-2.3,28.5-1.5,18.8-2.2,27.7c-1.8,20.8-3.8,42.1-5.7,63.9l17.8-10.3c.7-7.9,1.4-15.7,2-23.4s1.1-13.4,1.7-20.4,1.2-13.2,1.6-18.5l1.5-.9c0,1.8.2,4.1.5,7s.7,6.1,1.1,9.7,1,7.4,1.5,11.4l1.5,11.7c1.2,9.2,2.5,19,4,29.5l17.1-13.3c-1.5-8.2-3.1-16.4-4.5-24.6s-2.8-14.4-4.3-22.2-2.9-15-4.2-21.5a53,53,0,0,0,7.2-11.5,119.5,119.5,0,0,0,6-15.5A134.1,134.1,0,0,0,297.7,53a123.6,123.6,0,0,0,1.5-19.3A111.2,111.2,0,0,0,298.6,21.6ZM284.7,54.8a61.3,61.3,0,0,1-4.8,10,44,44,0,0,1-5.8,8.2c-2,2.3-3.7,3.6-5.1,4l3.5-39.1,2.3-.2h2.5a18.7,18.7,0,0,1,3.4.3,6.4,6.4,0,0,1,3,1.1,5.1,5.1,0,0,1,2.2,2.4,10.3,10.3,0,0,1,.8,4.3A25.9,25.9,0,0,1,284.7,54.8Z"/>
            </g>
          </g>
          <g>
            <g>
              <path class="cls-1" d="M35.3,153.1a51,51,0,0,1-6,.4L69.5,33.8,72.4,4.7,27.2,10.8,25.1,43.9l2.7-.4c1.6-.6,3.7-1.1,6-1.7l6.9-1.6a25.6,25.6,0,0,1,5.3-.7L4.6,159v30.7a53.5,53.5,0,0,1,6.6-1.6c2.7-.6,5.7-1.1,9-1.6l9.9-1.4c3.4-.4,6.5-.8,9.4-1l7.6-.7,4.2-.2.3-32-8.6,1.1Z"/>
              <path class="cls-1" d="M91.7,16.5,76.4,18.9c-.8,6-1.9,12.5-3.1,19.7s-2.4,14.7-3.7,22.5-2.5,15.6-3.8,23.4-2.5,15.4-3.7,22.6c-2.9,17.1-5.8,34.6-8.7,52.3l6.9-1.6,6.2-1.3,5.7-1.3,4.5-28.8h9.6c-.2,2.7-.4,5.9-.5,9.6l-.6,11.2c-.3,4.2-.6,8.6-.9,13l-2,26.5,5.9-1.8,6.1-1.8a52.8,52.8,0,0,0,6.6-1.6l1.4-26.6c.4-20.7,1.5-40,1.8-58.4.3-7.9.5-15.8.7-24s.5-15.8.7-23.3.4-14.3.7-20.7.5-11.6.7-15.8A125.1,125.1,0,0,1,91.7,16.5Zm-2,39.9c-.5,7.8-.8,15.2-1.1,21.9-.2,2.8-.3,5.7-.5,8.6s-.2,5.6-.3,8.1-.3,4.7-.4,6.6-.1,3.3-.1,4.1l-1.6.3-2.4.2-2.4.2H79.3l6.9-50.1,2.5-17.2,1.6-.2Z"/>
              <path class="cls-1" d="M167.3,8.9l-13.5,3.3c-1.1,10-2.1,19.7-3.2,29.1l-1.2,12.8c-.4,4.2-.9,8.5-1.3,12.7s-.6,8.3-1.2,12.1-1.4,18.9-1.6,21.8c-.7-6.1-.8-25.2-1.6-33.9s-1.7-17.2-2.5-25.5-1.7-19.2-2.8-29.4l-4.7.5-4.4.3h-6.1l-2.4-.2c-.3,6.5-.7,13.8-1.3,21.9s-1.3,16.4-2,25.2-1.5,17.7-2.3,26.7-1.7,17.7-2.4,26.1q-3,29.4-6.3,60.7l16.1-7.4c1.1-10.6,2.1-20.7,3.1-30.4.4-4.1.8-8.3,1.2-12.8s.7-8.6,1.1-12.7.7-7.9,1.1-11.5.6-6.9.9-9.6a3.4,3.4,0,0,0,.1,1c.5,3.7,1.1,7.3,1.3,11v1c.2,2.2.3,4.5.5,6.8l.6,9.8.5,8.7c.3,3.7.1,7.4.3,11.1.5,10.4.9,33.9,1.4,45.5a25.3,25.3,0,0,1,4.3-2.4l5.9-2.6,5.1-2.3a11.8,11.8,0,0,1,2.6-1c.3-4.6.7-22.8,1.2-29.7s1.2-14.4,1.9-22.4,1.5-16.5,2.4-25.3,1.7-17.4,2.6-26Q163.6,42.2,167.3,8.9Z"/>
              <path class="cls-1" d="M235.7,67.4l-6.4.6,1.9-26.9H242l4.4-.2a18.2,18.2,0,0,0,3.1-.4c.2-2.3.5-4.9.9-7.9s.6-5.8,1-8.6.8-6.6,1.3-9.8L217.8,20l-3.3,35.6a138.9,138.9,0,0,0-1.2-18.7,74.3,74.3,0,0,0-3.8-16.2,29.8,29.8,0,0,0-6.7-10.9,14.4,14.4,0,0,0-10.1-3.9,31.2,31.2,0,0,0-10,1.6L173.1,11c-.4,6.6-1,14-1.7,22.2s-1.4,16.7-2.1,25.7-1.5,26.8-2.4,35.9-1.5,18-2.3,26.5q-2.8,30.3-5.8,62.2l3.1.8a10.6,10.6,0,0,0,3.1.4c4.9,0,9.5-1.9,13.9-5.6A58.7,58.7,0,0,0,191,164.4a113.1,113.1,0,0,0,9.9-21.2c2.9-8.1,5.3-25.4,7.3-34.3.9-4,1.7-8.1,2.5-12.1l-7.3,77.9L239,163.8l1.1-24.8L224,144l3.8-52,6.3-.5,5-.3,3.6-.3c.3-4.1.7-8.1.9-12s.6-7.9.8-11.9l-3.7.2A41,41,0,0,0,235.7,67.4ZM197.1,70c-.4,5.1-1.1,19.3-2,25.2s-1.9,11.8-3.1,18-2.6,12-4.1,17.6a142.5,142.5,0,0,1-4.7,14.7,41.9,41.9,0,0,1-5.1,10c.8-10.9,1.7-21,2.5-30.3s1.8-18.1,2.7-26.6,1.8-25.6,2.6-34,1.8-17,2.6-26.1c3.2,0,5.6,1.6,7.1,4.9s2.3,7.7,2.3,13.4C197.9,60.5,197.6,64.9,197.1,70Z"/>
              <path class="cls-1" d="M301.6,24.6a39.2,39.2,0,0,0-2.3-9.4,14.1,14.1,0,0,0-4.4-6.3,11,11,0,0,0-7.1-2.2,52.4,52.4,0,0,0-14.5,2.1,44.8,44.8,0,0,0-13.6,6.5c-.3,7.2-.8,15.2-1.4,24s-1.3,17.8-2,27.3-1.5,18.9-2.3,28.5-1.5,18.8-2.2,27.7c-1.8,20.8-3.8,42.1-5.7,63.9l17.8-10.3c.7-7.9,1.4-15.7,2-23.4s1.1-13.4,1.7-20.4,1.2-13.2,1.6-18.5l1.5-.9c0,1.8.2,4.1.5,7s.7,6.1,1.1,9.7,1,7.4,1.5,11.4l1.5,11.7c1.2,9.2,2.5,19,4,29.5l17.1-13.3c-1.5-8.2-3.1-16.4-4.5-24.6s-2.8-14.4-4.3-22.2-2.9-15-4.2-21.5a53,53,0,0,0,7.2-11.5,119.5,119.5,0,0,0,6-15.5A134.1,134.1,0,0,0,300.7,56a123.6,123.6,0,0,0,1.5-19.3A111.2,111.2,0,0,0,301.6,24.6ZM287.7,57.8a61.3,61.3,0,0,1-4.8,10,44,44,0,0,1-5.8,8.2c-2,2.3-3.7,3.6-5.1,4l3.5-39.1,2.3-.2h2.5a18.7,18.7,0,0,1,3.4.3,6.4,6.4,0,0,1,3,1.1,5.1,5.1,0,0,1,2.2,2.4,10.3,10.3,0,0,1,.8,4.3A25.9,25.9,0,0,1,287.7,57.8Z"/>
            </g>
            <g>
              <path d="M32.3,150.1a51,51,0,0,1-6,.4L66.5,30.8,69.4,1.7,24.2,7.8,22.1,40.9l2.7-.4c1.6-.6,3.7-1.1,6-1.7l6.9-1.6a25.6,25.6,0,0,1,5.3-.7L1.6,156v30.7a53.5,53.5,0,0,1,6.6-1.6c2.7-.6,5.7-1.1,9-1.6l9.9-1.4c3.4-.4,6.5-.8,9.4-1l7.6-.7,4.2-.2.3-32-8.6,1.1Z"/>
              <path d="M88.7,13.5,73.4,15.9c-.8,6-1.9,12.5-3.1,19.7s-2.4,14.7-3.7,22.5-2.5,15.6-3.8,23.4-2.5,15.4-3.7,22.6c-2.9,17.1-5.8,34.6-8.7,52.3l6.9-1.6,6.2-1.3,5.7-1.3,4.5-28.8h9.6c-.2,2.7-.4,5.9-.5,9.6l-.6,11.2c-.3,4.2-.6,8.6-.9,13l-2,26.5,5.9-1.8,6.1-1.8a52.8,52.8,0,0,0,6.6-1.6l1.4-26.6c.4-20.7,1.5-40,1.8-58.4.3-7.9.5-15.8.7-24s.5-15.8.7-23.3.4-14.3.7-20.7.5-11.6.7-15.8A125.1,125.1,0,0,1,88.7,13.5Zm-2,39.9c-.5,7.8-.8,15.2-1.1,21.9-.2,2.8-.3,5.7-.5,8.6s-.2,5.6-.3,8.1-.3,4.7-.4,6.6-.1,3.3-.1,4.1l-1.6.3-2.4.2-2.4.2H76.3l6.9-50.1,2.5-17.2,1.6-.2Z"/>
              <path d="M164.3,5.9,150.8,9.2c-1.1,10-2.1,19.7-3.2,29.1l-1.2,12.8c-.4,4.2-.9,8.5-1.3,12.7s-.6,8.3-1.2,12.1-1.4,18.9-1.6,21.8c-.7-6.1-.8-25.2-1.6-33.9s-1.7-17.2-2.5-25.5-1.7-19.2-2.8-29.4l-4.7.5-4.4.3h-6.1l-2.4-.2c-.3,6.5-.7,13.8-1.3,21.9s-1.3,16.4-2,25.2-1.5,17.7-2.3,26.7-1.7,17.7-2.4,26.1q-3,29.4-6.3,60.7l16.1-7.4c1.1-10.6,2.1-20.7,3.1-30.4.4-4.1.8-8.3,1.2-12.8s.7-8.6,1.1-12.7.7-7.9,1.1-11.5.6-6.9.9-9.6a3.4,3.4,0,0,0,.1,1c.5,3.7,1.1,7.3,1.3,11v1c.2,2.2.3,4.5.5,6.8l.6,9.8.5,8.7c.3,3.7.1,7.4.3,11.1.5,10.4.9,33.9,1.4,45.5a25.3,25.3,0,0,1,4.3-2.4l5.9-2.6,5.1-2.3a11.8,11.8,0,0,1,2.6-1c.3-4.6.7-22.8,1.2-29.7s1.2-14.4,1.9-22.4,1.5-16.5,2.4-25.3,1.7-17.4,2.6-26Q160.6,39.2,164.3,5.9Z"/>
              <path d="M232.7,64.4l-6.4.6,1.9-26.9H239l4.4-.2a18.2,18.2,0,0,0,3.1-.4c.2-2.3.5-4.9.9-7.9s.6-5.8,1-8.6.8-6.6,1.3-9.8L214.8,17l-3.3,35.6a138.9,138.9,0,0,0-1.2-18.7,74.3,74.3,0,0,0-3.8-16.2,29.8,29.8,0,0,0-6.7-10.9,14.4,14.4,0,0,0-10.1-3.9,31.2,31.2,0,0,0-10,1.6L170.1,8c-.4,6.6-1,14-1.7,22.2s-1.4,16.7-2.1,25.7-1.5,26.8-2.4,35.9-1.5,18-2.3,26.5q-2.8,30.3-5.8,62.2l3.1.8a10.6,10.6,0,0,0,3.1.4c4.9,0,9.5-1.9,13.9-5.6A58.7,58.7,0,0,0,188,161.4a113.1,113.1,0,0,0,9.9-21.2c2.9-8.1,5.3-25.4,7.3-34.3.9-4,1.7-8.1,2.5-12.1l-7.3,77.9L236,160.8l1.1-24.8L221,141l3.8-52,6.3-.5,5-.3,3.6-.3c.3-4.1.7-8.1.9-12s.6-7.9.8-11.9l-3.7.2A41,41,0,0,0,232.7,64.4ZM194.1,67c-.4,5.1-1.1,19.3-2,25.2s-1.9,11.8-3.1,18-2.6,12-4.1,17.6a142.5,142.5,0,0,1-4.7,14.7,41.9,41.9,0,0,1-5.1,10c.8-10.9,1.7-21,2.5-30.3s1.8-18.1,2.7-26.6,1.8-25.6,2.6-34,1.8-17,2.6-26.1c3.2,0,5.6,1.6,7.1,4.9s2.3,7.7,2.3,13.4C194.9,57.5,194.6,61.9,194.1,67Z"/>
              <path d="M298.6,21.6a39.2,39.2,0,0,0-2.3-9.4,14.1,14.1,0,0,0-4.4-6.3,11,11,0,0,0-7.1-2.2,52.4,52.4,0,0,0-14.5,2.1,44.8,44.8,0,0,0-13.6,6.5c-.3,7.2-.8,15.2-1.4,24s-1.3,17.8-2,27.3-1.5,18.9-2.3,28.5-1.5,18.8-2.2,27.7c-1.8,20.8-3.8,42.1-5.7,63.9l17.8-10.3c.7-7.9,1.4-15.7,2-23.4s1.1-13.4,1.7-20.4,1.2-13.2,1.6-18.5l1.5-.9c0,1.8.2,4.1.5,7s.7,6.1,1.1,9.7,1,7.4,1.5,11.4l1.5,11.7c1.2,9.2,2.5,19,4,29.5l17.1-13.3c-1.5-8.2-3.1-16.4-4.5-24.6s-2.8-14.4-4.3-22.2-2.9-15-4.2-21.5a53,53,0,0,0,7.2-11.5,119.5,119.5,0,0,0,6-15.5A134.1,134.1,0,0,0,297.7,53a123.6,123.6,0,0,0,1.5-19.3A111.2,111.2,0,0,0,298.6,21.6ZM284.7,54.8a61.3,61.3,0,0,1-4.8,10,44,44,0,0,1-5.8,8.2c-2,2.3-3.7,3.6-5.1,4l3.5-39.1,2.3-.2h2.5a18.7,18.7,0,0,1,3.4.3,6.4,6.4,0,0,1,3,1.1,5.1,5.1,0,0,1,2.2,2.4,10.3,10.3,0,0,1,.8,4.3A25.9,25.9,0,0,1,284.7,54.8Z"/>
            </g>
            <g>
              <path class="cls-2" d="M32.3,150.1a51,51,0,0,1-6,.4L66.5,30.8,69.4,1.7,24.2,7.8,22.1,40.9l2.7-.4c1.6-.6,3.7-1.1,6-1.7l6.9-1.6a25.6,25.6,0,0,1,5.3-.7L1.6,156v30.7a53.5,53.5,0,0,1,6.6-1.6c2.7-.6,5.7-1.1,9-1.6l9.9-1.4c3.4-.4,6.5-.8,9.4-1l7.6-.7,4.2-.2.3-32-8.6,1.1Z"/>
              <path class="cls-2" d="M88.7,13.5,73.4,15.9c-.8,6-1.9,12.5-3.1,19.7s-2.4,14.7-3.7,22.5-2.5,15.6-3.8,23.4-2.5,15.4-3.7,22.6c-2.9,17.1-5.8,34.6-8.7,52.3l6.9-1.6,6.2-1.3,5.7-1.3,4.5-28.8h9.6c-.2,2.7-.4,5.9-.5,9.6l-.6,11.2c-.3,4.2-.6,8.6-.9,13l-2,26.5,5.9-1.8,6.1-1.8a52.8,52.8,0,0,0,6.6-1.6l1.4-26.6c.4-20.7,1.5-40,1.8-58.4.3-7.9.5-15.8.7-24s.5-15.8.7-23.3.4-14.3.7-20.7.5-11.6.7-15.8A125.1,125.1,0,0,1,88.7,13.5Zm-2,39.9c-.5,7.8-.8,15.2-1.1,21.9-.2,2.8-.3,5.7-.5,8.6s-.2,5.6-.3,8.1-.3,4.7-.4,6.6-.1,3.3-.1,4.1l-1.6.3-2.4.2-2.4.2H76.3l6.9-50.1,2.5-17.2,1.6-.2Z"/>
              <path class="cls-2" d="M164.3,5.9,150.8,9.2c-1.1,10-2.1,19.7-3.2,29.1l-1.2,12.8c-.4,4.2-.9,8.5-1.3,12.7s-.6,8.3-1.2,12.1-1.4,18.9-1.6,21.8c-.7-6.1-.8-25.2-1.6-33.9s-1.7-17.2-2.5-25.5-1.7-19.2-2.8-29.4l-4.7.5-4.4.3h-6.1l-2.4-.2c-.3,6.5-.7,13.8-1.3,21.9s-1.3,16.4-2,25.2-1.5,17.7-2.3,26.7-1.7,17.7-2.4,26.1q-3,29.4-6.3,60.7l16.1-7.4c1.1-10.6,2.1-20.7,3.1-30.4.4-4.1.8-8.3,1.2-12.8s.7-8.6,1.1-12.7.7-7.9,1.1-11.5.6-6.9.9-9.6a3.4,3.4,0,0,0,.1,1c.5,3.7,1.1,7.3,1.3,11v1c.2,2.2.3,4.5.5,6.8l.6,9.8.5,8.7c.3,3.7.1,7.4.3,11.1.5,10.4.9,33.9,1.4,45.5a25.3,25.3,0,0,1,4.3-2.4l5.9-2.6,5.1-2.3a11.8,11.8,0,0,1,2.6-1c.3-4.6.7-22.8,1.2-29.7s1.2-14.4,1.9-22.4,1.5-16.5,2.4-25.3,1.7-17.4,2.6-26Q160.6,39.2,164.3,5.9Z"/>
              <path class="cls-2" d="M232.7,64.4l-6.4.6,1.9-26.9H239l4.4-.2a18.2,18.2,0,0,0,3.1-.4c.2-2.3.5-4.9.9-7.9s.6-5.8,1-8.6.8-6.6,1.3-9.8L214.8,17l-3.3,35.6a138.9,138.9,0,0,0-1.2-18.7,74.3,74.3,0,0,0-3.8-16.2,29.8,29.8,0,0,0-6.7-10.9,14.4,14.4,0,0,0-10.1-3.9,31.2,31.2,0,0,0-10,1.6L170.1,8c-.4,6.6-1,14-1.7,22.2s-1.4,16.7-2.1,25.7-1.5,26.8-2.4,35.9-1.5,18-2.3,26.5q-2.8,30.3-5.8,62.2l3.1.8a10.6,10.6,0,0,0,3.1.4c4.9,0,9.5-1.9,13.9-5.6A58.7,58.7,0,0,0,188,161.4a113.1,113.1,0,0,0,9.9-21.2c2.9-8.1,5.3-25.4,7.3-34.3.9-4,1.7-8.1,2.5-12.1l-7.3,77.9L236,160.8l1.1-24.8L221,141l3.8-52,6.3-.5,5-.3,3.6-.3c.3-4.1.7-8.1.9-12s.6-7.9.8-11.9l-3.7.2A41,41,0,0,0,232.7,64.4ZM194.1,67c-.4,5.1-1.1,19.3-2,25.2s-1.9,11.8-3.1,18-2.6,12-4.1,17.6a142.5,142.5,0,0,1-4.7,14.7,41.9,41.9,0,0,1-5.1,10c.8-10.9,1.7-21,2.5-30.3s1.8-18.1,2.7-26.6,1.8-25.6,2.6-34,1.8-17,2.6-26.1c3.2,0,5.6,1.6,7.1,4.9s2.3,7.7,2.3,13.4C194.9,57.5,194.6,61.9,194.1,67Z"/>
              <path class="cls-2" d="M298.6,21.6a39.2,39.2,0,0,0-2.3-9.4,14.1,14.1,0,0,0-4.4-6.3,11,11,0,0,0-7.1-2.2,52.4,52.4,0,0,0-14.5,2.1,44.8,44.8,0,0,0-13.6,6.5c-.3,7.2-.8,15.2-1.4,24s-1.3,17.8-2,27.3-1.5,18.9-2.3,28.5-1.5,18.8-2.2,27.7c-1.8,20.8-3.8,42.1-5.7,63.9l17.8-10.3c.7-7.9,1.4-15.7,2-23.4s1.1-13.4,1.7-20.4,1.2-13.2,1.6-18.5l1.5-.9c0,1.8.2,4.1.5,7s.7,6.1,1.1,9.7,1,7.4,1.5,11.4l1.5,11.7c1.2,9.2,2.5,19,4,29.5l17.1-13.3c-1.5-8.2-3.1-16.4-4.5-24.6s-2.8-14.4-4.3-22.2-2.9-15-4.2-21.5a53,53,0,0,0,7.2-11.5,119.5,119.5,0,0,0,6-15.5A134.1,134.1,0,0,0,297.7,53a123.6,123.6,0,0,0,1.5-19.3A111.2,111.2,0,0,0,298.6,21.6ZM284.7,54.8a61.3,61.3,0,0,1-4.8,10,44,44,0,0,1-5.8,8.2c-2,2.3-3.7,3.6-5.1,4l3.5-39.1,2.3-.2h2.5a18.7,18.7,0,0,1,3.4.3,6.4,6.4,0,0,1,3,1.1,5.1,5.1,0,0,1,2.2,2.4,10.3,10.3,0,0,1,.8,4.3A25.9,25.9,0,0,1,284.7,54.8Z"/>
            </g>
          </g>
        </g>
        <g>
          <g id="valero">
            <g>
              <path d="M60.3,222.2c.4-3.8.8-7.5,1.3-11.1s1-7.1,1.4-10.4,1.3-4.4,1.9-7.2l-5.5.5-5.7.5-6,.4c-1.2,16.2-2.4,32.3-3.5,48.5h-2q-.2-2.5-.3-6c-.1-2.3-.3-4.9-.6-7.6s-.4-5.5-.6-8.4-.5-6.8-.7-11.5-1.1-12.8-1.6-20.1l-6,.6-5.4.4-5.7.2c.5,3,1.4,8.3,1.9,11.9s1,7.2,1.4,11,.9,7.7,1.3,11.6.7,7.6,1,11.1c.8,8.5,1.5,17.2,2.2,26l27.5-4.5c.8-8.6,1.6-17,2.5-25.2Q59.7,227.8,60.3,222.2Z"/>
              <path d="M101.2,205.9c-.4-3.3-1-8.4-1.3-11.2s-.4-5.3-.5-7.2c-4.8.9-9.6,1.5-14.6,2.1L70,191.1c-.4,2.7-.5,7.6-1.1,10.9s-1.2,6.6-1.8,10.1-1.3,7.1-1.9,10.6-1.2,7-1.8,10.2c-1.4,7.8-3.2,13.7-4.6,21.7l8.6-.9,5.9-.8c2.1-.2,2.3-.5,3.8-.7.6-4.3,1.2-8.6,1.7-12.9l9.4-.3c0,1.2.5,4.6.6,6.3l.3,5c0,1.9.4,5.8.5,7.8l5.7-.9,5.7-1,6.3-.8c-1.1-9.3-2.6-20-3.7-28.3l-1.2-10.7Q101.7,210.8,101.2,205.9Zm-14.9,3.6c.2,3.5.4,6.8.7,9.9,0,1.2.1,2.5.2,3.8s.2,2.6.3,3.7-.2.1-.2,1,.1,1.4.2,1.8l-1.5.2H83.7l-2.3.2H79.8l3-20.6,1.2-7.8h1.6C85.8,204.3,86.1,206.9,86.3,209.5Z"/>
              <path d="M158.8,218.6c2.3-.1,3.8.2,5.6.1l5-.2,3.5-.2a42.1,42.1,0,0,0,.1-5v-5.1l-3.7.2h-4.9c-2,.1-3-.1-5.3.1.4-3.4.7-6.7,1.1-10.1H169l4.3-.2,3.1-.2c.1-.9.1-2.1.3-3.3s.2-2.5.4-3.6.4-2.8.7-4.1l-34.4,3-3.3,64.5-.3-.7c-.3-.9-.6-2-1-3.1l-.9-3.4-5.5.2c-2,0-4,.2-5.8.3,0-2.1.1-4.6.2-7.3s.3-5.6.5-8.5.5-5.9.8-9,.5-6,.9-8.9c.6-6.7,2.3-19.6,3.1-26.7l-18.9,2.5c-.6,8.3-2.1,22.4-2.5,30.4-.3,3.4-.4,6.9-.6,10.5s-.2,7.3-.4,10.9-.2,7.1-.2,10.4,0,6.4.1,9.1a41.8,41.8,0,0,1,6.3-1.5c2.4-.5,4.8-.8,7.3-1.1s5-.6,7.5-.7l7.1-.4h3.4c-.1-.3-.3-.7-.5-1.4s-.3-.8-.4-1.3l34.3-5.1c-.3-3.5-.5-6.9-.7-10.4l-15.6,2.3C158.5,234,158.6,226.3,158.8,218.6Z"/>
              <path d="M272.6,196.5a23.3,23.3,0,0,0-3.6-6.6,16.1,16.1,0,0,0-5.8-4.8,16.8,16.8,0,0,0-8.4-1.9,24.1,24.1,0,0,0-10.7,2.6,35.7,35.7,0,0,0-8.9,6.8,50.5,50.5,0,0,0-6.9,9.8,54,54,0,0,0-4.7,11.7,66.5,66.5,0,0,0-2.3,12.3,46.9,46.9,0,0,0,.3,11.9,29.8,29.8,0,0,0,1,4.7c-.8-1.2-1.5-2.5-2.2-3.7l-5.5-9.2-5.5-8.8a29.2,29.2,0,0,0,6.3-4.8,33.7,33.7,0,0,0,4.7-6.5,25.4,25.4,0,0,0,2.9-7.5,21.4,21.4,0,0,0,.3-8,21.8,21.8,0,0,0-1.4-4.9,12.1,12.1,0,0,0-2.8-3.9,11.3,11.3,0,0,0-4.7-2.6,23.8,23.8,0,0,0-7-.9,107.1,107.1,0,0,0-13.9,1.1,75.6,75.6,0,0,0-12.8,2.8c.1,3,.2,6.3.1,10s0,7.4-.1,11.3l-.3,11.8c-.2,4-.3,7.8-.4,11.5-.3,6.6-.7,15.5-1.3,26.5l16.2-6.6c.1-3.2.3-6.5.4-9.7s.5-3.4.7-6.4.2-5.4.3-7.6l1.3-.4c.2.7.6,1.7,1,2.9l1.7,4c.7,1.5,1.4,3,2.1,4.7s1.5,3.3,2.3,4.8c1.7,3.8,3.6,7.8,5.7,12.2l14.7-5.4a18.1,18.1,0,0,0,8.9,7.8,18.5,18.5,0,0,0,6.7,1.2,22.6,22.6,0,0,0,8.7-1.8,30.4,30.4,0,0,0,8.5-5.2,39.4,39.4,0,0,0,7.6-8.1,42,42,0,0,0,5.8-10.9,57.6,57.6,0,0,0,3.2-13.3,62.7,62.7,0,0,0-.4-15.5A41.9,41.9,0,0,0,272.6,196.5ZM201.8,211a12.3,12.3,0,0,1-4.7,1.7l.9-16.2h7.9a13.4,13.4,0,0,1,3,.5,4.5,4.5,0,0,1,2.2,1,2.5,2.5,0,0,1,1.1,1.7,5.5,5.5,0,0,1-1.4,3.8,29.9,29.9,0,0,1-3.9,4.2A28.3,28.3,0,0,1,201.8,211Zm58.6,10.7a33.9,33.9,0,0,1-2.5,9.6,20.6,20.6,0,0,1-5.2,7.7,11.5,11.5,0,0,1-8.2,3.1,5.8,5.8,0,0,1-2.6-.6,6.9,6.9,0,0,1-2.1-1.6,6.5,6.5,0,0,1-1.6-2.1,10.5,10.5,0,0,1-.8-2.3,46.7,46.7,0,0,1-.3-5.7,39.4,39.4,0,0,1,.8-6.7,59.8,59.8,0,0,1,2-6.9,24.6,24.6,0,0,1,3.2-6,16,16,0,0,1,4.7-4.3,11.7,11.7,0,0,1,6.2-1.6,5.6,5.6,0,0,1,3,.8,7.2,7.2,0,0,1,1.8,2.1,10.2,10.2,0,0,1,1.1,2.6c.2.9.4,1.8.5,2.6A36.1,36.1,0,0,1,260.4,221.7Z"/>
            </g>
            <g>
              <path d="M57.3,219.2c.4-3.8.8-7.5,1.3-11.1s1-7.1,1.4-10.4,1.3-4.4,1.9-7.2l-5.5.5-5.7.5-6,.4c-1.2,16.2-2.4,32.3-3.5,48.5h-2q-.2-2.5-.3-6c-.1-2.3-.3-4.9-.6-7.6s-.4-5.5-.6-8.4-.5-6.8-.7-11.5-1.1-12.8-1.6-20.1l-6,.6-5.4.4-5.7.2c.5,3,1.4,8.3,1.9,11.9s1,7.2,1.4,11,.9,7.7,1.3,11.6.7,7.6,1,11.1c.8,8.5,1.5,17.2,2.2,26l27.5-4.5c.8-8.6,1.6-17,2.5-25.2Q56.7,224.8,57.3,219.2Z"/>
              <path d="M98.2,202.9c-.4-3.3-1-8.4-1.3-11.2s-.4-5.3-.5-7.2c-4.8.9-9.6,1.5-14.6,2.1L67,188.1c-.4,2.7-.5,7.6-1.1,10.9s-1.2,6.6-1.8,10.1-1.3,7.1-1.9,10.6-1.2,7-1.8,10.2c-1.4,7.8-3.2,13.7-4.6,21.7l8.6-.9,5.9-.8c2.1-.2,2.3-.5,3.8-.7.6-4.3,1.2-8.6,1.7-12.9l9.4-.3c0,1.2.5,4.6.6,6.3l.3,5c0,1.9.4,5.8.5,7.8l5.7-.9,5.7-1,6.3-.8c-1.1-9.3-2.6-20-3.7-28.3l-1.2-10.7Q98.7,207.8,98.2,202.9Zm-14.9,3.6c.2,3.5.4,6.8.7,9.9,0,1.2.1,2.5.2,3.8s.2,2.6.3,3.7-.2.1-.2,1,.1,1.4.2,1.8l-1.5.2H80.7l-2.3.2H76.8l3-20.6,1.2-7.8h1.6C82.8,201.3,83.1,203.9,83.3,206.5Z"/>
              <path d="M155.8,215.6c2.3-.1,3.8.2,5.6.1l5-.2,3.5-.2a42.1,42.1,0,0,0,.1-5v-5.1l-3.7.2h-4.9c-2,.1-3-.1-5.3.1.4-3.4.7-6.7,1.1-10.1H166l4.3-.2,3.1-.2c.1-.9.1-2.1.3-3.3s.2-2.5.4-3.6.4-2.8.7-4.1l-34.4,3-3.3,64.5-.3-.7c-.3-.9-.6-2-1-3.1l-.9-3.4-5.5.2c-2,0-4,.2-5.8.3,0-2.1.1-4.6.2-7.3s.3-5.6.5-8.5.5-5.9.8-9,.5-6,.9-8.9c.6-6.7,2.3-19.6,3.1-26.7l-18.9,2.5c-.6,8.3-2.1,22.4-2.5,30.4-.3,3.4-.4,6.9-.6,10.5s-.2,7.3-.4,10.9-.2,7.1-.2,10.4,0,6.4.1,9.1a41.8,41.8,0,0,1,6.3-1.5c2.4-.5,4.8-.8,7.3-1.1s5-.6,7.5-.7l7.1-.4h3.4c-.1-.3-.3-.7-.5-1.4s-.3-.8-.4-1.3l34.3-5.1c-.3-3.5-.5-6.9-.7-10.4l-15.6,2.3C155.5,231,155.6,223.3,155.8,215.6Z"/>
              <path d="M269.6,193.5a23.3,23.3,0,0,0-3.6-6.6,16.1,16.1,0,0,0-5.8-4.8,16.8,16.8,0,0,0-8.4-1.9,24.1,24.1,0,0,0-10.7,2.6,35.7,35.7,0,0,0-8.9,6.8,50.5,50.5,0,0,0-6.9,9.8,54,54,0,0,0-4.7,11.7,66.5,66.5,0,0,0-2.3,12.3,46.9,46.9,0,0,0,.3,11.9,29.8,29.8,0,0,0,1,4.7c-.8-1.2-1.5-2.5-2.2-3.7l-5.5-9.2-5.5-8.8a29.2,29.2,0,0,0,6.3-4.8,33.7,33.7,0,0,0,4.7-6.5,25.4,25.4,0,0,0,2.9-7.5,21.4,21.4,0,0,0,.3-8,21.8,21.8,0,0,0-1.4-4.9,12.1,12.1,0,0,0-2.8-3.9,11.3,11.3,0,0,0-4.7-2.6,23.8,23.8,0,0,0-7-.9,107.1,107.1,0,0,0-13.9,1.1,75.6,75.6,0,0,0-12.8,2.8c.1,3,.2,6.3.1,10s0,7.4-.1,11.3l-.3,11.8c-.2,4-.3,7.8-.4,11.5-.3,6.6-.7,15.5-1.3,26.5l16.2-6.6c.1-3.2.3-6.5.4-9.7s.5-3.4.7-6.4.2-5.4.3-7.6l1.3-.4c.2.7.6,1.7,1,2.9l1.7,4c.7,1.5,1.4,3,2.1,4.7s1.5,3.3,2.3,4.8c1.7,3.8,3.6,7.8,5.7,12.2l14.7-5.4a18.1,18.1,0,0,0,8.9,7.8,18.5,18.5,0,0,0,6.7,1.2,22.6,22.6,0,0,0,8.7-1.8,30.4,30.4,0,0,0,8.5-5.2,39.4,39.4,0,0,0,7.6-8.1,42,42,0,0,0,5.8-10.9,57.6,57.6,0,0,0,3.2-13.3,62.7,62.7,0,0,0-.4-15.5A41.9,41.9,0,0,0,269.6,193.5ZM198.8,208a12.3,12.3,0,0,1-4.7,1.7l.9-16.2h7.9a13.4,13.4,0,0,1,3,.5,4.5,4.5,0,0,1,2.2,1,2.5,2.5,0,0,1,1.1,1.7,5.5,5.5,0,0,1-1.4,3.8,29.9,29.9,0,0,1-3.9,4.2A28.3,28.3,0,0,1,198.8,208Zm58.6,10.7a33.9,33.9,0,0,1-2.5,9.6,20.6,20.6,0,0,1-5.2,7.7,11.5,11.5,0,0,1-8.2,3.1,5.8,5.8,0,0,1-2.6-.6,6.9,6.9,0,0,1-2.1-1.6,6.5,6.5,0,0,1-1.6-2.1,10.5,10.5,0,0,1-.8-2.3,46.7,46.7,0,0,1-.3-5.7,39.4,39.4,0,0,1,.8-6.7,59.8,59.8,0,0,1,2-6.9,24.6,24.6,0,0,1,3.2-6,16,16,0,0,1,4.7-4.3,11.7,11.7,0,0,1,6.2-1.6,5.6,5.6,0,0,1,3,.8,7.2,7.2,0,0,1,1.8,2.1,10.2,10.2,0,0,1,1.1,2.6c.2.9.4,1.8.5,2.6A36.1,36.1,0,0,1,257.4,218.7Z"/>
            </g>
            <g>
              <path d="M57.3,219.2c.4-3.8.8-7.5,1.3-11.1s1-7.1,1.4-10.4,1.3-4.4,1.9-7.2l-5.5.5-5.7.5-6,.4c-1.2,16.2-2.4,32.3-3.5,48.5h-2q-.2-2.5-.3-6c-.1-2.3-.3-4.9-.6-7.6s-.4-5.5-.6-8.4-.5-6.8-.7-11.5-1.1-12.8-1.6-20.1l-6,.6-5.4.4-5.7.2c.5,3,1.4,8.3,1.9,11.9s1,7.2,1.4,11,.9,7.7,1.3,11.6.7,7.6,1,11.1c.8,8.5,1.5,17.2,2.2,26l27.5-4.5c.8-8.6,1.6-17,2.5-25.2Q56.7,224.8,57.3,219.2Z"/>
              <path d="M98.2,202.9c-.4-3.3-1-8.4-1.3-11.2s-.4-5.3-.5-7.2c-4.8.9-9.6,1.5-14.6,2.1L67,188.1c-.4,2.7-.5,7.6-1.1,10.9s-1.2,6.6-1.8,10.1-1.3,7.1-1.9,10.6-1.2,7-1.8,10.2c-1.4,7.8-3.2,13.7-4.6,21.7l8.6-.9,5.9-.8c2.1-.2,2.3-.5,3.8-.7.6-4.3,1.2-8.6,1.7-12.9l9.4-.3c0,1.2.5,4.6.6,6.3l.3,5c0,1.9.4,5.8.5,7.8l5.7-.9,5.7-1,6.3-.8c-1.1-9.3-2.6-20-3.7-28.3l-1.2-10.7Q98.7,207.8,98.2,202.9Zm-14.9,3.6c.2,3.5.4,6.8.7,9.9,0,1.2.1,2.5.2,3.8s.2,2.6.3,3.7-.2.1-.2,1,.1,1.4.2,1.8l-1.5.2H80.7l-2.3.2H76.8l3-20.6,1.2-7.8h1.6C82.8,201.3,83.1,203.9,83.3,206.5Z"/>
              <path d="M155.8,215.6c2.3-.1,3.8.2,5.6.1l5-.2,3.5-.2a42.1,42.1,0,0,0,.1-5v-5.1l-3.7.2h-4.9c-2,.1-3-.1-5.3.1.4-3.4.7-6.7,1.1-10.1H166l4.3-.2,3.1-.2c.1-.9.1-2.1.3-3.3s.2-2.5.4-3.6.4-2.8.7-4.1l-34.4,3-3.3,64.5-.3-.7c-.3-.9-.6-2-1-3.1l-.9-3.4-5.5.2c-2,0-4,.2-5.8.3,0-2.1.1-4.6.2-7.3s.3-5.6.5-8.5.5-5.9.8-9,.5-6,.9-8.9c.6-6.7,2.3-19.6,3.1-26.7l-18.9,2.5c-.6,8.3-2.1,22.4-2.5,30.4-.3,3.4-.4,6.9-.6,10.5s-.2,7.3-.4,10.9-.2,7.1-.2,10.4,0,6.4.1,9.1a41.8,41.8,0,0,1,6.3-1.5c2.4-.5,4.8-.8,7.3-1.1s5-.6,7.5-.7l7.1-.4h3.4c-.1-.3-.3-.7-.5-1.4s-.3-.8-.4-1.3l34.3-5.1c-.3-3.5-.5-6.9-.7-10.4l-15.6,2.3C155.5,231,155.6,223.3,155.8,215.6Z"/>
              <path d="M269.6,193.5a23.3,23.3,0,0,0-3.6-6.6,16.1,16.1,0,0,0-5.8-4.8,16.8,16.8,0,0,0-8.4-1.9,24.1,24.1,0,0,0-10.7,2.6,35.7,35.7,0,0,0-8.9,6.8,50.5,50.5,0,0,0-6.9,9.8,54,54,0,0,0-4.7,11.7,66.5,66.5,0,0,0-2.3,12.3,46.9,46.9,0,0,0,.3,11.9,29.8,29.8,0,0,0,1,4.7c-.8-1.2-1.5-2.5-2.2-3.7l-5.5-9.2-5.5-8.8a29.2,29.2,0,0,0,6.3-4.8,33.7,33.7,0,0,0,4.7-6.5,25.4,25.4,0,0,0,2.9-7.5,21.4,21.4,0,0,0,.3-8,21.8,21.8,0,0,0-1.4-4.9,12.1,12.1,0,0,0-2.8-3.9,11.3,11.3,0,0,0-4.7-2.6,23.8,23.8,0,0,0-7-.9,107.1,107.1,0,0,0-13.9,1.1,75.6,75.6,0,0,0-12.8,2.8c.1,3,.2,6.3.1,10s0,7.4-.1,11.3l-.3,11.8c-.2,4-.3,7.8-.4,11.5-.3,6.6-.7,15.5-1.3,26.5l16.2-6.6c.1-3.2.3-6.5.4-9.7s.5-3.4.7-6.4.2-5.4.3-7.6l1.3-.4c.2.7.6,1.7,1,2.9l1.7,4c.7,1.5,1.4,3,2.1,4.7s1.5,3.3,2.3,4.8c1.7,3.8,3.6,7.8,5.7,12.2l14.7-5.4a18.1,18.1,0,0,0,8.9,7.8,18.5,18.5,0,0,0,6.7,1.2,22.6,22.6,0,0,0,8.7-1.8,30.4,30.4,0,0,0,8.5-5.2,39.4,39.4,0,0,0,7.6-8.1,42,42,0,0,0,5.8-10.9,57.6,57.6,0,0,0,3.2-13.3,62.7,62.7,0,0,0-.4-15.5A41.9,41.9,0,0,0,269.6,193.5ZM198.8,208a12.3,12.3,0,0,1-4.7,1.7l.9-16.2h7.9a13.4,13.4,0,0,1,3,.5,4.5,4.5,0,0,1,2.2,1,2.5,2.5,0,0,1,1.1,1.7,5.5,5.5,0,0,1-1.4,3.8,29.9,29.9,0,0,1-3.9,4.2A28.3,28.3,0,0,1,198.8,208Zm58.6,10.7a33.9,33.9,0,0,1-2.5,9.6,20.6,20.6,0,0,1-5.2,7.7,11.5,11.5,0,0,1-8.2,3.1,5.8,5.8,0,0,1-2.6-.6,6.9,6.9,0,0,1-2.1-1.6,6.5,6.5,0,0,1-1.6-2.1,10.5,10.5,0,0,1-.8-2.3,46.7,46.7,0,0,1-.3-5.7,39.4,39.4,0,0,1,.8-6.7,59.8,59.8,0,0,1,2-6.9,24.6,24.6,0,0,1,3.2-6,16,16,0,0,1,4.7-4.3,11.7,11.7,0,0,1,6.2-1.6,5.6,5.6,0,0,1,3,.8,7.2,7.2,0,0,1,1.8,2.1,10.2,10.2,0,0,1,1.1,2.6c.2.9.4,1.8.5,2.6A36.1,36.1,0,0,1,257.4,218.7Z"/>
            </g>
          </g>
          <g>
            <path d="M60.3,222.2c.4-3.8.8-7.5,1.3-11.1s1-7.1,1.4-10.4,1.3-4.4,1.9-7.2l-5.5.5-5.7.5-6,.4c-1.2,16.2-2.4,32.3-3.5,48.5h-2q-.2-2.5-.3-6c-.1-2.3-.3-4.9-.6-7.6s-.4-5.5-.6-8.4-.5-6.8-.7-11.5-1.1-12.8-1.6-20.1l-6,.6-5.4.4-5.7.2c.5,3,1.4,8.3,1.9,11.9s1,7.2,1.4,11,.9,7.7,1.3,11.6.7,7.6,1,11.1c.8,8.5,1.5,17.2,2.2,26l27.5-4.5c.8-8.6,1.6-17,2.5-25.2Q59.7,227.8,60.3,222.2Z"/>
            <path d="M101.2,205.9c-.4-3.3-1-8.4-1.3-11.2s-.4-5.3-.5-7.2c-4.8.9-9.6,1.5-14.6,2.1L70,191.1c-.4,2.7-.5,7.6-1.1,10.9s-1.2,6.6-1.8,10.1-1.3,7.1-1.9,10.6-1.2,7-1.8,10.2c-1.4,7.8-3.2,13.7-4.6,21.7l8.6-.9,5.9-.8c2.1-.2,2.3-.5,3.8-.7.6-4.3,1.2-8.6,1.7-12.9l9.4-.3c0,1.2.5,4.6.6,6.3l.3,5c0,1.9.4,5.8.5,7.8l5.7-.9,5.7-1,6.3-.8c-1.1-9.3-2.6-20-3.7-28.3l-1.2-10.7Q101.7,210.8,101.2,205.9Zm-14.9,3.6c.2,3.5.4,6.8.7,9.9,0,1.2.1,2.5.2,3.8s.2,2.6.3,3.7-.2.1-.2,1,.1,1.4.2,1.8l-1.5.2H83.7l-2.3.2H79.8l3-20.6,1.2-7.8h1.6C85.8,204.3,86.1,206.9,86.3,209.5Z"/>
            <path d="M158.8,218.6c2.3-.1,3.8.2,5.6.1l5-.2,3.5-.2a42.1,42.1,0,0,0,.1-5v-5.1l-3.7.2h-4.9c-2,.1-3-.1-5.3.1.4-3.4.7-6.7,1.1-10.1H169l4.3-.2,3.1-.2c.1-.9.1-2.1.3-3.3s.2-2.5.4-3.6.4-2.8.7-4.1l-34.4,3-3.3,64.5-.3-.7c-.3-.9-.6-2-1-3.1l-.9-3.4-5.5.2c-2,0-4,.2-5.8.3,0-2.1.1-4.6.2-7.3s.3-5.6.5-8.5.5-5.9.8-9,.5-6,.9-8.9c.6-6.7,2.3-19.6,3.1-26.7l-18.9,2.5c-.6,8.3-2.1,22.4-2.5,30.4-.3,3.4-.4,6.9-.6,10.5s-.2,7.3-.4,10.9-.2,7.1-.2,10.4,0,6.4.1,9.1a41.8,41.8,0,0,1,6.3-1.5c2.4-.5,4.8-.8,7.3-1.1s5-.6,7.5-.7l7.1-.4h3.4c-.1-.3-.3-.7-.5-1.4s-.3-.8-.4-1.3l34.3-5.1c-.3-3.5-.5-6.9-.7-10.4l-15.6,2.3C158.5,234,158.6,226.3,158.8,218.6Z"/>
            <path d="M272.6,196.5a23.3,23.3,0,0,0-3.6-6.6,16.1,16.1,0,0,0-5.8-4.8,16.8,16.8,0,0,0-8.4-1.9,24.1,24.1,0,0,0-10.7,2.6,35.7,35.7,0,0,0-8.9,6.8,50.5,50.5,0,0,0-6.9,9.8,54,54,0,0,0-4.7,11.7,66.5,66.5,0,0,0-2.3,12.3,46.9,46.9,0,0,0,.3,11.9,29.8,29.8,0,0,0,1,4.7c-.8-1.2-1.5-2.5-2.2-3.7l-5.5-9.2-5.5-8.8a29.2,29.2,0,0,0,6.3-4.8,33.7,33.7,0,0,0,4.7-6.5,25.4,25.4,0,0,0,2.9-7.5,21.4,21.4,0,0,0,.3-8,21.8,21.8,0,0,0-1.4-4.9,12.1,12.1,0,0,0-2.8-3.9,11.3,11.3,0,0,0-4.7-2.6,23.8,23.8,0,0,0-7-.9,107.1,107.1,0,0,0-13.9,1.1,75.6,75.6,0,0,0-12.8,2.8c.1,3,.2,6.3.1,10s0,7.4-.1,11.3l-.3,11.8c-.2,4-.3,7.8-.4,11.5-.3,6.6-.7,15.5-1.3,26.5l16.2-6.6c.1-3.2.3-6.5.4-9.7s.5-3.4.7-6.4.2-5.4.3-7.6l1.3-.4c.2.7.6,1.7,1,2.9l1.7,4c.7,1.5,1.4,3,2.1,4.7s1.5,3.3,2.3,4.8c1.7,3.8,3.6,7.8,5.7,12.2l14.7-5.4a18.1,18.1,0,0,0,8.9,7.8,18.5,18.5,0,0,0,6.7,1.2,22.6,22.6,0,0,0,8.7-1.8,30.4,30.4,0,0,0,8.5-5.2,39.4,39.4,0,0,0,7.6-8.1,42,42,0,0,0,5.8-10.9,57.6,57.6,0,0,0,3.2-13.3,62.7,62.7,0,0,0-.4-15.5A41.9,41.9,0,0,0,272.6,196.5ZM201.8,211a12.3,12.3,0,0,1-4.7,1.7l.9-16.2h7.9a13.4,13.4,0,0,1,3,.5,4.5,4.5,0,0,1,2.2,1,2.5,2.5,0,0,1,1.1,1.7,5.5,5.5,0,0,1-1.4,3.8,29.9,29.9,0,0,1-3.9,4.2A28.3,28.3,0,0,1,201.8,211Zm58.6,10.7a33.9,33.9,0,0,1-2.5,9.6,20.6,20.6,0,0,1-5.2,7.7,11.5,11.5,0,0,1-8.2,3.1,5.8,5.8,0,0,1-2.6-.6,6.9,6.9,0,0,1-2.1-1.6,6.5,6.5,0,0,1-1.6-2.1,10.5,10.5,0,0,1-.8-2.3,46.7,46.7,0,0,1-.3-5.7,39.4,39.4,0,0,1,.8-6.7,59.8,59.8,0,0,1,2-6.9,24.6,24.6,0,0,1,3.2-6,16,16,0,0,1,4.7-4.3,11.7,11.7,0,0,1,6.2-1.6,5.6,5.6,0,0,1,3,.8,7.2,7.2,0,0,1,1.8,2.1,10.2,10.2,0,0,1,1.1,2.6c.2.9.4,1.8.5,2.6A36.1,36.1,0,0,1,260.4,221.7Z"/>
          </g>
          <g>
            <path d="M57.3,219.2c.4-3.8.8-7.5,1.3-11.1s1-7.1,1.4-10.4,1.3-4.4,1.9-7.2l-5.5.5-5.7.5-6,.4c-1.2,16.2-2.4,32.3-3.5,48.5h-2q-.2-2.5-.3-6c-.1-2.3-.3-4.9-.6-7.6s-.4-5.5-.6-8.4-.5-6.8-.7-11.5-1.1-12.8-1.6-20.1l-6,.6-5.4.4-5.7.2c.5,3,1.4,8.3,1.9,11.9s1,7.2,1.4,11,.9,7.7,1.3,11.6.7,7.6,1,11.1c.8,8.5,1.5,17.2,2.2,26l27.5-4.5c.8-8.6,1.6-17,2.5-25.2Q56.7,224.8,57.3,219.2Z"/>
            <path d="M98.2,202.9c-.4-3.3-1-8.4-1.3-11.2s-.4-5.3-.5-7.2c-4.8.9-9.6,1.5-14.6,2.1L67,188.1c-.4,2.7-.5,7.6-1.1,10.9s-1.2,6.6-1.8,10.1-1.3,7.1-1.9,10.6-1.2,7-1.8,10.2c-1.4,7.8-3.2,13.7-4.6,21.7l8.6-.9,5.9-.8c2.1-.2,2.3-.5,3.8-.7.6-4.3,1.2-8.6,1.7-12.9l9.4-.3c0,1.2.5,4.6.6,6.3l.3,5c0,1.9.4,5.8.5,7.8l5.7-.9,5.7-1,6.3-.8c-1.1-9.3-2.6-20-3.7-28.3l-1.2-10.7Q98.7,207.8,98.2,202.9Zm-14.9,3.6c.2,3.5.4,6.8.7,9.9,0,1.2.1,2.5.2,3.8s.2,2.6.3,3.7-.2.1-.2,1,.1,1.4.2,1.8l-1.5.2H80.7l-2.3.2H76.8l3-20.6,1.2-7.8h1.6C82.8,201.3,83.1,203.9,83.3,206.5Z"/>
            <path d="M155.8,215.6c2.3-.1,3.8.2,5.6.1l5-.2,3.5-.2a42.1,42.1,0,0,0,.1-5v-5.1l-3.7.2h-4.9c-2,.1-3-.1-5.3.1.4-3.4.7-6.7,1.1-10.1H166l4.3-.2,3.1-.2c.1-.9.1-2.1.3-3.3s.2-2.5.4-3.6.4-2.8.7-4.1l-34.4,3-3.3,64.5-.3-.7c-.3-.9-.6-2-1-3.1l-.9-3.4-5.5.2c-2,0-4,.2-5.8.3,0-2.1.1-4.6.2-7.3s.3-5.6.5-8.5.5-5.9.8-9,.5-6,.9-8.9c.6-6.7,2.3-19.6,3.1-26.7l-18.9,2.5c-.6,8.3-2.1,22.4-2.5,30.4-.3,3.4-.4,6.9-.6,10.5s-.2,7.3-.4,10.9-.2,7.1-.2,10.4,0,6.4.1,9.1a41.8,41.8,0,0,1,6.3-1.5c2.4-.5,4.8-.8,7.3-1.1s5-.6,7.5-.7l7.1-.4h3.4c-.1-.3-.3-.7-.5-1.4s-.3-.8-.4-1.3l34.3-5.1c-.3-3.5-.5-6.9-.7-10.4l-15.6,2.3C155.5,231,155.6,223.3,155.8,215.6Z"/>
            <path d="M269.6,193.5a23.3,23.3,0,0,0-3.6-6.6,16.1,16.1,0,0,0-5.8-4.8,16.8,16.8,0,0,0-8.4-1.9,24.1,24.1,0,0,0-10.7,2.6,35.7,35.7,0,0,0-8.9,6.8,50.5,50.5,0,0,0-6.9,9.8,54,54,0,0,0-4.7,11.7,66.5,66.5,0,0,0-2.3,12.3,46.9,46.9,0,0,0,.3,11.9,29.8,29.8,0,0,0,1,4.7c-.8-1.2-1.5-2.5-2.2-3.7l-5.5-9.2-5.5-8.8a29.2,29.2,0,0,0,6.3-4.8,33.7,33.7,0,0,0,4.7-6.5,25.4,25.4,0,0,0,2.9-7.5,21.4,21.4,0,0,0,.3-8,21.8,21.8,0,0,0-1.4-4.9,12.1,12.1,0,0,0-2.8-3.9,11.3,11.3,0,0,0-4.7-2.6,23.8,23.8,0,0,0-7-.9,107.1,107.1,0,0,0-13.9,1.1,75.6,75.6,0,0,0-12.8,2.8c.1,3,.2,6.3.1,10s0,7.4-.1,11.3l-.3,11.8c-.2,4-.3,7.8-.4,11.5-.3,6.6-.7,15.5-1.3,26.5l16.2-6.6c.1-3.2.3-6.5.4-9.7s.5-3.4.7-6.4.2-5.4.3-7.6l1.3-.4c.2.7.6,1.7,1,2.9l1.7,4c.7,1.5,1.4,3,2.1,4.7s1.5,3.3,2.3,4.8c1.7,3.8,3.6,7.8,5.7,12.2l14.7-5.4a18.1,18.1,0,0,0,8.9,7.8,18.5,18.5,0,0,0,6.7,1.2,22.6,22.6,0,0,0,8.7-1.8,30.4,30.4,0,0,0,8.5-5.2,39.4,39.4,0,0,0,7.6-8.1,42,42,0,0,0,5.8-10.9,57.6,57.6,0,0,0,3.2-13.3,62.7,62.7,0,0,0-.4-15.5A41.9,41.9,0,0,0,269.6,193.5ZM198.8,208a12.3,12.3,0,0,1-4.7,1.7l.9-16.2h7.9a13.4,13.4,0,0,1,3,.5,4.5,4.5,0,0,1,2.2,1,2.5,2.5,0,0,1,1.1,1.7,5.5,5.5,0,0,1-1.4,3.8,29.9,29.9,0,0,1-3.9,4.2A28.3,28.3,0,0,1,198.8,208Zm58.6,10.7a33.9,33.9,0,0,1-2.5,9.6,20.6,20.6,0,0,1-5.2,7.7,11.5,11.5,0,0,1-8.2,3.1,5.8,5.8,0,0,1-2.6-.6,6.9,6.9,0,0,1-2.1-1.6,6.5,6.5,0,0,1-1.6-2.1,10.5,10.5,0,0,1-.8-2.3,46.7,46.7,0,0,1-.3-5.7,39.4,39.4,0,0,1,.8-6.7,59.8,59.8,0,0,1,2-6.9,24.6,24.6,0,0,1,3.2-6,16,16,0,0,1,4.7-4.3,11.7,11.7,0,0,1,6.2-1.6,5.6,5.6,0,0,1,3,.8,7.2,7.2,0,0,1,1.8,2.1,10.2,10.2,0,0,1,1.1,2.6c.2.9.4,1.8.5,2.6A36.1,36.1,0,0,1,257.4,218.7Z"/>
          </g>
          <g>
            <path d="M57.3,219.2c.4-3.8.8-7.5,1.3-11.1s1-7.1,1.4-10.4,1.3-4.4,1.9-7.2l-5.5.5-5.7.5-6,.4c-1.2,16.2-2.4,32.3-3.5,48.5h-2q-.2-2.5-.3-6c-.1-2.3-.3-4.9-.6-7.6s-.4-5.5-.6-8.4-.5-6.8-.7-11.5-1.1-12.8-1.6-20.1l-6,.6-5.4.4-5.7.2c.5,3,1.4,8.3,1.9,11.9s1,7.2,1.4,11,.9,7.7,1.3,11.6.7,7.6,1,11.1c.8,8.5,1.5,17.2,2.2,26l27.5-4.5c.8-8.6,1.6-17,2.5-25.2Q56.7,224.8,57.3,219.2Z"/>
            <path d="M98.2,202.9c-.4-3.3-1-8.4-1.3-11.2s-.4-5.3-.5-7.2c-4.8.9-9.6,1.5-14.6,2.1L67,188.1c-.4,2.7-.5,7.6-1.1,10.9s-1.2,6.6-1.8,10.1-1.3,7.1-1.9,10.6-1.2,7-1.8,10.2c-1.4,7.8-3.2,13.7-4.6,21.7l8.6-.9,5.9-.8c2.1-.2,2.3-.5,3.8-.7.6-4.3,1.2-8.6,1.7-12.9l9.4-.3c0,1.2.5,4.6.6,6.3l.3,5c0,1.9.4,5.8.5,7.8l5.7-.9,5.7-1,6.3-.8c-1.1-9.3-2.6-20-3.7-28.3l-1.2-10.7Q98.7,207.8,98.2,202.9Zm-14.9,3.6c.2,3.5.4,6.8.7,9.9,0,1.2.1,2.5.2,3.8s.2,2.6.3,3.7-.2.1-.2,1,.1,1.4.2,1.8l-1.5.2H80.7l-2.3.2H76.8l3-20.6,1.2-7.8h1.6C82.8,201.3,83.1,203.9,83.3,206.5Z"/>
            <path d="M155.8,215.6c2.3-.1,3.8.2,5.6.1l5-.2,3.5-.2a42.1,42.1,0,0,0,.1-5v-5.1l-3.7.2h-4.9c-2,.1-3-.1-5.3.1.4-3.4.7-6.7,1.1-10.1H166l4.3-.2,3.1-.2c.1-.9.1-2.1.3-3.3s.2-2.5.4-3.6.4-2.8.7-4.1l-34.4,3-3.3,64.5-.3-.7c-.3-.9-.6-2-1-3.1l-.9-3.4-5.5.2c-2,0-4,.2-5.8.3,0-2.1.1-4.6.2-7.3s.3-5.6.5-8.5.5-5.9.8-9,.5-6,.9-8.9c.6-6.7,2.3-19.6,3.1-26.7l-18.9,2.5c-.6,8.3-2.1,22.4-2.5,30.4-.3,3.4-.4,6.9-.6,10.5s-.2,7.3-.4,10.9-.2,7.1-.2,10.4,0,6.4.1,9.1a41.8,41.8,0,0,1,6.3-1.5c2.4-.5,4.8-.8,7.3-1.1s5-.6,7.5-.7l7.1-.4h3.4c-.1-.3-.3-.7-.5-1.4s-.3-.8-.4-1.3l34.3-5.1c-.3-3.5-.5-6.9-.7-10.4l-15.6,2.3C155.5,231,155.6,223.3,155.8,215.6Z"/>
            <path d="M269.6,193.5a23.3,23.3,0,0,0-3.6-6.6,16.1,16.1,0,0,0-5.8-4.8,16.8,16.8,0,0,0-8.4-1.9,24.1,24.1,0,0,0-10.7,2.6,35.7,35.7,0,0,0-8.9,6.8,50.5,50.5,0,0,0-6.9,9.8,54,54,0,0,0-4.7,11.7,66.5,66.5,0,0,0-2.3,12.3,46.9,46.9,0,0,0,.3,11.9,29.8,29.8,0,0,0,1,4.7c-.8-1.2-1.5-2.5-2.2-3.7l-5.5-9.2-5.5-8.8a29.2,29.2,0,0,0,6.3-4.8,33.7,33.7,0,0,0,4.7-6.5,25.4,25.4,0,0,0,2.9-7.5,21.4,21.4,0,0,0,.3-8,21.8,21.8,0,0,0-1.4-4.9,12.1,12.1,0,0,0-2.8-3.9,11.3,11.3,0,0,0-4.7-2.6,23.8,23.8,0,0,0-7-.9,107.1,107.1,0,0,0-13.9,1.1,75.6,75.6,0,0,0-12.8,2.8c.1,3,.2,6.3.1,10s0,7.4-.1,11.3l-.3,11.8c-.2,4-.3,7.8-.4,11.5-.3,6.6-.7,15.5-1.3,26.5l16.2-6.6c.1-3.2.3-6.5.4-9.7s.5-3.4.7-6.4.2-5.4.3-7.6l1.3-.4c.2.7.6,1.7,1,2.9l1.7,4c.7,1.5,1.4,3,2.1,4.7s1.5,3.3,2.3,4.8c1.7,3.8,3.6,7.8,5.7,12.2l14.7-5.4a18.1,18.1,0,0,0,8.9,7.8,18.5,18.5,0,0,0,6.7,1.2,22.6,22.6,0,0,0,8.7-1.8,30.4,30.4,0,0,0,8.5-5.2,39.4,39.4,0,0,0,7.6-8.1,42,42,0,0,0,5.8-10.9,57.6,57.6,0,0,0,3.2-13.3,62.7,62.7,0,0,0-.4-15.5A41.9,41.9,0,0,0,269.6,193.5ZM198.8,208a12.3,12.3,0,0,1-4.7,1.7l.9-16.2h7.9a13.4,13.4,0,0,1,3,.5,4.5,4.5,0,0,1,2.2,1,2.5,2.5,0,0,1,1.1,1.7,5.5,5.5,0,0,1-1.4,3.8,29.9,29.9,0,0,1-3.9,4.2A28.3,28.3,0,0,1,198.8,208Zm58.6,10.7a33.9,33.9,0,0,1-2.5,9.6,20.6,20.6,0,0,1-5.2,7.7,11.5,11.5,0,0,1-8.2,3.1,5.8,5.8,0,0,1-2.6-.6,6.9,6.9,0,0,1-2.1-1.6,6.5,6.5,0,0,1-1.6-2.1,10.5,10.5,0,0,1-.8-2.3,46.7,46.7,0,0,1-.3-5.7,39.4,39.4,0,0,1,.8-6.7,59.8,59.8,0,0,1,2-6.9,24.6,24.6,0,0,1,3.2-6,16,16,0,0,1,4.7-4.3,11.7,11.7,0,0,1,6.2-1.6,5.6,5.6,0,0,1,3,.8,7.2,7.2,0,0,1,1.8,2.1,10.2,10.2,0,0,1,1.1,2.6c.2.9.4,1.8.5,2.6A36.1,36.1,0,0,1,257.4,218.7Z"/>
          </g>
          <g>
            <path class="cls-3" d="M60.3,222.2c.4-3.8.8-7.5,1.3-11.1s1-7.1,1.4-10.4,1.3-4.4,1.9-7.2l-5.5.5-5.7.5-6,.4c-1.2,16.2-2.4,32.3-3.5,48.5h-2q-.2-2.5-.3-6c-.1-2.3-.3-4.9-.6-7.6s-.4-5.5-.6-8.4-.5-6.8-.7-11.5-1.1-12.8-1.6-20.1l-6,.6-5.4.4-5.7.2c.5,3,1.4,8.3,1.9,11.9s1,7.2,1.4,11,.9,7.7,1.3,11.6.7,7.6,1,11.1c.8,8.5,1.5,17.2,2.2,26l27.5-4.5c.8-8.6,1.6-17,2.5-25.2Q59.7,227.8,60.3,222.2Z"/>
            <path class="cls-3" d="M101.2,205.9c-.4-3.3-1-8.4-1.3-11.2s-.4-5.3-.5-7.2c-4.8.9-9.6,1.5-14.6,2.1L70,191.1c-.4,2.7-.5,7.6-1.1,10.9s-1.2,6.6-1.8,10.1-1.3,7.1-1.9,10.6-1.2,7-1.8,10.2c-1.4,7.8-3.2,13.7-4.6,21.7l8.6-.9,5.9-.8c2.1-.2,2.3-.5,3.8-.7.6-4.3,1.2-8.6,1.7-12.9l9.4-.3c0,1.2.5,4.6.6,6.3l.3,5c0,1.9.4,5.8.5,7.8l5.7-.9,5.7-1,6.3-.8c-1.1-9.3-2.6-20-3.7-28.3l-1.2-10.7Q101.7,210.8,101.2,205.9Zm-14.9,3.6c.2,3.5.4,6.8.7,9.9,0,1.2.1,2.5.2,3.8s.2,2.6.3,3.7-.2.1-.2,1,.1,1.4.2,1.8l-1.5.2H83.7l-2.3.2H79.8l3-20.6,1.2-7.8h1.6C85.8,204.3,86.1,206.9,86.3,209.5Z"/>
            <path class="cls-3" d="M158.8,218.6c2.3-.1,3.8.2,5.6.1l5-.2,3.5-.2a42.1,42.1,0,0,0,.1-5v-5.1l-3.7.2h-4.9c-2,.1-3-.1-5.3.1.4-3.4.7-6.7,1.1-10.1H169l4.3-.2,3.1-.2c.1-.9.1-2.1.3-3.3s.2-2.5.4-3.6.4-2.8.7-4.1l-34.4,3-3.3,64.5-.3-.7c-.3-.9-.6-2-1-3.1l-.9-3.4-5.5.2c-2,0-4,.2-5.8.3,0-2.1.1-4.6.2-7.3s.3-5.6.5-8.5.5-5.9.8-9,.5-6,.9-8.9c.6-6.7,2.3-19.6,3.1-26.7l-18.9,2.5c-.6,8.3-2.1,22.4-2.5,30.4-.3,3.4-.4,6.9-.6,10.5s-.2,7.3-.4,10.9-.2,7.1-.2,10.4,0,6.4.1,9.1a41.8,41.8,0,0,1,6.3-1.5c2.4-.5,4.8-.8,7.3-1.1s5-.6,7.5-.7l7.1-.4h3.4c-.1-.3-.3-.7-.5-1.4s-.3-.8-.4-1.3l34.3-5.1c-.3-3.5-.5-6.9-.7-10.4l-15.6,2.3C158.5,234,158.6,226.3,158.8,218.6Z"/>
            <path class="cls-3" d="M272.6,196.5a23.3,23.3,0,0,0-3.6-6.6,16.1,16.1,0,0,0-5.8-4.8,16.8,16.8,0,0,0-8.4-1.9,24.1,24.1,0,0,0-10.7,2.6,35.7,35.7,0,0,0-8.9,6.8,50.5,50.5,0,0,0-6.9,9.8,54,54,0,0,0-4.7,11.7,66.5,66.5,0,0,0-2.3,12.3,46.9,46.9,0,0,0,.3,11.9,29.8,29.8,0,0,0,1,4.7c-.8-1.2-1.5-2.5-2.2-3.7l-5.5-9.2-5.5-8.8a29.2,29.2,0,0,0,6.3-4.8,33.7,33.7,0,0,0,4.7-6.5,25.4,25.4,0,0,0,2.9-7.5,21.4,21.4,0,0,0,.3-8,21.8,21.8,0,0,0-1.4-4.9,12.1,12.1,0,0,0-2.8-3.9,11.3,11.3,0,0,0-4.7-2.6,23.8,23.8,0,0,0-7-.9,107.1,107.1,0,0,0-13.9,1.1,75.6,75.6,0,0,0-12.8,2.8c.1,3,.2,6.3.1,10s0,7.4-.1,11.3l-.3,11.8c-.2,4-.3,7.8-.4,11.5-.3,6.6-.7,15.5-1.3,26.5l16.2-6.6c.1-3.2.3-6.5.4-9.7s.5-3.4.7-6.4.2-5.4.3-7.6l1.3-.4c.2.7.6,1.7,1,2.9l1.7,4c.7,1.5,1.4,3,2.1,4.7s1.5,3.3,2.3,4.8c1.7,3.8,3.6,7.8,5.7,12.2l14.7-5.4a18.1,18.1,0,0,0,8.9,7.8,18.5,18.5,0,0,0,6.7,1.2,22.6,22.6,0,0,0,8.7-1.8,30.4,30.4,0,0,0,8.5-5.2,39.4,39.4,0,0,0,7.6-8.1,42,42,0,0,0,5.8-10.9,57.6,57.6,0,0,0,3.2-13.3,62.7,62.7,0,0,0-.4-15.5A41.9,41.9,0,0,0,272.6,196.5ZM201.8,211a12.3,12.3,0,0,1-4.7,1.7l.9-16.2h7.9a13.4,13.4,0,0,1,3,.5,4.5,4.5,0,0,1,2.2,1,2.5,2.5,0,0,1,1.1,1.7,5.5,5.5,0,0,1-1.4,3.8,29.9,29.9,0,0,1-3.9,4.2A28.3,28.3,0,0,1,201.8,211Zm58.6,10.7a33.9,33.9,0,0,1-2.5,9.6,20.6,20.6,0,0,1-5.2,7.7,11.5,11.5,0,0,1-8.2,3.1,5.8,5.8,0,0,1-2.6-.6,6.9,6.9,0,0,1-2.1-1.6,6.5,6.5,0,0,1-1.6-2.1,10.5,10.5,0,0,1-.8-2.3,46.7,46.7,0,0,1-.3-5.7,39.4,39.4,0,0,1,.8-6.7,59.8,59.8,0,0,1,2-6.9,24.6,24.6,0,0,1,3.2-6,16,16,0,0,1,4.7-4.3,11.7,11.7,0,0,1,6.2-1.6,5.6,5.6,0,0,1,3,.8,7.2,7.2,0,0,1,1.8,2.1,10.2,10.2,0,0,1,1.1,2.6c.2.9.4,1.8.5,2.6A36.1,36.1,0,0,1,260.4,221.7Z"/>
          </g>
          <g>
            <path class="cls-4" d="M57.3,219.2c.4-3.8.8-7.5,1.3-11.1s1-7.1,1.4-10.4,1.3-4.4,1.9-7.2l-5.5.5-5.7.5-6,.4c-1.2,16.2-2.4,32.3-3.5,48.5h-2q-.2-2.5-.3-6c-.1-2.3-.3-4.9-.6-7.6s-.4-5.5-.6-8.4-.5-6.8-.7-11.5-1.1-12.8-1.6-20.1l-6,.6-5.4.4-5.7.2c.5,3,1.4,8.3,1.9,11.9s1,7.2,1.4,11,.9,7.7,1.3,11.6.7,7.6,1,11.1c.8,8.5,1.5,17.2,2.2,26l27.5-4.5c.8-8.6,1.6-17,2.5-25.2Q56.7,224.8,57.3,219.2Z"/>
            <path class="cls-4" d="M98.2,202.9c-.4-3.3-1-8.4-1.3-11.2s-.4-5.3-.5-7.2c-4.8.9-9.6,1.5-14.6,2.1L67,188.1c-.4,2.7-.5,7.6-1.1,10.9s-1.2,6.6-1.8,10.1-1.3,7.1-1.9,10.6-1.2,7-1.8,10.2c-1.4,7.8-3.2,13.7-4.6,21.7l8.6-.9,5.9-.8c2.1-.2,2.3-.5,3.8-.7.6-4.3,1.2-8.6,1.7-12.9l9.4-.3c0,1.2.5,4.6.6,6.3l.3,5c0,1.9.4,5.8.5,7.8l5.7-.9,5.7-1,6.3-.8c-1.1-9.3-2.6-20-3.7-28.3l-1.2-10.7Q98.7,207.8,98.2,202.9Zm-14.9,3.6c.2,3.5.4,6.8.7,9.9,0,1.2.1,2.5.2,3.8s.2,2.6.3,3.7-.2.1-.2,1,.1,1.4.2,1.8l-1.5.2H80.7l-2.3.2H76.8l3-20.6,1.2-7.8h1.6C82.8,201.3,83.1,203.9,83.3,206.5Z"/>
            <path class="cls-4" d="M155.8,215.6c2.3-.1,3.8.2,5.6.1l5-.2,3.5-.2a42.1,42.1,0,0,0,.1-5v-5.1l-3.7.2h-4.9c-2,.1-3-.1-5.3.1.4-3.4.7-6.7,1.1-10.1H166l4.3-.2,3.1-.2c.1-.9.1-2.1.3-3.3s.2-2.5.4-3.6.4-2.8.7-4.1l-34.4,3-3.3,64.5-.3-.7c-.3-.9-.6-2-1-3.1l-.9-3.4-5.5.2c-2,0-4,.2-5.8.3,0-2.1.1-4.6.2-7.3s.3-5.6.5-8.5.5-5.9.8-9,.5-6,.9-8.9c.6-6.7,2.3-19.6,3.1-26.7l-18.9,2.5c-.6,8.3-2.1,22.4-2.5,30.4-.3,3.4-.4,6.9-.6,10.5s-.2,7.3-.4,10.9-.2,7.1-.2,10.4,0,6.4.1,9.1a41.8,41.8,0,0,1,6.3-1.5c2.4-.5,4.8-.8,7.3-1.1s5-.6,7.5-.7l7.1-.4h3.4c-.1-.3-.3-.7-.5-1.4s-.3-.8-.4-1.3l34.3-5.1c-.3-3.5-.5-6.9-.7-10.4l-15.6,2.3C155.5,231,155.6,223.3,155.8,215.6Z"/>
            <path class="cls-4" d="M269.6,193.5a23.3,23.3,0,0,0-3.6-6.6,16.1,16.1,0,0,0-5.8-4.8,16.8,16.8,0,0,0-8.4-1.9,24.1,24.1,0,0,0-10.7,2.6,35.7,35.7,0,0,0-8.9,6.8,50.5,50.5,0,0,0-6.9,9.8,54,54,0,0,0-4.7,11.7,66.5,66.5,0,0,0-2.3,12.3,46.9,46.9,0,0,0,.3,11.9,29.8,29.8,0,0,0,1,4.7c-.8-1.2-1.5-2.5-2.2-3.7l-5.5-9.2-5.5-8.8a29.2,29.2,0,0,0,6.3-4.8,33.7,33.7,0,0,0,4.7-6.5,25.4,25.4,0,0,0,2.9-7.5,21.4,21.4,0,0,0,.3-8,21.8,21.8,0,0,0-1.4-4.9,12.1,12.1,0,0,0-2.8-3.9,11.3,11.3,0,0,0-4.7-2.6,23.8,23.8,0,0,0-7-.9,107.1,107.1,0,0,0-13.9,1.1,75.6,75.6,0,0,0-12.8,2.8c.1,3,.2,6.3.1,10s0,7.4-.1,11.3l-.3,11.8c-.2,4-.3,7.8-.4,11.5-.3,6.6-.7,15.5-1.3,26.5l16.2-6.6c.1-3.2.3-6.5.4-9.7s.5-3.4.7-6.4.2-5.4.3-7.6l1.3-.4c.2.7.6,1.7,1,2.9l1.7,4c.7,1.5,1.4,3,2.1,4.7s1.5,3.3,2.3,4.8c1.7,3.8,3.6,7.8,5.7,12.2l14.7-5.4a18.1,18.1,0,0,0,8.9,7.8,18.5,18.5,0,0,0,6.7,1.2,22.6,22.6,0,0,0,8.7-1.8,30.4,30.4,0,0,0,8.5-5.2,39.4,39.4,0,0,0,7.6-8.1,42,42,0,0,0,5.8-10.9,57.6,57.6,0,0,0,3.2-13.3,62.7,62.7,0,0,0-.4-15.5A41.9,41.9,0,0,0,269.6,193.5ZM198.8,208a12.3,12.3,0,0,1-4.7,1.7l.9-16.2h7.9a13.4,13.4,0,0,1,3,.5,4.5,4.5,0,0,1,2.2,1,2.5,2.5,0,0,1,1.1,1.7,5.5,5.5,0,0,1-1.4,3.8,29.9,29.9,0,0,1-3.9,4.2A28.3,28.3,0,0,1,198.8,208Zm58.6,10.7a33.9,33.9,0,0,1-2.5,9.6,20.6,20.6,0,0,1-5.2,7.7,11.5,11.5,0,0,1-8.2,3.1,5.8,5.8,0,0,1-2.6-.6,6.9,6.9,0,0,1-2.1-1.6,6.5,6.5,0,0,1-1.6-2.1,10.5,10.5,0,0,1-.8-2.3,46.7,46.7,0,0,1-.3-5.7,39.4,39.4,0,0,1,.8-6.7,59.8,59.8,0,0,1,2-6.9,24.6,24.6,0,0,1,3.2-6,16,16,0,0,1,4.7-4.3,11.7,11.7,0,0,1,6.2-1.6,5.6,5.6,0,0,1,3,.8,7.2,7.2,0,0,1,1.8,2.1,10.2,10.2,0,0,1,1.1,2.6c.2.9.4,1.8.5,2.6A36.1,36.1,0,0,1,257.4,218.7Z"/>
          </g>
          <g>
            <path class="cls-5" d="M57.3,219.2c.4-3.8.8-7.5,1.3-11.1s1-7.1,1.4-10.4,1.3-4.4,1.9-7.2l-5.5.5-5.7.5-6,.4c-1.2,16.2-2.4,32.3-3.5,48.5h-2q-.2-2.5-.3-6c-.1-2.3-.3-4.9-.6-7.6s-.4-5.5-.6-8.4-.5-6.8-.7-11.5-1.1-12.8-1.6-20.1l-6,.6-5.4.4-5.7.2c.5,3,1.4,8.3,1.9,11.9s1,7.2,1.4,11,.9,7.7,1.3,11.6.7,7.6,1,11.1c.8,8.5,1.5,17.2,2.2,26l27.5-4.5c.8-8.6,1.6-17,2.5-25.2Q56.7,224.8,57.3,219.2Z"/>
            <path class="cls-5" d="M98.2,202.9c-.4-3.3-1-8.4-1.3-11.2s-.4-5.3-.5-7.2c-4.8.9-9.6,1.5-14.6,2.1L67,188.1c-.4,2.7-.5,7.6-1.1,10.9s-1.2,6.6-1.8,10.1-1.3,7.1-1.9,10.6-1.2,7-1.8,10.2c-1.4,7.8-3.2,13.7-4.6,21.7l8.6-.9,5.9-.8c2.1-.2,2.3-.5,3.8-.7.6-4.3,1.2-8.6,1.7-12.9l9.4-.3c0,1.2.5,4.6.6,6.3l.3,5c0,1.9.4,5.8.5,7.8l5.7-.9,5.7-1,6.3-.8c-1.1-9.3-2.6-20-3.7-28.3l-1.2-10.7Q98.7,207.8,98.2,202.9Zm-14.9,3.6c.2,3.5.4,6.8.7,9.9,0,1.2.1,2.5.2,3.8s.2,2.6.3,3.7-.2.1-.2,1,.1,1.4.2,1.8l-1.5.2H80.7l-2.3.2H76.8l3-20.6,1.2-7.8h1.6C82.8,201.3,83.1,203.9,83.3,206.5Z"/>
            <path class="cls-5" d="M155.8,215.6c2.3-.1,3.8.2,5.6.1l5-.2,3.5-.2a42.1,42.1,0,0,0,.1-5v-5.1l-3.7.2h-4.9c-2,.1-3-.1-5.3.1.4-3.4.7-6.7,1.1-10.1H166l4.3-.2,3.1-.2c.1-.9.1-2.1.3-3.3s.2-2.5.4-3.6.4-2.8.7-4.1l-34.4,3-3.3,64.5-.3-.7c-.3-.9-.6-2-1-3.1l-.9-3.4-5.5.2c-2,0-4,.2-5.8.3,0-2.1.1-4.6.2-7.3s.3-5.6.5-8.5.5-5.9.8-9,.5-6,.9-8.9c.6-6.7,2.3-19.6,3.1-26.7l-18.9,2.5c-.6,8.3-2.1,22.4-2.5,30.4-.3,3.4-.4,6.9-.6,10.5s-.2,7.3-.4,10.9-.2,7.1-.2,10.4,0,6.4.1,9.1a41.8,41.8,0,0,1,6.3-1.5c2.4-.5,4.8-.8,7.3-1.1s5-.6,7.5-.7l7.1-.4h3.4c-.1-.3-.3-.7-.5-1.4s-.3-.8-.4-1.3l34.3-5.1c-.3-3.5-.5-6.9-.7-10.4l-15.6,2.3C155.5,231,155.6,223.3,155.8,215.6Z"/>
            <path class="cls-5" d="M269.6,193.5a23.3,23.3,0,0,0-3.6-6.6,16.1,16.1,0,0,0-5.8-4.8,16.8,16.8,0,0,0-8.4-1.9,24.1,24.1,0,0,0-10.7,2.6,35.7,35.7,0,0,0-8.9,6.8,50.5,50.5,0,0,0-6.9,9.8,54,54,0,0,0-4.7,11.7,66.5,66.5,0,0,0-2.3,12.3,46.9,46.9,0,0,0,.3,11.9,29.8,29.8,0,0,0,1,4.7c-.8-1.2-1.5-2.5-2.2-3.7l-5.5-9.2-5.5-8.8a29.2,29.2,0,0,0,6.3-4.8,33.7,33.7,0,0,0,4.7-6.5,25.4,25.4,0,0,0,2.9-7.5,21.4,21.4,0,0,0,.3-8,21.8,21.8,0,0,0-1.4-4.9,12.1,12.1,0,0,0-2.8-3.9,11.3,11.3,0,0,0-4.7-2.6,23.8,23.8,0,0,0-7-.9,107.1,107.1,0,0,0-13.9,1.1,75.6,75.6,0,0,0-12.8,2.8c.1,3,.2,6.3.1,10s0,7.4-.1,11.3l-.3,11.8c-.2,4-.3,7.8-.4,11.5-.3,6.6-.7,15.5-1.3,26.5l16.2-6.6c.1-3.2.3-6.5.4-9.7s.5-3.4.7-6.4.2-5.4.3-7.6l1.3-.4c.2.7.6,1.7,1,2.9l1.7,4c.7,1.5,1.4,3,2.1,4.7s1.5,3.3,2.3,4.8c1.7,3.8,3.6,7.8,5.7,12.2l14.7-5.4a18.1,18.1,0,0,0,8.9,7.8,18.5,18.5,0,0,0,6.7,1.2,22.6,22.6,0,0,0,8.7-1.8,30.4,30.4,0,0,0,8.5-5.2,39.4,39.4,0,0,0,7.6-8.1,42,42,0,0,0,5.8-10.9,57.6,57.6,0,0,0,3.2-13.3,62.7,62.7,0,0,0-.4-15.5A41.9,41.9,0,0,0,269.6,193.5ZM198.8,208a12.3,12.3,0,0,1-4.7,1.7l.9-16.2h7.9a13.4,13.4,0,0,1,3,.5,4.5,4.5,0,0,1,2.2,1,2.5,2.5,0,0,1,1.1,1.7,5.5,5.5,0,0,1-1.4,3.8,29.9,29.9,0,0,1-3.9,4.2A28.3,28.3,0,0,1,198.8,208Zm58.6,10.7a33.9,33.9,0,0,1-2.5,9.6,20.6,20.6,0,0,1-5.2,7.7,11.5,11.5,0,0,1-8.2,3.1,5.8,5.8,0,0,1-2.6-.6,6.9,6.9,0,0,1-2.1-1.6,6.5,6.5,0,0,1-1.6-2.1,10.5,10.5,0,0,1-.8-2.3,46.7,46.7,0,0,1-.3-5.7,39.4,39.4,0,0,1,.8-6.7,59.8,59.8,0,0,1,2-6.9,24.6,24.6,0,0,1,3.2-6,16,16,0,0,1,4.7-4.3,11.7,11.7,0,0,1,6.2-1.6,5.6,5.6,0,0,1,3,.8,7.2,7.2,0,0,1,1.8,2.1,10.2,10.2,0,0,1,1.1,2.6c.2.9.4,1.8.5,2.6A36.1,36.1,0,0,1,257.4,218.7Z"/>
          </g>
        </g>
      </g>
    </g>
  </g>
</svg>
