<svg xmlns="http://www.w3.org/2000/svg" viewBox="0 0 199 64">
  <defs>
    <style>
      .cls-1 {
        fill: #b8c4c4;
        opacity: 0.75;
      }

      .cls-2 {
        fill: #fff;
      }

      .cls-3 {
        fill: #211915;
      }
    </style>
  </defs>
  <title>logRecurso 9</title>
  <g id="Capa_2" data-name="Capa 2">
    <g id="hero">
      <g>
        <g>
          <path class="cls-1" d="M76.5,64H67.1c-16.9-.1-34-.5-50.7-1.2-3.2-.2-8.9-1-11.9-5a8.2,8.2,0,0,1-1.4-6.4A91.1,91.1,0,0,0,4.5,35.9,82.4,82.4,0,0,0,2.4,17.5a8.4,8.4,0,0,1,1.4-6.7c3.6-5,11.4-5.4,13.7-5.5C52.9,5,88.8,4.4,124.3,3.7l59.5-1.3h.7c2.6,0,9.3.5,12.6,4.7a8,8,0,0,1,1.8,6.3c-1.1,8.3-1.9,16.8-2.4,25.1-.2,3.9-.4,7.8-.4,11.7-.2,5.6-5.4,9.5-13.7,10.1C147.2,62.7,111.6,64,76.5,64Z"/>
          <path d="M74.3,61.6H64.9c-16.9-.1-34-.5-50.8-1.2-3.1-.2-8.8-1-11.8-5A8.2,8.2,0,0,1,.9,49,91.1,91.1,0,0,0,2.3,33.5,82.4,82.4,0,0,0,.2,15.1,8.4,8.4,0,0,1,1.6,8.4C5.2,3.4,13,3,15.3,2.9,50.7,2.6,86.6,2,122,1.3L181.6,0h.6c2.7,0,9.3.5,12.7,4.7a8,8,0,0,1,1.8,6.3c-1.1,8.3-1.9,16.8-2.4,25.1-.2,3.8-.4,7.8-.5,11.7-.1,5.6-5.3,9.5-13.6,10.1-35.2,2.4-70.8,3.7-105.9,3.7Z"/>
          <path class="cls-2" d="M179.8,51.9c4.8-.4,8.4-2.2,8.5-4.3.1-3.9.3-7.9.5-11.9q.8-13.1,2.4-25.5c.3-2.4-4-4.3-9.5-4.2L122.1,7.3C86,8,50.4,8.6,15.4,8.9,9.6,9,5,11.2,5.6,13.7A88.3,88.3,0,0,1,7.8,33.5,87.6,87.6,0,0,1,6.3,50.1c-.4,2.2,3.1,4.1,8.1,4.3,15.8.6,32.7,1.1,50.5,1.2C107.5,55.8,146.2,54.2,179.8,51.9Z"/>
        </g>
        <g>
          <g>
            <path class="cls-3" d="M39.6,48.7a1.3,1.3,0,0,1-1.3-1.1A3.5,3.5,0,0,1,38,46c-.1-1.4-.2-2.9-.2-4.4-.4,1.2-1.1,1.4-1.6,1.4s-1.2-.6-1.5-1.4c0,1.1.1,2.1.1,3.2a3.4,3.4,0,0,1-.4,2,.8.8,0,0,1-.2.5h-.6A1.9,1.9,0,0,1,31.8,46a5,5,0,0,1-.4-2.3c-.1-1.1-.1-2.3-.2-3.4V36.9l-.9-16.3c-.1-1.2-.1-3-.2-5.4v-.4a15.9,15.9,0,0,1,1.3-1.3h.5a2.2,2.2,0,0,1,1.2,1.1l.5,1.6c.5,1.8,1.2,5.3,2.1,10.6a.4.4,0,0,0,.1.3c0-.6.1-1.2.1-1.7s.2-3.1.3-4.9.1-3.8.1-5.2v-.2a2.6,2.6,0,0,1,.4-1.4,1.6,1.6,0,0,1,1.4-.7,1.4,1.4,0,0,1,1.3.9,5.6,5.6,0,0,1,.4,1.2c.1,3.3.4,8.4.8,15,.2,3.3.4,6.5.5,9.7q.1,2.1.3,5.4a4.7,4.7,0,0,1-.3,2.1C40.8,48.3,40.3,48.7,39.6,48.7ZM36,35.8c0,.5.1,1,.1,1.5s.1-.9.1-1.5Zm1.9-9.6h.4c-.1-1.2-.1-2.4-.2-3.6-.1,1.1-.1,2.2-.2,3.2Zm-5.6-7v1.5a9.1,9.1,0,0,1,.1,1.7h.5C32.7,21.1,32.5,20.1,32.3,19.2Z"/>
            <path class="cls-3" d="M48.8,47.8c-2.7,0-3.1-1.6-3.1-2.3a1.8,1.8,0,0,1,1.5-2q-.2-3.4-.6-9.6c-.3-4.3-.5-7.6-.6-9.7V22a14.8,14.8,0,0,0-.1-2.1V18.7a2,2,0,0,1-1.3-2,2,2,0,0,1,.6-1.5,2.2,2.2,0,0,1,1.3-.8l2.1-.3a1.7,1.7,0,0,1,1.4.8,5.7,5.7,0,0,1,.4,1.4,5,5,0,0,1-.2,1.2,1.3,1.3,0,0,1-1.2.8c.1,3,.3,7,.7,12.1s.6,9.6.7,12.4v.6c.7.1,1.5.7,1.6,2.4v.6a6.9,6.9,0,0,1-1.1,1.3H48.8Zm-1.1-2.2a2.1,2.1,0,0,0,1.1.2H50c0-.2,0-.3-.1-.4h-.2l-1.2.2h0A1.1,1.1,0,0,1,47.7,45.6Zm-.1-29.4v.2h-.1Z"/>
            <path class="cls-3" d="M66.3,48.4a1.5,1.5,0,0,1-1.4-1,5.9,5.9,0,0,1-.2-1.4c-.1-2.3-.1-4.7-.1-7s-.1-6.1-.2-8a102.4,102.4,0,0,0-1-14.8v-.3c0-.1.1-.1.1-.2s1.3-1.6,1.8-1.6a3.7,3.7,0,0,1,2.4,1h0a7.1,7.1,0,0,1,1.5,2.2,14.5,14.5,0,0,1,1.2,5.9,21.2,21.2,0,0,1-.7,5.9A10.4,10.4,0,0,1,67.6,33c.1,2.1.1,4.1.2,6.1,0,.4.1,1.1.1,2.1s.1,3.3.1,4.5a3.1,3.1,0,0,1-.2,1.7A1.6,1.6,0,0,1,66.3,48.4Z"/>
            <path class="cls-3" d="M79.4,49.6a2.8,2.8,0,0,1-2-1.3A6.2,6.2,0,0,1,76.3,46a35,35,0,0,1-1.2-6.4c-.2-1.8-.4-4-.5-6.4s-.1-3-.1-4.5a25.4,25.4,0,0,0-.1-2.6c0-1.7,0-3.2.1-4.5a29.8,29.8,0,0,1,.4-4.2,5.3,5.3,0,0,1,1.4-2.9h.1a2.5,2.5,0,0,1,1.5-.5c.9,0,2.1.4,3,2.4A17.1,17.1,0,0,1,82.1,21a38.8,38.8,0,0,1,.5,5.7c.1,2,.2,3.9.2,5.6v5.2a25.4,25.4,0,0,0-.1,2.6v.3a20.1,20.1,0,0,0-.1,2.6,13.1,13.1,0,0,1-.3,2.7,8.5,8.5,0,0,1-.9,2.4A2.4,2.4,0,0,1,79.4,49.6Zm-.5-2.4H79c.1.2.3.3.3.4s.1-.1.3-.4Zm-.7-28.5v.2a22,22,0,0,0-.5,3.7c0,1.5-.1,2.9-.1,4.2v3.1c.1,1.9.2,4.2.5,6.9a49.5,49.5,0,0,0,1.1,7.5,13.9,13.9,0,0,0,.3-3c.1-1.4.2-2.9.2-4.5h0V34c0-1.3,0-2.6-.1-3.9s-.1-3.3-.3-5.6-.5-3.5-.8-4.9A4.6,4.6,0,0,0,78.2,18.7ZM77.7,16c-.1,0-.1.1-.2.2h1a.8.8,0,0,0-.6-.3Z"/>
            <path class="cls-3" d="M93,48.9c-1.2,0-1.7-1.4-1.9-1.8v-.5c-.1-1.3-.2-2.8-.4-4.5v4.3a5.2,5.2,0,0,1-.2,1.4,1.5,1.5,0,0,1-1.4.9,1.6,1.6,0,0,1-1.4-.8,2.8,2.8,0,0,1-.3-1.3V33.9c0-3.6-.1-7.7-.1-12.3,0-1.7,0-3.4-.1-5.2a2.1,2.1,0,0,1,.3-1.2,1.5,1.5,0,0,1,1.4-.6,2.7,2.7,0,0,1,1.7.6,4.1,4.1,0,0,1,1.2,1.4,9.4,9.4,0,0,1,1.1,3.9,13.4,13.4,0,0,1,.1,2.1V24a5.1,5.1,0,0,0-.1,1,11.5,11.5,0,0,1-.2,1.4,3.6,3.6,0,0,0-.2,1,22.5,22.5,0,0,0-.5,2.2,26,26,0,0,0,.3,3.6c.2,1.5.4,3,.6,4.2h0l.9,4.6c.2,1.3.5,2.6.7,3.9a6.6,6.6,0,0,1-.1,1.5A1.4,1.4,0,0,1,93,48.9ZM90,29.2l-.4.6h.3v-.3h0Z"/>
            <path class="cls-3" d="M101.1,48.8a1.6,1.6,0,0,1-1.5-1.3,4.8,4.8,0,0,1-.3-1.8c0-1,0-2.1.1-3.5s0-2.2.1-3.3-.1-3.1-.2-6.4-.2-5.6-.2-6.6V24.3a13.4,13.4,0,0,0,.1-2.1c0-1.3-.1-2.2-.1-2.7h-.5a1.7,1.7,0,0,1-1.4-.7,2.1,2.1,0,0,1-.4-1.4,2,2,0,0,1,1-1.7,10.9,10.9,0,0,1,3.4-.9h1.1a1.9,1.9,0,0,1,1.4.8,2.3,2.3,0,0,1,.4,1.4,2.3,2.3,0,0,1-.4,1.4,1.5,1.5,0,0,1-1.3.7h-.1c.1,1.5.1,2.9.1,4.1v5.4c0,1.3,0,2.9.1,4.8s.1,4,.1,4.9,0,2.3.1,3.7.1,2.8.1,3.8S102.7,48.8,101.1,48.8ZM100.2,17a3.2,3.2,0,0,0-1.3.4.1.1,0,0,0-.1.1h.3l.8-.2h.3Zm1.9,0h0v-.2h-.7l-1.1.2h1.8Z"/>
            <path class="cls-3" d="M113.6,48.4a1.8,1.8,0,0,1-1.4-.6,2.9,2.9,0,0,1-.3-1.4V41.3l-.5-.2h-.5c-.1.3-.1.7-.2,1.1a2.5,2.5,0,0,1-.1.8,8.5,8.5,0,0,1-.1,1.3q-.1,1-.3,1.8a3.3,3.3,0,0,1-.4,1.3,1.4,1.4,0,0,1-.2.7h-.7a1.8,1.8,0,0,1-2-1.7.3.3,0,0,1-.1-.2v-.3c.1-.1.3-.8.6-3.7s.5-5.1.8-7.7.7-6.7,1-9.3.7-4.8,1.1-6.5.9-3.7,2.1-3.7a1.6,1.6,0,0,1,1.5.7l.3.2v.4c-.1,1.1.1,3.8.3,8s.5,7.1.5,8.7a50,50,0,0,0,.2,6.3c.1,2.8.1,5.1.1,6.8S114,48.4,113.6,48.4Zm-1-9,.7.4a1.1,1.1,0,0,0-.1-.5h-.6Zm-1.3-2.1h.6c0-1-.1-2.2-.2-3.6v-.6C111.5,35,111.4,36.4,111.3,37.3Zm1-18.2c0,.3-.1.6-.1.9s.1-.2.1-.3Z"/>
            <path class="cls-3" d="M122.3,48.4c-1.7,0-1.6-2.5-1.6-3.7V29.2c-.1-8.8-.3-10.7-.3-11V18h0a3.6,3.6,0,0,1,.8-2.4l1-.7.9-.2h.7a1.9,1.9,0,0,1,1.6.7,2.3,2.3,0,0,1,.5,1.7,2.2,2.2,0,0,1-.5,1.4,1.6,1.6,0,0,1-1.3.6h-.2c0,1.4,0,3.1.1,5.2s.1,2.8.1,4.2h.4a1.4,1.4,0,0,1,1.3,1,2.8,2.8,0,0,1,.3,1.3,1.9,1.9,0,0,1-.7,1.6l-.3.2a1.5,1.5,0,0,1-.9.4h-.2c0,1.6.1,3.6.2,5.9s.1,5.4.1,6.9v.8a2.5,2.5,0,0,1-.5,1.5A1.7,1.7,0,0,1,122.3,48.4Zm.5-17.6h1l.2-.2h0v-.2l-.6.3Zm.3-14.2h-.3l-.2.2a1,1,0,0,0-.1.3,1.5,1.5,0,0,1,1-.3h.2v-.3h-.6Z"/>
            <path class="cls-3" d="M134.3,49.4a2.2,2.2,0,0,1-1.9-1.2,5.5,5.5,0,0,1-1-2.3,28.6,28.6,0,0,1-1-6.4c-.1-1.8-.2-3.9-.2-6.3s0-3,.1-4.5V26c0-1.7.1-3.2.2-4.5a27,27,0,0,1,.6-4.1,5.3,5.3,0,0,1,1.5-3h.1a2.5,2.5,0,0,1,1.5-.5c.9,0,2.1.3,2.9,2.3a16.2,16.2,0,0,1,1.1,4.7,54.4,54.4,0,0,1,.3,5.7c0,1.9,0,3.8-.1,5.6v2.4c0,.5-.1,1.4-.2,2.7s-.2,1.9-.2,2.6v.3a21.3,21.3,0,0,0-.2,2.7,8.2,8.2,0,0,1-.4,2.6,8.2,8.2,0,0,1-1,2.5A2.4,2.4,0,0,1,134.3,49.4ZM134,47h0l.4.3.2-.3Zm.3-28.4v.2a19.1,19.1,0,0,0-.6,3.7c-.1,1.4-.2,2.9-.2,4.2a5.7,5.7,0,0,0-.1,1.3v1.6c0,.1-.1.1-.1.2,0,1.8.1,4.1.2,6.8a42,42,0,0,0,.9,7.5,19.9,19.9,0,0,0,.4-3c.1-1.3.2-2.8.4-4.5h0c0-.7,0-1.6.1-2.8V30c0-1.5,0-3.4-.1-5.6a34.3,34.3,0,0,0-.6-5Zm-.4-2.7-.2.2a1.2,1.2,0,0,1,1,0,.7.7,0,0,0-.6-.3Z"/>
            <path class="cls-3" d="M144.6,48.5a1.5,1.5,0,0,1-1.3-.8,2.6,2.6,0,0,1-.4-1.5,4.5,4.5,0,0,1,.1-1.1,2,2,0,0,0,.1-.7c.1-2.5.1-7.3.2-14.3s0-10.8.1-14.4a5.6,5.6,0,0,1,.4-1.2,1.8,1.8,0,0,1,1.3-.6,1.7,1.7,0,0,1,1.4.8,2.9,2.9,0,0,1,.3,1.4c-.1,1.6-.1,4.2-.1,7.5s-.1,6.2-.1,7.6v1.5c-.1,2.4-.1,5.9-.3,10.9h1.3l.3.4a2.8,2.8,0,0,1,.7,1.9,2.4,2.4,0,0,1-.3,1.2,1.8,1.8,0,0,1-1.4,1h-1.1A1.7,1.7,0,0,1,144.6,48.5Zm1.3-2.5h.7c0-.1,0-.2-.1-.2h-1.6V46h1Z"/>
            <path class="cls-3" d="M154.9,47.8c-2.8,0-3-1.5-3-2.2s.9-2,1.6-2c.1-2.4.1-5.6.1-9.7s.1-7.5.2-9.7a15.5,15.5,0,0,1,.1-2.2,14.8,14.8,0,0,1,.1-2.1V18.7c-.5-.1-1.2-.5-1.1-1.9a2.1,2.1,0,0,1,.7-1.6,2.7,2.7,0,0,1,1.4-.8,5.4,5.4,0,0,1,2-.4,1.5,1.5,0,0,1,1.3.8,1.8,1.8,0,0,1,.4,1.3l-.3,1.2a1.6,1.6,0,0,1-1.3.9c-.1,3-.2,7-.1,12.1s-.1,9.6-.2,12.3v.6c.6.2,1.4.7,1.4,2.4,0,.2-.1.4-.1.6a13.4,13.4,0,0,0-1.1,1.4h-2.1Zm-1-2.2s.2.2,1,.2h1.2v-.2a1,1,0,0,0-.1-.3h-.2l-1.2.3h0Zm2-29.5v.3l.7-.2h-.7Z"/>
            <path class="cls-3" d="M166.4,48.7a2.3,2.3,0,0,1-1.9-1.1,9.1,9.1,0,0,1-1-2.4,30.4,30.4,0,0,1-.8-6.3c-.1-1.9-.1-4-.1-6.4s.1-3,.2-4.5a25.4,25.4,0,0,1,.1-2.6,31.3,31.3,0,0,1,.3-4.6,31.2,31.2,0,0,1,.6-4.1,6.5,6.5,0,0,1,1.6-3h.1L167,13c.9,0,2.1.4,2.9,2.3a21.7,21.7,0,0,1,1,4.7,54.7,54.7,0,0,1,.1,5.7c0,2-.1,3.9-.1,5.6s-.1,1.6-.2,2.4-.1,1.4-.2,2.8-.2,1.8-.2,2.6v.2A11.2,11.2,0,0,0,170,42a14.7,14.7,0,0,1-.4,2.7,8.8,8.8,0,0,1-1.1,2.4C167.8,48.4,167,48.7,166.4,48.7Zm-.3-2.4h0l.4.3.2-.3Zm1-28.5a.4.4,0,0,0-.1.3,19.3,19.3,0,0,0-.6,3.6c-.2,1.5-.3,2.9-.4,4.2a6.1,6.1,0,0,1-.1,1.4,9.7,9.7,0,0,1-.1,1.6v.2c0,1.8,0,4.1.1,6.8a37.6,37.6,0,0,0,.7,7.5c.2-.8.3-1.9.5-3s.2-2.9.4-4.5h0c0-.8.1-1.7.2-2.8s.1-2.6.1-3.9V23.6a33.7,33.7,0,0,0-.5-4.9A3.7,3.7,0,0,1,167.1,17.8Zm-.4-2.7-.2.3a1.6,1.6,0,0,1,1-.1.8.8,0,0,0-.6-.3Z"/>
          </g>
          <g>
            <path class="cls-2" d="M90,18.1c-.2-.4-.3-.6-.5-.6V28c.2-.4.5-.9.8-1.6s.2-2.4.4-3.6v-.6a14.9,14.9,0,0,0-.3-2.8A3.3,3.3,0,0,0,90,18.1Z"/>
            <path class="cls-2" d="M67.7,20.1c-.2-.4-.2-.6-.3-.6a3.8,3.8,0,0,0-.9-1.3l-.6-.9c0,1.5.1,3.7.3,6.7l.3,6.6a12.7,12.7,0,0,0,1.3-3.2,12.1,12.1,0,0,0,.3-3.9h0a21.8,21.8,0,0,0-.1-2.4Z"/>
            <path class="cls-3" d="M39.6,30.2l-.9-15a1.2,1.2,0,0,0-.2-.8c-.1-.2-.2-.3-.4-.3a.5.5,0,0,0-.5.3,1.2,1.2,0,0,0-.3.9v.2c0,1.4,0,3.1-.1,5.2s-.2,3.4-.3,4.9-.2,3.3-.4,5.3l-.3,3.4a7.1,7.1,0,0,0-.1,1.4c-.2-1.1-.4-2.1-.5-3.2s-.3-2.1-.6-3.7-.2-1.1-.3-1.8c-.9-5.3-1.6-8.8-2-10.5l-.5-1.4c-.2-.3-.3-.5-.5-.5l-.6.6c.1,2.4.2,4.2.2,5.4.2,2.8.3,5.5.4,8.2s.3,5.4.5,8.1c0,.8,0,1.9.1,3.4s0,2.3.1,3.4a5.3,5.3,0,0,0,.3,2c.2.4.4.6.8.6a2.1,2.1,0,0,0,.3-1.6L33.5,39a28.3,28.3,0,0,0-.2-2.9c-.2-4.2-.4-7.1-.5-8.6l-.2-5c.4,1.5.7,3.1,1,4.7s.8,4.5,1.1,6.1a42.6,42.6,0,0,1,.4,4.7c.1,2.7.5,4,1.1,4s.5-.3.7-1a11.5,11.5,0,0,0,.1-1.9c0-.2.1-.5.1-.8v-.2c0-1.6.2-3.7.4-6.2s.5-4.3.6-5.6v2.1c.2,3.3.3,6.2.5,8.8s.1,2.1.1,2.7l.3,6.2a3.7,3.7,0,0,0,.2,1.2c.1.3.2.4.4.4s.4-.2.6-.7a4.7,4.7,0,0,0,.2-1.7q-.1-3.3-.3-5.4C40,36.7,39.8,33.5,39.6,30.2Z"/>
            <path class="cls-3" d="M49.9,44.3h-.4a8.1,8.1,0,0,1-.1-1.6c-.1-2.7-.3-6.8-.7-12.3s-.7-9.3-.8-12.2a3.5,3.5,0,0,1,.1-.7l.4-.2h.4c.2.1.3-.1.4-.3a1.1,1.1,0,0,0,.1-.8,1.2,1.2,0,0,0-.2-.8.5.5,0,0,0-.5-.3l-1.7.2a1.5,1.5,0,0,0-.9.6.9.9,0,0,0-.4.8c.1.7.3,1,.6,1a.7.7,0,0,0,.6-.1c.1.6.1,1.4.2,2.3V22a17,17,0,0,0,.1,2.2c0,2.2.2,5.4.5,9.7s.5,7.3.6,9.7v.8l-.3.2c-.1,0-.2,0-.2-.1h-.3c-.5,0-.7.3-.7,1s.7,1.3,2.1,1.3h1.6L51,46v-.2C51,44.8,50.6,44.3,49.9,44.3Z"/>
            <path class="cls-3" d="M67,15.8a2.6,2.6,0,0,0-1.6-.7c-.4,0-.7.3-.9,1a143.5,143.5,0,0,1,1,15c0,1.8,0,4.5.1,7.9s0,4.7.1,7a3,3,0,0,0,.2,1c.1.3.2.4.4.4a.5.5,0,0,0,.6-.4,2.7,2.7,0,0,0,.1-1.3c0-1.2,0-2.7-.1-4.6s-.1-1.5-.1-2-.1-1.5-.1-2.2V32.6a9.2,9.2,0,0,0,2.1-3.8,19.1,19.1,0,0,0,.7-5.6,15.8,15.8,0,0,0-1.1-5.5A5.3,5.3,0,0,0,67,15.8Zm1.1,7.7a12.1,12.1,0,0,1-.3,3.9,12.7,12.7,0,0,1-1.3,3.2L66.2,24c-.2-3-.3-5.2-.3-6.7l.6.9a3.8,3.8,0,0,1,.9,1.3c.1,0,.1.2.3.6l.3,1a21.8,21.8,0,0,1,.1,2.4Z"/>
            <path class="cls-3" d="M81.1,21.1A18.9,18.9,0,0,0,80,16.7q-.9-1.8-2.1-1.8a1.6,1.6,0,0,0-.9.3,5.4,5.4,0,0,0-1.1,2.4,28.5,28.5,0,0,0-.4,4c-.1,1.3-.1,2.8-.1,4.5a25.4,25.4,0,0,1,.1,2.6,17.7,17.7,0,0,0,.1,2.3v2.2c.1,2.4.3,4.5.5,6.3a33.5,33.5,0,0,0,1.1,6.2,6.9,6.9,0,0,0,1,2.1,1.6,1.6,0,0,0,1.2.8c.4,0,.8-.4,1.1-1a6.3,6.3,0,0,0,.8-2.2,9.9,9.9,0,0,0,.3-2.4,23.5,23.5,0,0,1,.1-2.8h0V37.4c.1-1.3.1-2.2.1-2.7V32.3c0-1.7-.1-3.6-.2-5.6A37.5,37.5,0,0,0,81.1,21.1Zm-.4,15.7c0,1.7-.1,3.2-.2,4.5a26.8,26.8,0,0,1-.3,3.4c-.2,1-.5,1.5-.8,1.5s-.7-.5-1.1-1.4a41.4,41.4,0,0,1-1.2-8c-.3-2.7-.4-5-.5-6.9V26.8c0-1.4.1-2.8.1-4.3a23.2,23.2,0,0,1,.5-3.8c.1-1,.4-1.6.8-1.6a.9.9,0,0,1,.8.6,5.4,5.4,0,0,1,.7,1.7,50.2,50.2,0,0,1,.8,5.1c.2,2.3.3,4.1.3,5.6s.1,2.6.1,3.9Z"/>
            <path class="cls-3" d="M91.9,37.6c-.2-1.3-.4-2.7-.6-4.3s-.3-2.8-.4-3.8l.3-1.1.3-1.2.2-1a10.5,10.5,0,0,0,.2-1.3,5.1,5.1,0,0,1,.1-1V22.5a11.5,11.5,0,0,0-.1-1.9,9,9,0,0,0-1-3.5A2,2,0,0,0,90,16a1.5,1.5,0,0,0-1.1-.4c-.3,0-.4,0-.5.2s-.1.3-.1.6v5.2c0,4.6.1,8.7.1,12.3V46.6a1.9,1.9,0,0,0,.2.8.5.5,0,0,0,.4.3.6.6,0,0,0,.6-.3c0-.2.1-.5.1-1-.1-5.5-.1-11-.1-16.5.2,1.5.5,3.3.9,5.2s.8,4.8,1.1,6.6a47.9,47.9,0,0,1,.5,4.9v.2c.3.7.6,1.1.9,1.1s.4-.2.5-.7V46h0c-.2-1.2-.5-2.4-.7-3.7S92.1,38.5,91.9,37.6ZM90.7,22.8c-.2,1.2-.3,2.4-.4,3.6s-.6,1.2-.8,1.6V17.5c.2,0,.3.2.5.6a3.3,3.3,0,0,1,.4,1.3,14.9,14.9,0,0,1,.3,2.8Z"/>
            <path class="cls-3" d="M102.3,15.7h-1a10.1,10.1,0,0,0-2.9.7,1.2,1.2,0,0,0-.6.9,1.1,1.1,0,0,0,.3.8.5.5,0,0,0,.5.3h.7l.6-.2a15.5,15.5,0,0,1,.3,3.9v3.2a1.1,1.1,0,0,0-.1.5c0,1,.1,3.1.2,6.5s.2,5.6.2,6.6v3.3c-.1,1.3-.1,2.5-.1,3.4a6.1,6.1,0,0,0,.2,1.5q.1.6.6.6c.4,0,.7-.7.7-2.1s-.1-2.3-.1-3.8-.1-2.7-.1-3.7-.1-2.5-.2-4.9V23.1c0-1.5-.1-3.2-.2-5.1h1.2c.2,0,.3-.1.5-.3a1.7,1.7,0,0,0,0-1.6A.7.7,0,0,0,102.3,15.7Z"/>
            <path class="cls-3" d="M114,32.9a84.1,84.1,0,0,0-.4-8.6c-.2-4.3-.4-7-.4-8.1a.8.8,0,0,0-.7-.3c-.4,0-.8.9-1.1,2.9s-.7,3.9-1.1,6.4-.6,5.7-1,9.3-.5,5.2-.8,7.7-.5,3.5-.6,4,.4.8,1,.8l.3-1.1q.1-.7.3-1.8a8.5,8.5,0,0,0,.1-1.3,2.5,2.5,0,0,0,.1-.8,10.9,10.9,0,0,1,.4-2.2l1.7.4a2.3,2.3,0,0,1,1.1.7v5.5a1.1,1.1,0,0,0,.2.8c.1.2.3.2.5.2s.8-.4.8-1.4,0-3.9-.1-6.7S114,34.4,114,32.9Zm-1.6,5.5a4.1,4.1,0,0,1-2.1-.5c0-.8.2-2.5.4-5.1s.6-5,.9-7.2a16.1,16.1,0,0,1,.7-3.8v.3c-.1,1.4.1,5.3.4,11.6.1,1.9.2,3.4.2,4.6Z"/>
            <path class="cls-3" d="M124.3,29.1l-.7.2-.6.3c0-1.8-.1-3.6-.1-5.6s-.1-4.2-.1-5.7.2-.5.7-.5h.6c.2,0,.3-.1.4-.3s.2-.3.3-.7a1.6,1.6,0,0,0-.3-1.1c-.1-.2-.4-.3-.8-.3h-1.2a.9.9,0,0,0-.6.4,3,3,0,0,0-.6,1.8c.2.4.3,4.1.4,11.3V44.7c0,1.8.2,2.7.7,2.7a.5.5,0,0,0,.5-.3,1.2,1.2,0,0,0,.3-.9.7.7,0,0,0-.1-.5h.1v-.2c0-1.5,0-3.8-.1-6.8s-.2-5.2-.2-6.8h.3l.7-.2.5-.2c.1-.1.2-.1.2-.2s.4-.4.4-.8a2.9,2.9,0,0,0-.2-.9A.5.5,0,0,0,124.3,29.1Z"/>
            <path class="cls-3" d="M137.2,20.9a18.9,18.9,0,0,0-1-4.4c-.5-1.2-1.2-1.7-2-1.7a1.6,1.6,0,0,0-.9.3,5.3,5.3,0,0,0-1.2,2.5,25.7,25.7,0,0,0-.6,4c-.1,1.2-.2,2.7-.2,4.4v2.6c0,.8-.1,1.6-.1,2.3v2.2c0,2.4.1,4.5.2,6.3a34.7,34.7,0,0,0,.9,6.2,10.9,10.9,0,0,0,.9,2.1,1.3,1.3,0,0,0,1.2.7c.4,0,.8-.3,1.2-1a9.1,9.1,0,0,0,.9-2.2,9.9,9.9,0,0,0,.3-2.4A21.6,21.6,0,0,1,137,40v-.2c0-.7.1-1.6.2-2.6s.2-2.2.2-2.7V32.1c.1-1.7.1-3.6.1-5.6A54,54,0,0,0,137.2,20.9Zm-1,15.7c-.2,1.7-.3,3.2-.4,4.5a22.7,22.7,0,0,1-.5,3.4c-.2,1.1-.5,1.6-.8,1.6s-.7-.5-1-1.5a35.4,35.4,0,0,1-1-7.9c-.1-2.7-.2-5-.2-6.9v-.2a9.7,9.7,0,0,0,.1-1.6,5.7,5.7,0,0,1,.1-1.3c0-1.4.1-2.8.2-4.3a23.2,23.2,0,0,1,.6-3.8c.2-1.1.5-1.6.9-1.6a.9.9,0,0,1,.8.6,9.1,9.1,0,0,1,.6,1.6,35.8,35.8,0,0,1,.6,5.1c.1,2.3.1,4.1.1,5.7v3.8C136.2,35,136.2,35.9,136.2,36.6Z"/>
            <path class="cls-3" d="M145.3,44.7V43.6c.2-4.8.2-8.5.3-10.9V31.2c0-1.3.1-3.9.1-7.6s0-5.8.1-7.5a2.4,2.4,0,0,0-.2-.9c-.2-.2-.3-.3-.5-.3l-.5.2a1.3,1.3,0,0,0-.1.6c-.1,3.5-.2,8.3-.2,14.3s-.1,11.9-.2,14.4a3.4,3.4,0,0,1-.1.9,2.8,2.8,0,0,0-.1.9,2.4,2.4,0,0,0,.2.9.7.7,0,0,0,.6.4.6.6,0,0,0,.6-.5H147c.1,0,.3-.1.4-.4a1.9,1.9,0,0,0,.2-.8,2.7,2.7,0,0,0-.5-1.3Z"/>
            <path class="cls-3" d="M156.2,44.2h-.5c0-.5.1-1,.1-1.6.1-2.7.1-6.8.2-12.2s0-9.3.1-12.3c0-.3,0-.6.1-.7l.4-.2h.2a.1.1,0,0,0,.2,0c.2,0,.3-.1.4-.3a1.1,1.1,0,0,0,.2-.8,1.9,1.9,0,0,0-.1-.8c-.2-.2-.3-.3-.5-.3l-1.8.3a1.5,1.5,0,0,0-.9.6,1,1,0,0,0-.4.9c0,.7.1,1,.5,1l.6-.2v2.3a14.8,14.8,0,0,0-.1,2.1,15.5,15.5,0,0,0-.1,2.2c-.1,2.2-.1,5.4-.2,9.7s0,7.3-.1,9.7a1.7,1.7,0,0,1-.1.8c0,.1-.1.2-.3.2h-.5c-.5.1-.7.4-.7,1.1s.6,1.2,2,1.2h1.6l.7-.7v-.3C157.2,44.7,156.9,44.2,156.2,44.2Z"/>
            <path class="cls-3" d="M170,25.7a35.8,35.8,0,0,0-.2-5.6,14.9,14.9,0,0,0-.9-4.4c-.4-1.1-1.1-1.7-1.9-1.7l-.9.4a5.3,5.3,0,0,0-1.3,2.5,25.7,25.7,0,0,0-.6,4,28.5,28.5,0,0,0-.3,4.4c-.1,1.1-.1,1.9-.1,2.7a16.2,16.2,0,0,0-.1,2.2c0,.8-.1,1.5-.1,2.3,0,2.3,0,4.4.1,6.2a28.4,28.4,0,0,0,.8,6.2,7.1,7.1,0,0,0,.8,2.1,1.3,1.3,0,0,0,1.1.7c.5,0,.9-.4,1.3-1.1a6.7,6.7,0,0,0,.9-2.1A11.8,11.8,0,0,0,169,42a10.6,10.6,0,0,1,.3-2.7v-.2c0-.7.1-1.6.2-2.7s.2-2.2.2-2.7.1-1.5.2-2.3S170,27.7,170,25.7Zm-1.5,10.2c-.2,1.7-.3,3.2-.4,4.5s-.4,2.5-.6,3.4-.6,1.6-.9,1.6-.7-.5-1-1.5a40.8,40.8,0,0,1-.7-7.9c-.1-2.7-.2-5-.1-6.9v-.2a9.2,9.2,0,0,0,.1-1.5A7.1,7.1,0,0,0,165,26c.1-1.4.2-2.8.4-4.3a21.6,21.6,0,0,1,.6-3.8c.3-1.1.6-1.6,1-1.6s.5.1.7.5a3.8,3.8,0,0,1,.6,1.6,36.7,36.7,0,0,1,.5,5.1c0,2.3.1,4.2,0,5.7s-.1,2.6-.1,3.9S168.6,35.2,168.5,35.9Z"/>
          </g>
        </g>
      </g>
    </g>
  </g>
</svg>
