<svg xmlns="http://www.w3.org/2000/svg" viewBox="0 0 24 26.8">
  <defs>
    <style>
      .cls-1,.cls-2 {
        fill: #ffffff;
      }
    </style>
  </defs>
  <title>xxRecurso 10</title>
  <g id="Capa_2" data-name="Capa 2">
    <g id="hero">
      <g>
        <g>
          <g>
            <path class="cls-1" d="M16.6,11.5c-.6-.6-.4-1-.2-1.5l3.2-6.3c.3-.6.2-.7-.4-.9a17.7,17.7,0,0,1-3.7-1.2c-.7-.4-1-.2-1.2.6a14.6,14.6,0,0,0-.5,2,21.2,21.2,0,0,1-1.2,4.1c-.4.8-.9.6-1.4.3S9.1,7.1,8.1,6.2L4.9,3.3c-.5-.6-.9-.6-1.4.2s-1.1,2-1.7,3-.2.5.2.9a52.9,52.9,0,0,0,5.9,4.7.9.9,0,0,1,.4,1.1A6.5,6.5,0,0,1,7,15.5a52.5,52.5,0,0,0-3.8,5.8c-.3.5-.3.6.2,1a19.7,19.7,0,0,1,4.2,2.9c1.3-2.8,3.3-5.2,4.4-8.1.4-1,.7-1,1.4-.4s2.6,2.7,4,3.9.6.3.9,0,3-2.8,4.4-4.3l-.6-.5A54.6,54.6,0,0,1,16.6,11.5Z"/>
            <path class="cls-1" d="M22.9,14.9,18,11.3c-.3-.2-.5-.4-.3-.8,1.3-2.4,2.3-5,3.8-7.3a.6.6,0,0,0-.3-1.1,47.5,47.5,0,0,1-6.4-2,1,1,0,0,0-1.5.8l-.6,1.9-.9,3.9c-.1.5-.3.5-.7.2L8.7,5C7.3,3.8,6.1,2.3,4.4,1.5s-1-.3-1.4.3S1.3,4.9.3,6.5.2,7.6.7,8.1a40.9,40.9,0,0,0,5.6,4.5c.8.5.6.9.2,1.5a59.5,59.5,0,0,0-4.3,6.4c-.7,1.3-.7,1.9.5,2.8l4.6,3.2c.6.5,1.1.3,1.4-.4a22.9,22.9,0,0,1,1.4-2.7A30.9,30.9,0,0,0,13,18c1.4,1.5,2.7,2.8,4.1,4.1s.8.5,1.3.1a33.9,33.9,0,0,0,5.1-4.9C24.4,16.2,24.1,15.7,22.9,14.9Zm-4.6,5.7c-.3.3-.5.3-.9,0s-2.6-2.7-4-3.9-1-.6-1.4.4c-1.1,2.9-3.1,5.3-4.4,8.1a19.7,19.7,0,0,0-4.2-2.9c-.5-.4-.5-.5-.2-1A52.5,52.5,0,0,1,7,15.5a6.5,6.5,0,0,0,1.3-2.3.9.9,0,0,0-.4-1.1A52.9,52.9,0,0,1,2,7.4c-.4-.4-.5-.5-.2-.9s1.2-2,1.7-3,.9-.8,1.4-.2L8.1,6.2c1,.9,2.1,1.6,3.1,2.4s1,.5,1.4-.3a21.2,21.2,0,0,0,1.2-4.1,14.6,14.6,0,0,1,.5-2c.2-.8.5-1,1.2-.6a17.7,17.7,0,0,0,3.7,1.2c.6.2.7.3.4.9L16.4,10c-.2.5-.4.9.2,1.5a54.6,54.6,0,0,0,5.5,4.3l.6.5C21.3,17.8,19.8,19.2,18.3,20.6Z"/>
          </g>
          <g>
            <path class="cls-2" d="M16.6,11.5c-.6-.6-.4-1-.2-1.5l3.2-6.3c.3-.6.2-.7-.4-.9a17.7,17.7,0,0,1-3.7-1.2c-.7-.4-1-.2-1.2.6a14.6,14.6,0,0,0-.5,2,21.2,21.2,0,0,1-1.2,4.1c-.4.8-.9.6-1.4.3S9.1,7.1,8.1,6.2L4.9,3.3c-.5-.6-.9-.6-1.4.2s-1.1,2-1.7,3-.2.5.2.9a52.9,52.9,0,0,0,5.9,4.7.9.9,0,0,1,.4,1.1A6.5,6.5,0,0,1,7,15.5a52.5,52.5,0,0,0-3.8,5.8c-.3.5-.3.6.2,1a19.7,19.7,0,0,1,4.2,2.9c1.3-2.8,3.3-5.2,4.4-8.1.4-1,.7-1,1.4-.4s2.6,2.7,4,3.9.6.3.9,0,3-2.8,4.4-4.3l-.6-.5A54.6,54.6,0,0,1,16.6,11.5Z"/>
            <path class="cls-2" d="M22.9,14.9,18,11.3c-.3-.2-.5-.4-.3-.8,1.3-2.4,2.3-5,3.8-7.3a.6.6,0,0,0-.3-1.1,47.5,47.5,0,0,1-6.4-2,1,1,0,0,0-1.5.8l-.6,1.9-.9,3.9c-.1.5-.3.5-.7.2L8.7,5C7.3,3.8,6.1,2.3,4.4,1.5s-1-.3-1.4.3S1.3,4.9.3,6.5.2,7.6.7,8.1a40.9,40.9,0,0,0,5.6,4.5c.8.5.6.9.2,1.5a59.5,59.5,0,0,0-4.3,6.4c-.7,1.3-.7,1.9.5,2.8l4.6,3.2c.6.5,1.1.3,1.4-.4a22.9,22.9,0,0,1,1.4-2.7A30.9,30.9,0,0,0,13,18c1.4,1.5,2.7,2.8,4.1,4.1s.8.5,1.3.1a33.9,33.9,0,0,0,5.1-4.9C24.4,16.2,24.1,15.7,22.9,14.9Zm-4.6,5.7c-.3.3-.5.3-.9,0s-2.6-2.7-4-3.9-1-.6-1.4.4c-1.1,2.9-3.1,5.3-4.4,8.1a19.7,19.7,0,0,0-4.2-2.9c-.5-.4-.5-.5-.2-1A52.5,52.5,0,0,1,7,15.5a6.5,6.5,0,0,0,1.3-2.3.9.9,0,0,0-.4-1.1A52.9,52.9,0,0,1,2,7.4c-.4-.4-.5-.5-.2-.9s1.2-2,1.7-3,.9-.8,1.4-.2L8.1,6.2c1,.9,2.1,1.6,3.1,2.4s1,.5,1.4-.3a21.2,21.2,0,0,0,1.2-4.1,14.6,14.6,0,0,1,.5-2c.2-.8.5-1,1.2-.6a17.7,17.7,0,0,0,3.7,1.2c.6.2.7.3.4.9L16.4,10c-.2.5-.4.9.2,1.5a54.6,54.6,0,0,0,5.5,4.3l.6.5C21.3,17.8,19.8,19.2,18.3,20.6Z"/>
          </g>
        </g>
        <g>
          <g>
            <path d="M16.6,11.5c-.6-.6-.4-1-.2-1.5l3.2-6.3c.3-.6.2-.7-.4-.9a17.7,17.7,0,0,1-3.7-1.2c-.7-.4-1-.2-1.2.6a14.6,14.6,0,0,0-.5,2,21.2,21.2,0,0,1-1.2,4.1c-.4.8-.9.6-1.4.3S9.1,7.1,8.1,6.2L4.9,3.3c-.5-.6-.9-.6-1.4.2s-1.1,2-1.7,3-.2.5.2.9a52.9,52.9,0,0,0,5.9,4.7.9.9,0,0,1,.4,1.1A6.5,6.5,0,0,1,7,15.5a52.5,52.5,0,0,0-3.8,5.8c-.3.5-.3.6.2,1a19.7,19.7,0,0,1,4.2,2.9c1.3-2.8,3.3-5.2,4.4-8.1.4-1,.7-1,1.4-.4s2.6,2.7,4,3.9.6.3.9,0,3-2.8,4.4-4.3l-.6-.5A54.6,54.6,0,0,1,16.6,11.5Z"/>
            <path d="M22.9,14.9,18,11.3c-.3-.2-.5-.4-.3-.8,1.3-2.4,2.3-5,3.8-7.3a.6.6,0,0,0-.3-1.1,47.5,47.5,0,0,1-6.4-2,1,1,0,0,0-1.5.8l-.6,1.9-.9,3.9c-.1.5-.3.5-.7.2L8.7,5C7.3,3.8,6.1,2.3,4.4,1.5s-1-.3-1.4.3S1.3,4.9.3,6.5.2,7.6.7,8.1a40.9,40.9,0,0,0,5.6,4.5c.8.5.6.9.2,1.5a59.5,59.5,0,0,0-4.3,6.4c-.7,1.3-.7,1.9.5,2.8l4.6,3.2c.6.5,1.1.3,1.4-.4a22.9,22.9,0,0,1,1.4-2.7A30.9,30.9,0,0,0,13,18c1.4,1.5,2.7,2.8,4.1,4.1s.8.5,1.3.1a33.9,33.9,0,0,0,5.1-4.9C24.4,16.2,24.1,15.7,22.9,14.9Zm-4.6,5.7c-.3.3-.5.3-.9,0s-2.6-2.7-4-3.9-1-.6-1.4.4c-1.1,2.9-3.1,5.3-4.4,8.1a19.7,19.7,0,0,0-4.2-2.9c-.5-.4-.5-.5-.2-1A52.5,52.5,0,0,1,7,15.5a6.5,6.5,0,0,0,1.3-2.3.9.9,0,0,0-.4-1.1A52.9,52.9,0,0,1,2,7.4c-.4-.4-.5-.5-.2-.9s1.2-2,1.7-3,.9-.8,1.4-.2L8.1,6.2c1,.9,2.1,1.6,3.1,2.4s1,.5,1.4-.3a21.2,21.2,0,0,0,1.2-4.1,14.6,14.6,0,0,1,.5-2c.2-.8.5-1,1.2-.6a17.7,17.7,0,0,0,3.7,1.2c.6.2.7.3.4.9L16.4,10c-.2.5-.4.9.2,1.5a54.6,54.6,0,0,0,5.5,4.3l.6.5C21.3,17.8,19.8,19.2,18.3,20.6Z"/>
          </g>
          <g>
            <path d="M16.6,11.5c-.6-.6-.4-1-.2-1.5l3.2-6.3c.3-.6.2-.7-.4-.9a17.7,17.7,0,0,1-3.7-1.2c-.7-.4-1-.2-1.2.6a14.6,14.6,0,0,0-.5,2,21.2,21.2,0,0,1-1.2,4.1c-.4.8-.9.6-1.4.3S9.1,7.1,8.1,6.2L4.9,3.3c-.5-.6-.9-.6-1.4.2s-1.1,2-1.7,3-.2.5.2.9a52.9,52.9,0,0,0,5.9,4.7.9.9,0,0,1,.4,1.1A6.5,6.5,0,0,1,7,15.5a52.5,52.5,0,0,0-3.8,5.8c-.3.5-.3.6.2,1a19.7,19.7,0,0,1,4.2,2.9c1.3-2.8,3.3-5.2,4.4-8.1.4-1,.7-1,1.4-.4s2.6,2.7,4,3.9.6.3.9,0,3-2.8,4.4-4.3l-.6-.5A54.6,54.6,0,0,1,16.6,11.5Z"/>
            <path d="M22.9,14.9,18,11.3c-.3-.2-.5-.4-.3-.8,1.3-2.4,2.3-5,3.8-7.3a.6.6,0,0,0-.3-1.1,47.5,47.5,0,0,1-6.4-2,1,1,0,0,0-1.5.8l-.6,1.9-.9,3.9c-.1.5-.3.5-.7.2L8.7,5C7.3,3.8,6.1,2.3,4.4,1.5s-1-.3-1.4.3S1.3,4.9.3,6.5.2,7.6.7,8.1a40.9,40.9,0,0,0,5.6,4.5c.8.5.6.9.2,1.5a59.5,59.5,0,0,0-4.3,6.4c-.7,1.3-.7,1.9.5,2.8l4.6,3.2c.6.5,1.1.3,1.4-.4a22.9,22.9,0,0,1,1.4-2.7A30.9,30.9,0,0,0,13,18c1.4,1.5,2.7,2.8,4.1,4.1s.8.5,1.3.1a33.9,33.9,0,0,0,5.1-4.9C24.4,16.2,24.1,15.7,22.9,14.9Zm-4.6,5.7c-.3.3-.5.3-.9,0s-2.6-2.7-4-3.9-1-.6-1.4.4c-1.1,2.9-3.1,5.3-4.4,8.1a19.7,19.7,0,0,0-4.2-2.9c-.5-.4-.5-.5-.2-1A52.5,52.5,0,0,1,7,15.5a6.5,6.5,0,0,0,1.3-2.3.9.9,0,0,0-.4-1.1A52.9,52.9,0,0,1,2,7.4c-.4-.4-.5-.5-.2-.9s1.2-2,1.7-3,.9-.8,1.4-.2L8.1,6.2c1,.9,2.1,1.6,3.1,2.4s1,.5,1.4-.3a21.2,21.2,0,0,0,1.2-4.1,14.6,14.6,0,0,1,.5-2c.2-.8.5-1,1.2-.6a17.7,17.7,0,0,0,3.7,1.2c.6.2.7.3.4.9L16.4,10c-.2.5-.4.9.2,1.5a54.6,54.6,0,0,0,5.5,4.3l.6.5C21.3,17.8,19.8,19.2,18.3,20.6Z"/>
          </g>
        </g>
      </g>
    </g>
  </g>
</svg>
