<svg xmlns="http://www.w3.org/2000/svg" viewBox="0 0 24 26.8">
  <defs>
    <style>
      .cls-1 {
        fill: none;
      }

      .cls-2 {
        fill: #fff;
      }
    </style>
  </defs>
  <title>xxRecurso 11</title>
  <g id="Capa_2" data-name="Capa 2">
    <g id="hero">
      <g>
        <path class="cls-1" d="M13.4,16.7a1.2,1.2,0,0,0-.8-.4A1.2,1.2,0,0,1,13.4,16.7Z"/>
        <path class="cls-2" d="M22.9,14.9,18,11.3c-.3-.2-.5-.4-.3-.8,1.3-2.4,2.3-5,3.8-7.3a.6.6,0,0,0-.3-1.1,47.5,47.5,0,0,1-6.4-2h-.5c-.5,0-.8.3-1,.9l-.6,1.9-.9,3.9c-.1.3-.2.4-.3.4l-.4-.2L8.7,5C7.3,3.8,6.1,2.3,4.4,1.5l-.6-.2c-.3,0-.5.2-.8.5S1.3,4.9.3,6.5.2,7.6.7,8.1a40.9,40.9,0,0,0,5.6,4.5c.8.5.6.9.2,1.5a59.5,59.5,0,0,0-4.3,6.4c-.7,1.3-.7,1.9.5,2.8l4.6,3.2a.9.9,0,0,0,.6.3c.3,0,.6-.3.8-.7a22.9,22.9,0,0,1,1.4-2.7A30.9,30.9,0,0,0,13,18c1.4,1.5,2.7,2.8,4.1,4.1a1.3,1.3,0,0,0,.8.3.6.6,0,0,0,.5-.2,33.9,33.9,0,0,0,5.1-4.9C24.4,16.2,24.1,15.7,22.9,14.9ZM12.6,16.3a1.2,1.2,0,0,1,.8.4A1.2,1.2,0,0,0,12.6,16.3Z"/>
      </g>
    </g>
  </g>
</svg>
