<svg xmlns="http://www.w3.org/2000/svg" viewBox="0 0 80 80" height="24" width="24">
  <defs>
    <style>
      .cls-1 {
        fill: #0d0614;
      }

      .cls-2 {
        fill: aqua;
      }

      .cls-3 {
        fill: #211915;
      }
    </style>
  </defs>
  <title>logRecurso 4</title>
  <g id="Capa_2" data-name="Capa 2">
    <g id="hero">
      <g>
        <g>
          <path class="cls-1" d="M48.2,33.5c-1.7-1.7-1.1-2.9-.4-4.4,3-6.1,6.1-12.3,9.2-18.4.8-1.6.6-2.1-1.1-2.5A58.2,58.2,0,0,1,45.2,4.7c-2.3-1.1-3.1-.6-3.7,1.8s-.9,3.7-1.4,5.6c-1.1,4-1.5,8.2-3.5,12-1.3,2.3-2.5,1.9-4,.8A96.4,96.4,0,0,1,23.7,18L14.4,9.6c-1.7-1.6-2.9-1.7-4.1.6a91.7,91.7,0,0,1-5,8.6c-.8,1.2-.6,1.7.4,2.7,5.3,5.1,11.4,9.2,17.2,13.7A2.6,2.6,0,0,1,24,38.3a17.6,17.6,0,0,1-3.6,6.9A144.3,144.3,0,0,0,9.2,62c-.6,1.3-.8,1.8.8,2.7a74.8,74.8,0,0,1,12,8.5c3.9-8.1,9.6-15.2,12.9-23.6,1-2.8,2-2.9,4.1-1,4.1,3.6,7.4,7.9,11.7,11.3,1.1,1,1.6.9,2.6-.1,4.4-3.9,8.6-8.2,12.8-12.5l-1.7-1.2C59,41.9,53.1,38.4,48.2,33.5Z"/>
          <path class="cls-1" d="M66.6,43.3C61.8,40,57.1,36.4,52.4,33c-.9-.7-1.6-1.2-.9-2.6,3.8-7,6.6-14.5,11.1-21.1,1.1-1.4.6-2.7-.9-3.1C55.3,4.6,49.1,2.5,42.9.3,41-.5,39.4.3,38.7,2.5S37.5,6.2,37,8c-1,3.9-1.9,7.7-2.7,11.5-.3,1.4-.8,1.5-1.9.7s-4.9-3.7-7.2-5.7C21.1,11,17.8,6.6,12.7,4.3c-1.9-.9-2.8-.7-3.9,1C6,9.7,3.7,14.4.8,18.8c-1.7,2.6-.3,3.4,1.1,4.8A159.6,159.6,0,0,0,18.3,36.7c2.3,1.5,1.8,2.6.6,4.3-4.4,6-8.8,11.9-12.4,18.5C4.4,63.4,4.3,65,8,67.7l13.2,9.5c1.8,1.3,3.3.6,4.2-1.4a55.6,55.6,0,0,1,3.9-7.7c3.1-4.9,6.3-9.8,8.5-15.7a164.6,164.6,0,0,0,12,11.7c1.3,1.2,2.3,1.6,3.8.4A93.5,93.5,0,0,0,68.2,50.3C70.8,47.1,70.1,45.8,66.6,43.3ZM53.3,59.8c-1,1-1.5,1.1-2.6.1-4.3-3.4-7.6-7.7-11.7-11.3-2.1-1.9-3.1-1.8-4.1,1C31.6,58,25.9,65.1,22,73.2a74.8,74.8,0,0,0-12-8.5c-1.6-.9-1.4-1.4-.8-2.7A144.3,144.3,0,0,1,20.4,45.2,17.6,17.6,0,0,0,24,38.3a2.6,2.6,0,0,0-1.1-3.1C17.1,30.7,11,26.6,5.7,21.5c-1-1-1.2-1.5-.4-2.7a91.7,91.7,0,0,0,5-8.6c1.2-2.3,2.4-2.2,4.1-.6L23.7,18a96.4,96.4,0,0,0,8.9,6.9c1.5,1.1,2.7,1.5,4-.8,2-3.8,2.4-8,3.5-12,.5-1.9,1-3.7,1.4-5.6s1.4-2.9,3.7-1.8A58.2,58.2,0,0,0,55.9,8.2c1.7.4,1.9.9,1.1,2.5-3.1,6.1-6.2,12.3-9.2,18.4-.7,1.5-1.3,2.7.4,4.4,4.9,4.9,10.8,8.4,16.2,12.6l1.7,1.2C61.9,51.6,57.7,55.9,53.3,59.8Z"/>
        </g>
        <g>
          <path class="cls-2" d="M64.2,33.5c-1.7-1.7-1.1-2.9-.4-4.4,3-6.1,6.1-12.3,9.2-18.4.8-1.6.6-2.1-1.1-2.5A58.2,58.2,0,0,1,61.2,4.7c-2.3-1.1-3.1-.6-3.7,1.8s-.9,3.7-1.4,5.6c-1.1,4-1.5,8.2-3.5,12-1.3,2.3-2.5,1.9-4,.8A96.4,96.4,0,0,1,39.7,18L30.4,9.6c-1.7-1.6-2.9-1.7-4.1.6a91.7,91.7,0,0,1-5,8.6c-.8,1.2-.6,1.7.4,2.7,5.3,5.1,11.4,9.2,17.2,13.7A2.6,2.6,0,0,1,40,38.3a17.6,17.6,0,0,1-3.6,6.9A144.3,144.3,0,0,0,25.2,62c-.6,1.3-.8,1.8.8,2.7a74.8,74.8,0,0,1,12,8.5c3.9-8.1,9.6-15.2,12.9-23.6,1-2.8,2-2.9,4.1-1,4.1,3.6,7.4,7.9,11.7,11.3,1.1,1,1.6.9,2.6-.1,4.4-3.9,8.6-8.2,12.8-12.5l-1.7-1.2C75,41.9,69.1,38.4,64.2,33.5Z"/>
          <path class="cls-2" d="M82.6,43.3C77.8,40,73.1,36.4,68.4,33c-.9-.7-1.6-1.2-.9-2.6,3.8-7,6.6-14.5,11.1-21.1,1.1-1.4.6-2.7-.9-3.1C71.3,4.6,65.1,2.5,58.9.3,57-.5,55.4.3,54.7,2.5S53.5,6.2,53,8c-1,3.9-1.9,7.7-2.7,11.5-.3,1.4-.8,1.5-1.9.7s-4.9-3.7-7.2-5.7C37.1,11,33.8,6.6,28.7,4.3c-1.9-.9-2.8-.7-3.9,1-2.8,4.4-5.1,9.1-8,13.5-1.7,2.6-.3,3.4,1.1,4.8A159.6,159.6,0,0,0,34.3,36.7c2.3,1.5,1.8,2.6.6,4.3-4.4,6-8.8,11.9-12.4,18.5-2.1,3.9-2.2,5.5,1.5,8.2l13.2,9.5c1.8,1.3,3.3.6,4.2-1.4a55.6,55.6,0,0,1,3.9-7.7c3.1-4.9,6.3-9.8,8.5-15.7a164.6,164.6,0,0,0,12,11.7c1.3,1.2,2.3,1.6,3.8.4A93.5,93.5,0,0,0,84.2,50.3C86.8,47.1,86.1,45.8,82.6,43.3ZM69.3,59.8c-1,1-1.5,1.1-2.6.1-4.3-3.4-7.6-7.7-11.7-11.3-2.1-1.9-3.1-1.8-4.1,1C47.6,58,41.9,65.1,38,73.2a74.8,74.8,0,0,0-12-8.5c-1.6-.9-1.4-1.4-.8-2.7A144.3,144.3,0,0,1,36.4,45.2,17.6,17.6,0,0,0,40,38.3a2.6,2.6,0,0,0-1.1-3.1C33.1,30.7,27,26.6,21.7,21.5c-1-1-1.2-1.5-.4-2.7a91.7,91.7,0,0,0,5-8.6c1.2-2.3,2.4-2.2,4.1-.6L39.7,18a96.4,96.4,0,0,0,8.9,6.9c1.5,1.1,2.7,1.5,4-.8,2-3.8,2.4-8,3.5-12,.5-1.9,1-3.7,1.4-5.6s1.4-2.9,3.7-1.8A58.2,58.2,0,0,0,71.9,8.2c1.7.4,1.9.9,1.1,2.5-3.1,6.1-6.2,12.3-9.2,18.4-.7,1.5-1.3,2.7.4,4.4,4.9,4.9,10.8,8.4,16.2,12.6l1.7,1.2C77.9,51.6,73.7,55.9,69.3,59.8Z"/>
        </g>
        <g>
          <path class="cls-3" d="M48.2,33.5c-1.7-1.7-1.1-2.9-.4-4.4,3-6.1,6.1-12.3,9.2-18.4.8-1.6.6-2.1-1.1-2.5A58.2,58.2,0,0,1,45.2,4.7c-2.3-1.1-3.1-.6-3.7,1.8s-.9,3.7-1.4,5.6c-1.1,4-1.5,8.2-3.5,12-1.3,2.3-2.5,1.9-4,.8A96.4,96.4,0,0,1,23.7,18L14.4,9.6c-1.7-1.6-2.9-1.7-4.1.6a91.7,91.7,0,0,1-5,8.6c-.8,1.2-.6,1.7.4,2.7,5.3,5.1,11.4,9.2,17.2,13.7A2.6,2.6,0,0,1,24,38.3a17.6,17.6,0,0,1-3.6,6.9A144.3,144.3,0,0,0,9.2,62c-.6,1.3-.8,1.8.8,2.7a74.8,74.8,0,0,1,12,8.5c3.9-8.1,9.6-15.2,12.9-23.6,1-2.8,2-2.9,4.1-1,4.1,3.6,7.4,7.9,11.7,11.3,1.1,1,1.6.9,2.6-.1,4.4-3.9,8.6-8.2,12.8-12.5l-1.7-1.2C59,41.9,53.1,38.4,48.2,33.5Z"/>
          <path class="cls-3" d="M66.6,43.3C61.8,40,57.1,36.4,52.4,33c-.9-.7-1.6-1.2-.9-2.6,3.8-7,6.6-14.5,11.1-21.1,1.1-1.4.6-2.7-.9-3.1C55.3,4.6,49.1,2.5,42.9.3,41-.5,39.4.3,38.7,2.5S37.5,6.2,37,8c-1,3.9-1.9,7.7-2.7,11.5-.3,1.4-.8,1.5-1.9.7s-4.9-3.7-7.2-5.7C21.1,11,17.8,6.6,12.7,4.3c-1.9-.9-2.8-.7-3.9,1C6,9.7,3.7,14.4.8,18.8c-1.7,2.6-.3,3.4,1.1,4.8A159.6,159.6,0,0,0,18.3,36.7c2.3,1.5,1.8,2.6.6,4.3-4.4,6-8.8,11.9-12.4,18.5C4.4,63.4,4.3,65,8,67.7l13.2,9.5c1.8,1.3,3.3.6,4.2-1.4a55.6,55.6,0,0,1,3.9-7.7c3.1-4.9,6.3-9.8,8.5-15.7a164.6,164.6,0,0,0,12,11.7c1.3,1.2,2.3,1.6,3.8.4A93.5,93.5,0,0,0,68.2,50.3C70.8,47.1,70.1,45.8,66.6,43.3ZM53.3,59.8c-1,1-1.5,1.1-2.6.1-4.3-3.4-7.6-7.7-11.7-11.3-2.1-1.9-3.1-1.8-4.1,1C31.6,58,25.9,65.1,22,73.2a74.8,74.8,0,0,0-12-8.5c-1.6-.9-1.4-1.4-.8-2.7A144.3,144.3,0,0,1,20.4,45.2,17.6,17.6,0,0,0,24,38.3a2.6,2.6,0,0,0-1.1-3.1C17.1,30.7,11,26.6,5.7,21.5c-1-1-1.2-1.5-.4-2.7a91.7,91.7,0,0,0,5-8.6c1.2-2.3,2.4-2.2,4.1-.6L23.7,18a96.4,96.4,0,0,0,8.9,6.9c1.5,1.1,2.7,1.5,4-.8,2-3.8,2.4-8,3.5-12,.5-1.9,1-3.7,1.4-5.6s1.4-2.9,3.7-1.8A58.2,58.2,0,0,0,55.9,8.2c1.7.4,1.9.9,1.1,2.5-3.1,6.1-6.2,12.3-9.2,18.4-.7,1.5-1.3,2.7.4,4.4,4.9,4.9,10.8,8.4,16.2,12.6l1.7,1.2C61.9,51.6,57.7,55.9,53.3,59.8Z"/>
        </g>
      </g>
    </g>
  </g>
</svg>
